<?xml version="1.0" encoding="utf-8"?>
<!-- Generator: Adobe Illustrator 19.0.0, SVG Export Plug-In . SVG Version: 6.00 Build 0)  -->
<svg version="1.1" id="Layer_1" xmlns="http://www.w3.org/2000/svg" xmlns:xlink="http://www.w3.org/1999/xlink" x="0px" y="0px"
	 viewBox="0 0 512 512" style="enable-background:new 0 0 512 512;" xml:space="preserve">
<style type="text/css">
	.Graphic_x0020_Style{opacity:0.1;fill-rule:evenodd;clip-rule:evenodd;}
	.st0{opacity:0.1;fill-rule:evenodd;clip-rule:evenodd;}
	.st1{fill-rule:evenodd;clip-rule:evenodd;fill:#E5E5E5;}
	.st2{fill-rule:evenodd;clip-rule:evenodd;fill:#FFFFFF;}
	.st3{fill-rule:evenodd;clip-rule:evenodd;fill:#00AFDB;}
	.st4{fill-rule:evenodd;clip-rule:evenodd;fill:#98FFFF;}
	.st5{fill-rule:evenodd;clip-rule:evenodd;fill:#8AF9FF;}
	.st6{fill-rule:evenodd;clip-rule:evenodd;fill:#7DF5FF;}
	.st7{fill-rule:evenodd;clip-rule:evenodd;fill:#6FF0FF;}
	.st8{fill-rule:evenodd;clip-rule:evenodd;fill:#61EBFF;}
	.st9{fill-rule:evenodd;clip-rule:evenodd;fill:#53E7FF;}
	.st10{fill-rule:evenodd;clip-rule:evenodd;fill:#46E2FF;}
	.st11{fill-rule:evenodd;clip-rule:evenodd;fill:#38DEFF;}
	.st12{fill-rule:evenodd;clip-rule:evenodd;fill:#2AD9FF;}
	.st13{fill-rule:evenodd;clip-rule:evenodd;fill:#1CD4FF;}
	.st14{fill-rule:evenodd;clip-rule:evenodd;fill:#0ED0FF;}
	.st15{fill-rule:evenodd;clip-rule:evenodd;fill:#00CBFF;}
	.st16{opacity:0.29;fill-rule:evenodd;clip-rule:evenodd;fill:#FFFFFF;}
	.st17{fill-rule:evenodd;clip-rule:evenodd;fill:none;stroke:#00AFDB;stroke-width:1.8459;stroke-miterlimit:22.9256;}
</style>
<g>
	<g>
		<path class="st0" d="M244.2,241.8c7.5-1.3,15-1.4,22.4,0c2.4,0.4,3.9,2,4.4,4.4c1.4,7.5,1.4,14.9,0,22.4c-0.4,2.4-2,4.1-4.4,4.4
			c-7.4,0.7-14.8,0.7-22.4,0c-2.4-0.2-4.1-2-4.4-4.4c-0.8-7.5-1-14.9,0-22.4C240.2,243.8,241.8,242.2,244.2,241.8z"/>
		<path class="st1" d="M243.5,240.1c7.5-1.3,15-1.4,22.4,0c2.4,0.4,3.9,2,4.4,4.4c1.4,7.5,1.4,14.9,0,22.4c-0.4,2.4-2,4.1-4.4,4.4
			c-7.4,0.7-14.8,0.7-22.4,0c-2.4-0.2-4.1-2-4.4-4.4c-0.8-7.5-1-14.9,0-22.4C239.4,242.1,241.1,240.5,243.5,240.1z"/>
		<path class="st2" d="M243.5,239.3c7.5-1.3,15-1.4,22.4,0c2.4,0.4,3.9,2,4.4,4.4c1.4,7.5,1.4,14.9,0,22.4c-0.4,2.4-2,4.1-4.4,4.4
			c-7.4,0.7-14.8,0.7-22.4,0c-2.4-0.2-4.1-2-4.4-4.4c-0.8-7.5-1-14.9,0-22.4C239.4,241.3,241.1,239.7,243.5,239.3z"/>
		<path class="st1" d="M245.1,241.4c6.8-1.2,13.5-1.2,20.1,0c2.1,0.4,3.5,1.8,3.9,3.9c1.3,6.7,1.3,13.4,0,20.1
			c-0.4,2.1-1.8,3.7-3.9,3.9c-6.6,0.6-13.3,0.6-20.1,0c-2.1-0.2-3.7-1.8-3.9-3.9c-0.8-6.7-0.9-13.4,0-20.1
			C241.5,243.2,243,241.8,245.1,241.4z"/>
		<path class="st3" d="M244.6,240.8c6.8-1.2,13.5-1.2,20.1,0c2.1,0.4,3.5,1.8,3.9,3.9c1.3,6.7,1.3,13.4,0,20.1
			c-0.4,2.1-1.8,3.7-3.9,3.9c-6.6,0.6-13.3,0.6-20.1,0c-2.1-0.2-3.7-1.8-3.9-3.9c-0.8-6.7-0.9-13.4,0-20.1
			C241,242.6,242.5,241.2,244.6,240.8z"/>
		<path class="st4" d="M244.6,239.5c6.8-1.2,13.5-1.2,20.1,0c2.1,0.4,3.5,1.8,3.9,3.9c1.3,6.7,1.3,13.4,0,20.1
			c-0.4,2.1-1.8,3.7-3.9,3.9c-6.6,0.6-13.3,0.6-20.1,0c-2.1-0.2-3.7-1.8-3.9-3.9c-0.8-6.7-0.9-13.4,0-20.1
			C241,241.3,242.5,239.9,244.6,239.5z"/>
		<g>
			<path class="st5" d="M244.8,239.7c6.7-1.2,13.3-1.2,19.8,0c2.1,0.4,3.5,1.8,3.9,3.9c1.3,6.6,1.3,13.2,0,19.8
				c-0.4,2.1-1.7,3.7-3.9,3.9c-6.5,0.6-13.1,0.6-19.8,0c-2.1-0.2-3.6-1.8-3.9-3.9c-0.7-6.6-0.9-13.2,0-19.8
				C241.2,241.4,242.7,240,244.8,239.7z"/>
			<path class="st6" d="M244.9,239.9c6.6-1.2,13.1-1.2,19.6,0c2.1,0.4,3.4,1.8,3.8,3.8c1.3,6.5,1.2,13,0,19.6
				c-0.4,2.1-1.7,3.6-3.8,3.8c-6.4,0.6-13,0.6-19.6,0c-2.1-0.2-3.6-1.7-3.8-3.8c-0.7-6.5-0.9-13,0-19.6
				C241.4,241.6,242.8,240.2,244.9,239.9z"/>
			<path class="st7" d="M245,240c6.5-1.2,12.9-1.2,19.3,0c2,0.4,3.4,1.7,3.8,3.8c1.2,6.4,1.2,12.9,0,19.3c-0.4,2-1.7,3.6-3.8,3.8
				c-6.4,0.6-12.8,0.6-19.3,0c-2.1-0.2-3.5-1.7-3.8-3.8c-0.7-6.4-0.9-12.9,0-19.3C241.6,241.7,243,240.4,245,240z"/>
			<path class="st8" d="M245.2,240.2c6.4-1.1,12.8-1.2,19,0c2,0.4,3.3,1.7,3.7,3.7c1.2,6.3,1.2,12.7,0,19c-0.4,2-1.7,3.5-3.7,3.7
				c-6.3,0.6-12.6,0.6-19,0c-2-0.2-3.5-1.7-3.7-3.7c-0.7-6.3-0.9-12.7,0-19C241.7,241.9,243.2,240.6,245.2,240.2z"/>
			<path class="st9" d="M245.3,240.4c6.3-1.1,12.6-1.1,18.8,0c2,0.4,3.3,1.7,3.7,3.7c1.2,6.3,1.2,12.5,0,18.8
				c-0.4,2-1.7,3.5-3.7,3.7c-6.2,0.6-12.4,0.6-18.8,0c-2-0.2-3.4-1.7-3.7-3.7c-0.7-6.3-0.8-12.5,0-18.8
				C241.9,242.1,243.3,240.7,245.3,240.4z"/>
			<path class="st10" d="M245.5,240.6c6.2-1.1,12.4-1.1,18.5,0c1.9,0.4,3.2,1.7,3.6,3.6c1.2,6.2,1.2,12.3,0,18.5
				c-0.4,1.9-1.6,3.4-3.6,3.6c-6.1,0.6-12.3,0.6-18.5,0c-2-0.2-3.4-1.6-3.6-3.6c-0.7-6.2-0.8-12.3,0-18.5
				C242.1,242.2,243.5,240.9,245.5,240.6z"/>
			<path class="st11" d="M245.6,240.8c6.1-1.1,12.2-1.1,18.2,0c1.9,0.4,3.2,1.6,3.6,3.6c1.2,6.1,1.2,12.1,0,18.2
				c-0.4,1.9-1.6,3.4-3.6,3.5c-6,0.6-12.1,0.5-18.2,0c-1.9-0.2-3.3-1.6-3.6-3.5c-0.7-6.1-0.8-12.1,0-18.2
				C242.3,242.4,243.7,241.1,245.6,240.8z"/>
			<path class="st12" d="M245.7,240.9c6.1-1.1,12-1.1,18,0c1.9,0.3,3.1,1.6,3.5,3.5c1.2,6,1.1,12,0,18c-0.4,1.9-1.6,3.3-3.5,3.5
				c-5.9,0.5-11.9,0.5-18,0c-1.9-0.2-3.3-1.6-3.5-3.5c-0.7-6-0.8-12,0-18C242.5,242.5,243.8,241.3,245.7,240.9z"/>
			<path class="st13" d="M245.9,241.1c6-1.1,11.9-1.1,17.7,0c1.9,0.3,3.1,1.6,3.4,3.4c1.1,5.9,1.1,11.8,0,17.7
				c-0.4,1.9-1.6,3.3-3.4,3.4c-5.8,0.5-11.7,0.5-17.7,0c-1.9-0.2-3.2-1.6-3.4-3.4c-0.7-5.9-0.8-11.8,0-17.7
				C242.7,242.7,244,241.5,245.9,241.1z"/>
			<path class="st14" d="M246,241.3c5.9-1,11.7-1.1,17.4,0c1.8,0.3,3,1.6,3.4,3.4c1.1,5.8,1.1,11.6,0,17.4c-0.3,1.8-1.5,3.2-3.4,3.4
				c-5.7,0.5-11.6,0.5-17.4,0c-1.9-0.2-3.2-1.5-3.4-3.4c-0.7-5.8-0.8-11.6,0-17.4C242.8,242.8,244.2,241.6,246,241.3z"/>
		</g>
		<path class="st15" d="M246.1,241.5c5.8-1,11.5-1,17.2,0c1.8,0.3,3,1.5,3.3,3.3c1.1,5.7,1.1,11.4,0,17.2c-0.3,1.8-1.5,3.2-3.3,3.3
			c-5.7,0.5-11.4,0.5-17.2,0c-1.8-0.2-3.1-1.5-3.3-3.3c-0.6-5.7-0.8-11.4,0-17.2C243,243,244.3,241.8,246.1,241.5z"/>
		<path class="st16" d="M244.6,239.5c6.8-1.2,13.5-1.2,20.1,0c2.1,0.4,3.5,1.8,3.9,3.9c0.6,3,0.9,6.1,1,9.1
			c-12.5-5.1-21,8.6-29.5-0.1c0-3,0.2-6,0.6-9C241,241.3,242.5,239.9,244.6,239.5z"/>
		<circle class="st2" cx="244.4" cy="243.1" r="2.6"/>
		<circle class="st2" cx="248.5" cy="240.6" r="1.3"/>
		<circle class="st2" cx="265.3" cy="265.2" r="1.6"/>
	</g>
	<g>
		<g>
			<path class="st17" d="M245.3,253c-0.5,0.8-0.7,1.4,1.4,1.4h1.3v6.3c0,0.5,0.4,0.9,0.9,0.9h11.5c0.5,0,0.9-0.4,0.9-0.9v-6.3h1.7
				c1.3,0,1.6-0.4,1.1-1.1l-8.7-9.1c-0.6-0.5-1.2-0.4-1.8,0L245.3,253L245.3,253z M259.3,254.6h-1.4c-0.2,0-0.4,0.2-0.4,0.4v1.4
				c0,0.2,0.2,0.4,0.4,0.4h1.4c0.2,0,0.4-0.2,0.4-0.4V255C259.7,254.8,259.5,254.6,259.3,254.6L259.3,254.6z M256.6,254.6h-1.4
				c-0.2,0-0.4,0.2-0.4,0.4v1.4c0,0.2,0.2,0.4,0.4,0.4h1.4c0.2,0,0.4-0.2,0.4-0.4V255C257,254.8,256.8,254.6,256.6,254.6
				L256.6,254.6z M259.3,257.2h-1.4c-0.2,0-0.4,0.2-0.4,0.4v1.4c0,0.2,0.2,0.4,0.4,0.4h1.4c0.2,0,0.4-0.2,0.4-0.4v-1.4
				C259.7,257.4,259.5,257.2,259.3,257.2L259.3,257.2z M256.6,257.2h-1.4c-0.2,0-0.4,0.2-0.4,0.4v1.4c0,0.2,0.2,0.4,0.4,0.4h1.4
				c0.2,0,0.4-0.2,0.4-0.4v-1.4C257,257.4,256.8,257.2,256.6,257.2z"/>
			<path class="st2" d="M258.6,261.7h1.8c0.5,0,0.9-0.4,0.9-0.9v-6.3h1.7c1.3,0,1.6-0.4,1.1-1.1l-5.5-5.8v7h0.7
				c0.2,0,0.4,0.2,0.4,0.4v1.4c0,0.2-0.2,0.4-0.4,0.4h-0.7v0.5h0.7c0.2,0,0.4,0.2,0.4,0.4v1.4c0,0.2-0.2,0.4-0.4,0.4h-0.7V261.7z
				 M255.9,261.7h2.7v-2.3h-0.7c-0.2,0-0.4-0.2-0.4-0.4v-1.4c0-0.2,0.2-0.4,0.4-0.4h0.7v-0.5h-0.7c-0.2,0-0.4-0.2-0.4-0.4V255
				c0-0.2,0.2-0.4,0.4-0.4h0.7v-7l-2.7-2.9v9.9h0.7c0.2,0,0.4,0.2,0.4,0.4v1.4c0,0.2-0.2,0.4-0.4,0.4h-0.7v0.5h0.7
				c0.2,0,0.4,0.2,0.4,0.4v1.4c0,0.2-0.2,0.4-0.4,0.4h-0.7V261.7z M245.3,253c-0.5,0.8-0.7,1.4,1.4,1.4h1.3v6.3
				c0,0.5,0.4,0.9,0.9,0.9h7v-2.3h-0.7c-0.2,0-0.4-0.2-0.4-0.4v-1.4c0-0.2,0.2-0.4,0.4-0.4h0.7v-0.5h-0.7c-0.2,0-0.4-0.2-0.4-0.4
				V255c0-0.2,0.2-0.4,0.4-0.4h0.7v-9.9l-0.5-0.5c-0.6-0.5-1.2-0.4-1.8,0L245.3,253z"/>
		</g>
		<path class="Graphic_x0020_Style" d="M245.3,253c-0.5,0.8-0.7,1.4,1.4,1.4h1.3v-1.6h-1.3c-0.5,0-0.9,0-1.1-0.1L245.3,253
			L245.3,253z M247.9,259.2v1.6c0,0.5,0.4,0.9,0.9,0.9h11.5c0.5,0,0.9-0.4,0.9-0.9v-1.6c0,0.5-0.4,0.9-0.9,0.9h-11.5
			C248.4,260.1,247.9,259.7,247.9,259.2L247.9,259.2z M261.3,254.4h1.7c1.3,0,1.6-0.4,1.1-1.1l-0.5-0.5c-0.2,0-0.4,0-0.6,0h-1.7
			V254.4z"/>
	</g>
</g>
</svg>
