<?xml version="1.0" encoding="utf-8"?>
<!-- Generator: Adobe Illustrator 19.0.0, SVG Export Plug-In . SVG Version: 6.00 Build 0)  -->
<svg version="1.1" id="Layer_1" xmlns="http://www.w3.org/2000/svg" xmlns:xlink="http://www.w3.org/1999/xlink" x="0px" y="0px"
	 viewBox="0 0 512 512" style="enable-background:new 0 0 512 512;" xml:space="preserve">
<style type="text/css">
	.st0{display:none;}
	.st1{display:inline;}
	.st2{opacity:0.1;fill-rule:evenodd;clip-rule:evenodd;}
	.st3{fill-rule:evenodd;clip-rule:evenodd;fill:#E5E5E5;}
	.st4{fill-rule:evenodd;clip-rule:evenodd;fill:#FFFFFF;}
	.st5{fill-rule:evenodd;clip-rule:evenodd;fill:#00AFDB;}
	.st6{fill-rule:evenodd;clip-rule:evenodd;fill:#98FFFF;}
	.st7{fill-rule:evenodd;clip-rule:evenodd;fill:#8AF9FF;}
	.st8{fill-rule:evenodd;clip-rule:evenodd;fill:#7DF5FF;}
	.st9{fill-rule:evenodd;clip-rule:evenodd;fill:#6FF0FF;}
	.st10{fill-rule:evenodd;clip-rule:evenodd;fill:#61EBFF;}
	.st11{fill-rule:evenodd;clip-rule:evenodd;fill:#53E7FF;}
	.st12{fill-rule:evenodd;clip-rule:evenodd;fill:#46E2FF;}
	.st13{fill-rule:evenodd;clip-rule:evenodd;fill:#38DEFF;}
	.st14{fill-rule:evenodd;clip-rule:evenodd;fill:#2AD9FF;}
	.st15{fill-rule:evenodd;clip-rule:evenodd;fill:#1CD4FF;}
	.st16{fill-rule:evenodd;clip-rule:evenodd;fill:#0ED0FF;}
	.st17{fill-rule:evenodd;clip-rule:evenodd;fill:#00CBFF;}
	.st18{opacity:0.29;fill-rule:evenodd;clip-rule:evenodd;fill:#FFFFFF;}
	.st19{fill-rule:evenodd;clip-rule:evenodd;fill:none;stroke:#00AFDB;stroke-width:1.262;stroke-miterlimit:22.9256;}
	.st20{fill-rule:evenodd;clip-rule:evenodd;}
</style>
<g id="XMLID_408_" class="st0">
	<g id="XMLID_416_" class="st1">
		<path id="XMLID_438_" class="st2" d="M95.6,154.3c5.3-0.9,10.6-1,15.8,0c1.7,0.3,2.8,1.4,3.1,3.1c1,5.3,1,10.5,0,15.8
			c-0.3,1.7-1.4,2.9-3.1,3.1c-5.2,0.5-10.5,0.5-15.8,0c-1.7-0.1-2.9-1.4-3.1-3.1c-0.6-5.3-0.7-10.5,0-15.8
			C92.8,155.6,93.9,154.5,95.6,154.3z"/>
		<path id="XMLID_437_" class="st3" d="M95.1,153.1c5.3-0.9,10.6-1,15.8,0c1.7,0.3,2.8,1.4,3.1,3.1c1,5.3,1,10.5,0,15.8
			c-0.3,1.7-1.4,2.9-3.1,3.1c-5.2,0.5-10.5,0.5-15.8,0c-1.7-0.1-2.9-1.4-3.1-3.1c-0.6-5.3-0.7-10.5,0-15.8
			C92.2,154.5,93.4,153.4,95.1,153.1z"/>
		<path id="XMLID_436_" class="st4" d="M95.1,152.5c5.3-0.9,10.6-1,15.8,0c1.7,0.3,2.8,1.4,3.1,3.1c1,5.3,1,10.5,0,15.8
			c-0.3,1.7-1.4,2.9-3.1,3.1c-5.2,0.5-10.5,0.5-15.8,0c-1.7-0.1-2.9-1.4-3.1-3.1c-0.6-5.3-0.7-10.5,0-15.8
			C92.2,153.9,93.4,152.8,95.1,152.5z"/>
		<path id="XMLID_435_" class="st3" d="M96.3,154c4.8-0.8,9.5-0.9,14.1,0c1.5,0.3,2.5,1.3,2.8,2.8c0.9,4.7,0.9,9.4,0,14.1
			c-0.3,1.5-1.2,2.6-2.8,2.8c-4.7,0.4-9.4,0.4-14.1,0c-1.5-0.1-2.6-1.2-2.8-2.8c-0.5-4.7-0.6-9.4,0-14.1
			C93.7,155.3,94.8,154.3,96.3,154z"/>
		<path id="XMLID_434_" class="st5" d="M95.9,153.6c4.8-0.8,9.5-0.9,14.1,0c1.5,0.3,2.5,1.3,2.8,2.8c0.9,4.7,0.9,9.4,0,14.1
			c-0.3,1.5-1.2,2.6-2.8,2.8c-4.7,0.4-9.4,0.4-14.1,0c-1.5-0.1-2.6-1.2-2.8-2.8c-0.5-4.7-0.6-9.4,0-14.1
			C93.4,154.8,94.4,153.9,95.9,153.6z"/>
		<path id="XMLID_433_" class="st6" d="M95.9,152.6c4.8-0.8,9.5-0.9,14.1,0c1.5,0.3,2.5,1.3,2.8,2.8c0.9,4.7,0.9,9.4,0,14.1
			c-0.3,1.5-1.2,2.6-2.8,2.8c-4.7,0.4-9.4,0.4-14.1,0c-1.5-0.1-2.6-1.3-2.8-2.8c-0.5-4.7-0.6-9.4,0-14.1
			C93.4,153.9,94.4,152.9,95.9,152.6z"/>
		<g id="XMLID_422_">
			<path id="XMLID_432_" class="st7" d="M96,152.8c4.7-0.8,9.4-0.8,14,0c1.5,0.3,2.4,1.3,2.7,2.7c0.9,4.7,0.9,9.3,0,14
				c-0.3,1.5-1.2,2.6-2.7,2.7c-4.6,0.4-9.3,0.4-14,0c-1.5-0.1-2.6-1.2-2.7-2.7c-0.5-4.7-0.6-9.3,0-14C93.5,154,94.5,153,96,152.8z"
				/>
			<path id="XMLID_431_" class="st8" d="M96.1,152.9c4.6-0.8,9.2-0.8,13.8,0c1.5,0.3,2.4,1.2,2.7,2.7c0.9,4.6,0.9,9.2,0,13.8
				c-0.3,1.4-1.2,2.5-2.7,2.7c-4.5,0.4-9.1,0.4-13.8,0c-1.5-0.1-2.5-1.2-2.7-2.7c-0.5-4.6-0.6-9.2,0-13.8
				C93.6,154.1,94.6,153.2,96.1,152.9z"/>
			<path id="XMLID_430_" class="st9" d="M96.2,153c4.6-0.8,9.1-0.8,13.6,0c1.4,0.3,2.4,1.2,2.6,2.6c0.9,4.5,0.9,9.1,0,13.6
				c-0.3,1.4-1.2,2.5-2.6,2.6c-4.5,0.4-9,0.4-13.6,0c-1.4-0.1-2.5-1.2-2.6-2.6c-0.5-4.5-0.6-9.1,0-13.6
				C93.7,154.2,94.8,153.3,96.2,153z"/>
			<path id="XMLID_429_" class="st10" d="M96.3,153.1c4.5-0.8,9-0.8,13.4,0c1.4,0.3,2.3,1.2,2.6,2.6c0.9,4.5,0.8,8.9,0,13.4
				c-0.3,1.4-1.2,2.5-2.6,2.6c-4.4,0.4-8.9,0.4-13.4,0c-1.4-0.1-2.4-1.2-2.6-2.6c-0.5-4.5-0.6-8.9,0-13.4
				C93.9,154.3,94.9,153.4,96.3,153.1z"/>
			<path id="XMLID_428_" class="st11" d="M96.4,153.3c4.5-0.8,8.9-0.8,13.2,0c1.4,0.3,2.3,1.2,2.6,2.6c0.9,4.4,0.8,8.8,0,13.2
				c-0.3,1.4-1.2,2.4-2.6,2.6c-4.4,0.4-8.8,0.4-13.2,0c-1.4-0.1-2.4-1.2-2.6-2.6c-0.5-4.4-0.6-8.8,0-13.2
				C94,154.4,95,153.5,96.4,153.3z"/>
			<path id="XMLID_427_" class="st12" d="M96.5,153.4c4.4-0.8,8.7-0.8,13,0c1.4,0.3,2.3,1.2,2.5,2.5c0.8,4.3,0.8,8.7,0,13
				c-0.3,1.4-1.1,2.4-2.5,2.5c-4.3,0.4-8.6,0.4-13,0c-1.4-0.1-2.4-1.2-2.5-2.5c-0.5-4.3-0.6-8.7,0-13
				C94.1,154.6,95.1,153.6,96.5,153.4z"/>
			<path id="XMLID_426_" class="st13" d="M96.6,153.5c4.3-0.8,8.6-0.8,12.8,0c1.4,0.2,2.2,1.1,2.5,2.5c0.8,4.3,0.8,8.6,0,12.8
				c-0.3,1.4-1.1,2.4-2.5,2.5c-4.2,0.4-8.5,0.4-12.8,0c-1.4-0.1-2.3-1.1-2.5-2.5c-0.5-4.3-0.6-8.6,0-12.8
				C94.3,154.7,95.2,153.8,96.6,153.5z"/>
			<path id="XMLID_425_" class="st14" d="M96.7,153.7c4.3-0.8,8.5-0.8,12.6,0c1.3,0.2,2.2,1.1,2.5,2.5c0.8,4.2,0.8,8.4,0,12.6
				c-0.3,1.3-1.1,2.3-2.5,2.5c-4.2,0.4-8.4,0.4-12.6,0c-1.4-0.1-2.3-1.1-2.5-2.5c-0.5-4.2-0.6-8.4,0-12.6
				C94.4,154.8,95.3,153.9,96.7,153.7z"/>
			<path id="XMLID_424_" class="st15" d="M96.8,153.8c4.2-0.7,8.4-0.8,12.5,0c1.3,0.2,2.2,1.1,2.4,2.4c0.8,4.2,0.8,8.3,0,12.5
				c-0.2,1.3-1.1,2.3-2.4,2.4c-4.1,0.4-8.3,0.4-12.5,0c-1.3-0.1-2.3-1.1-2.4-2.4c-0.5-4.2-0.6-8.3,0-12.5
				C94.5,154.9,95.5,154,96.8,153.8z"/>
			<path id="XMLID_423_" class="st16" d="M96.9,153.9c4.1-0.7,8.2-0.7,12.3,0c1.3,0.2,2.1,1.1,2.4,2.4c0.8,4.1,0.8,8.2,0,12.3
				c-0.2,1.3-1.1,2.3-2.4,2.4c-4,0.4-8.1,0.4-12.3,0c-1.3-0.1-2.2-1.1-2.4-2.4c-0.5-4.1-0.6-8.2,0-12.3
				C94.6,155,95.6,154.1,96.9,153.9z"/>
		</g>
		<path id="XMLID_421_" class="st17" d="M97,154c4.1-0.7,8.1-0.7,12.1,0c1.3,0.2,2.1,1.1,2.4,2.4c0.8,4,0.8,8.1,0,12.1
			c-0.2,1.3-1.1,2.2-2.4,2.4c-4,0.4-8,0.4-12.1,0c-1.3-0.1-2.2-1.1-2.4-2.4c-0.5-4-0.5-8.1,0-12.1C94.8,155.1,95.7,154.3,97,154z"/>
		<path id="XMLID_420_" class="st18" d="M95.9,152.6c4.8-0.8,9.5-0.9,14.1,0c1.5,0.3,2.5,1.3,2.8,2.8c0.4,2.1,0.6,4.3,0.7,6.4
			c-8.8-3.6-14.8,6-20.8,0c0-2.1,0.2-4.2,0.4-6.4C93.4,153.9,94.4,152.9,95.9,152.6z"/>
		<circle id="XMLID_419_" class="st4" cx="95.8" cy="155.1" r="1.9"/>
		<circle id="XMLID_418_" class="st4" cx="98.6" cy="153.4" r="0.9"/>
		<circle id="XMLID_417_" class="st4" cx="110.5" cy="170.7" r="1.1"/>
	</g>
	<g id="XMLID_409_" class="st1">
		<g id="XMLID_412_">
			<path id="XMLID_415_" class="st19" d="M101.1,164c0.8,0,1.6,0.2,2.2,0.4c-0.6-2.6-1.4-5.9-2.1-8.5c-0.3-1.2,2.5-0.6,3.5,0.1
				c1,0.7,1.7,2.4,4.1,2.1c-1.3,1.6-3.3,0.5-4.7,0.2c-0.8-0.1-1.3,0.4-1.1,0.9l1.4,5.9c0.4,0.4,0.6,0.9,0.6,1.3
				c0,1.4-1.8,2.6-3.9,2.6c-2.2,0-3.9-1.1-3.9-2.6C97.2,165.2,98.9,164,101.1,164z"/>
			<path id="XMLID_413_" class="st4" d="M101.1,164c0.8,0,1.6,0.2,2.2,0.4c-0.6-2.6-1.4-5.9-2.1-8.5c-0.3-1.2,2.5-0.6,3.5,0.1
				c1,0.7,1.7,2.4,4.1,2.1c-1.3,1.6-3.3,0.5-4.7,0.2c-0.8-0.1-1.3,0.4-1.1,0.9l1.4,5.9c0.4,0.4,0.6,0.9,0.6,1.3
				c0,1.4-1.8,2.6-3.9,2.6c-2.2,0-3.9-1.1-3.9-2.6C97.2,165.2,98.9,164,101.1,164z"/>
		</g>
		<path id="XMLID_411_" class="st2" d="M104.8,165.8c-0.1,1.3-1.8,2.4-3.9,2.4c-1.7,0-3.2-0.7-3.7-1.8c0,0,0,0.1,0,0.2
			c0,0.7,0.4,1.3,1.1,1.8c0.6,0.4,1.3,0.7,2.2,0.7c0.2,0,0.5,0,0.7,0c2.2,0,3.9-1.1,3.9-2.6C105,166.3,105,166,104.8,165.8z"/>
		<path id="XMLID_410_" class="st2" d="M105.7,158.8c1.1,0.3,2.3,0.4,3.2-0.6c-0.3,0-0.6,0.1-0.9,0c-0.3,0-0.5-0.1-0.8-0.2
			c-1.1,0.1-2.3-0.4-3.2-0.6c-0.5-0.1-0.9,0.1-1,0.4c-0.1,0.2-0.2,0.4-0.1,0.6l0.2,0.8c0-0.4,0.4-0.7,0.9-0.7c0.1,0,0.1,0,0.2,0
			C104.7,158.5,105.2,158.7,105.7,158.8z"/>
	</g>
</g>
<g id="XMLID_245_" class="st0">
	<g id="XMLID_385_" class="st1">
		<path id="XMLID_407_" class="st2" d="M245,57.7c5.3-0.9,10.6-1,15.8,0c1.7,0.3,2.8,1.4,3.1,3.1c1,5.3,1,10.5,0,15.8
			c-0.3,1.7-1.4,2.9-3.1,3.1c-5.2,0.5-10.5,0.5-15.8,0c-1.7-0.1-2.9-1.4-3.1-3.1c-0.6-5.3-0.7-10.5,0-15.8
			C242.1,59.1,243.3,58,245,57.7z"/>
		<path id="XMLID_406_" class="st3" d="M244.5,56.5c5.3-0.9,10.6-1,15.8,0c1.7,0.3,2.8,1.4,3.1,3.1c1,5.3,1,10.5,0,15.8
			c-0.3,1.7-1.4,2.9-3.1,3.1c-5.2,0.5-10.5,0.5-15.8,0c-1.7-0.1-2.9-1.4-3.1-3.1c-0.6-5.3-0.7-10.5,0-15.8
			C241.6,57.9,242.8,56.8,244.5,56.5z"/>
		<path id="XMLID_405_" class="st4" d="M244.5,55.9c5.3-0.9,10.6-1,15.8,0c1.7,0.3,2.8,1.4,3.1,3.1c1,5.3,1,10.5,0,15.8
			c-0.3,1.7-1.4,2.9-3.1,3.1c-5.2,0.5-10.5,0.5-15.8,0c-1.7-0.1-2.9-1.4-3.1-3.1c-0.6-5.3-0.7-10.5,0-15.8
			C241.6,57.3,242.8,56.2,244.5,55.9z"/>
		<path id="XMLID_404_" class="st3" d="M245.6,57.5c4.8-0.8,9.5-0.9,14.1,0c1.5,0.3,2.5,1.3,2.8,2.8c0.9,4.7,0.9,9.4,0,14.1
			c-0.3,1.5-1.2,2.6-2.8,2.8c-4.7,0.4-9.4,0.4-14.1,0c-1.5-0.1-2.6-1.2-2.8-2.8c-0.5-4.7-0.6-9.4,0-14.1
			C243.1,58.7,244.2,57.7,245.6,57.5z"/>
		<path id="XMLID_403_" class="st5" d="M245.3,57c4.8-0.8,9.5-0.9,14.1,0c1.5,0.3,2.5,1.3,2.8,2.8c0.9,4.7,0.9,9.4,0,14.1
			c-0.3,1.5-1.2,2.6-2.8,2.8c-4.7,0.4-9.4,0.4-14.1,0c-1.5-0.1-2.6-1.2-2.8-2.8c-0.5-4.7-0.6-9.4,0-14.1
			C242.7,58.3,243.8,57.3,245.3,57z"/>
		<path id="XMLID_402_" class="st6" d="M245.3,56.1c4.8-0.8,9.5-0.9,14.1,0c1.5,0.3,2.5,1.3,2.8,2.8c0.9,4.7,0.9,9.4,0,14.1
			c-0.3,1.5-1.2,2.6-2.8,2.8c-4.7,0.4-9.4,0.4-14.1,0c-1.5-0.1-2.6-1.3-2.8-2.8c-0.5-4.7-0.6-9.4,0-14.1
			C242.7,57.3,243.8,56.4,245.3,56.1z"/>
		<g id="XMLID_391_">
			<path id="XMLID_401_" class="st7" d="M245.4,56.2c4.7-0.8,9.4-0.8,14,0c1.5,0.3,2.4,1.3,2.7,2.7c0.9,4.7,0.9,9.3,0,14
				c-0.3,1.5-1.2,2.6-2.7,2.7c-4.6,0.4-9.3,0.4-14,0c-1.5-0.1-2.6-1.2-2.7-2.7c-0.5-4.7-0.6-9.3,0-14
				C242.9,57.5,243.9,56.5,245.4,56.2z"/>
			<path id="XMLID_400_" class="st8" d="M245.5,56.3c4.6-0.8,9.2-0.8,13.8,0c1.5,0.3,2.4,1.2,2.7,2.7c0.9,4.6,0.9,9.2,0,13.8
				c-0.3,1.4-1.2,2.5-2.7,2.7c-4.5,0.4-9.1,0.4-13.8,0c-1.5-0.1-2.5-1.2-2.7-2.7c-0.5-4.6-0.6-9.2,0-13.8
				C243,57.6,244,56.6,245.5,56.3z"/>
			<path id="XMLID_399_" class="st9" d="M245.6,56.5c4.6-0.8,9.1-0.8,13.6,0c1.4,0.3,2.4,1.2,2.6,2.6c0.9,4.5,0.9,9.1,0,13.6
				c-0.3,1.4-1.2,2.5-2.6,2.6c-4.5,0.4-9,0.4-13.6,0c-1.4-0.1-2.5-1.2-2.6-2.6c-0.5-4.5-0.6-9.1,0-13.6
				C243.1,57.7,244.2,56.7,245.6,56.5z"/>
			<path id="XMLID_398_" class="st10" d="M245.7,56.6c4.5-0.8,9-0.8,13.4,0c1.4,0.3,2.3,1.2,2.6,2.6c0.9,4.5,0.8,8.9,0,13.4
				c-0.3,1.4-1.2,2.5-2.6,2.6c-4.4,0.4-8.9,0.4-13.4,0c-1.4-0.1-2.4-1.2-2.6-2.6c-0.5-4.5-0.6-8.9,0-13.4
				C243.3,57.8,244.3,56.8,245.7,56.6z"/>
			<path id="XMLID_397_" class="st11" d="M245.8,56.7c4.5-0.8,8.9-0.8,13.2,0c1.4,0.3,2.3,1.2,2.6,2.6c0.9,4.4,0.8,8.8,0,13.2
				c-0.3,1.4-1.2,2.4-2.6,2.6c-4.4,0.4-8.8,0.4-13.2,0c-1.4-0.1-2.4-1.2-2.6-2.6c-0.5-4.4-0.6-8.8,0-13.2
				C243.4,57.9,244.4,57,245.8,56.7z"/>
			<path id="XMLID_396_" class="st12" d="M245.9,56.9c4.4-0.8,8.7-0.8,13,0c1.4,0.3,2.3,1.2,2.5,2.5c0.8,4.3,0.8,8.7,0,13
				c-0.3,1.4-1.1,2.4-2.5,2.5c-4.3,0.4-8.6,0.4-13,0c-1.4-0.1-2.4-1.2-2.5-2.5c-0.5-4.3-0.6-8.7,0-13
				C243.5,58,244.5,57.1,245.9,56.9z"/>
			<path id="XMLID_395_" class="st13" d="M246,57c4.3-0.8,8.6-0.8,12.8,0c1.4,0.2,2.2,1.1,2.5,2.5c0.8,4.3,0.8,8.6,0,12.8
				c-0.3,1.4-1.1,2.4-2.5,2.5c-4.2,0.4-8.5,0.4-12.8,0c-1.4-0.1-2.3-1.1-2.5-2.5c-0.5-4.3-0.6-8.6,0-12.8
				C243.7,58.1,244.6,57.2,246,57z"/>
			<path id="XMLID_394_" class="st14" d="M246.1,57.1c4.3-0.8,8.5-0.8,12.6,0c1.3,0.2,2.2,1.1,2.5,2.5c0.8,4.2,0.8,8.4,0,12.6
				c-0.3,1.3-1.1,2.3-2.5,2.5c-4.2,0.4-8.4,0.4-12.6,0c-1.4-0.1-2.3-1.1-2.5-2.5c-0.5-4.2-0.6-8.4,0-12.6
				C243.8,58.2,244.7,57.3,246.1,57.1z"/>
			<path id="XMLID_393_" class="st15" d="M246.2,57.2c4.2-0.7,8.4-0.8,12.5,0c1.3,0.2,2.2,1.1,2.4,2.4c0.8,4.2,0.8,8.3,0,12.5
				c-0.2,1.3-1.1,2.3-2.4,2.4c-4.1,0.4-8.3,0.4-12.5,0c-1.3-0.1-2.3-1.1-2.4-2.4c-0.5-4.2-0.6-8.3,0-12.5
				C243.9,58.3,244.8,57.5,246.2,57.2z"/>
			<path id="XMLID_392_" class="st16" d="M246.3,57.4c4.1-0.7,8.2-0.7,12.3,0c1.3,0.2,2.1,1.1,2.4,2.4c0.8,4.1,0.8,8.2,0,12.3
				c-0.2,1.3-1.1,2.3-2.4,2.4c-4,0.4-8.1,0.4-12.3,0c-1.3-0.1-2.2-1.1-2.4-2.4c-0.5-4.1-0.6-8.2,0-12.3
				C244,58.5,245,57.6,246.3,57.4z"/>
		</g>
		<path id="XMLID_390_" class="st17" d="M246.3,57.5c4.1-0.7,8.1-0.7,12.1,0c1.3,0.2,2.1,1.1,2.4,2.4c0.8,4,0.8,8.1,0,12.1
			c-0.2,1.3-1.1,2.2-2.4,2.4c-4,0.4-8,0.4-12.1,0c-1.3-0.1-2.2-1.1-2.4-2.4c-0.5-4-0.5-8.1,0-12.1C244.2,58.6,245.1,57.7,246.3,57.5
			z"/>
		<path id="XMLID_389_" class="st18" d="M245.3,56.1c4.8-0.8,9.5-0.9,14.1,0c1.5,0.3,2.5,1.3,2.8,2.8c0.4,2.1,0.6,4.3,0.7,6.4
			c-8.8-3.6-14.8,6-20.8,0c0-2.1,0.2-4.2,0.4-6.4C242.7,57.3,243.8,56.4,245.3,56.1z"/>
		<circle id="XMLID_388_" class="st4" cx="245.1" cy="58.6" r="1.9"/>
		<circle id="XMLID_387_" class="st4" cx="248" cy="56.9" r="0.9"/>
		<circle id="XMLID_386_" class="st4" cx="259.9" cy="74.2" r="1.1"/>
	</g>
	<g id="XMLID_337_" class="st1">
		<g id="XMLID_376_">
			<path id="XMLID_381_" class="st19" d="M254.7,71.3c0.7,0.3,1.3,0.4,1.3-0.8v-9.6c0-0.8-0.4-0.9-1-0.7l-4.8,3
				c-0.2,0.1-0.3,0.3-0.3,0.6v4.1c0,0.2,0.1,0.4,0.3,0.6L254.7,71.3L254.7,71.3z M256.3,63.8c0.8,0.3,1.4,1.1,1.4,2
				c0,0.9-0.6,1.7-1.4,2V63.8L256.3,63.8z M249,62.4h-1.8c-0.3,0-0.5,0.2-0.5,0.5v5.6c0,0.3,0.2,0.5,0.5,0.5h1.8
				c0.3,0,0.5-0.2,0.5-0.5v-5.6C249.5,62.6,249.3,62.4,249,62.4z"/>
			<path id="XMLID_377_" class="st4" d="M254.7,71.3c0.7,0.3,1.3,0.4,1.3-0.8v-9.6c0-0.8-0.4-0.9-1-0.7l-4.8,3
				c-0.2,0.1-0.3,0.3-0.3,0.6v4.1c0,0.2,0.1,0.4,0.3,0.6L254.7,71.3L254.7,71.3z M256.3,63.8c0.8,0.3,1.4,1.1,1.4,2
				c0,0.9-0.6,1.7-1.4,2V63.8L256.3,63.8z M249,62.4h-1.8c-0.3,0-0.5,0.2-0.5,0.5v5.6c0,0.3,0.2,0.5,0.5,0.5h1.8
				c0.3,0,0.5-0.2,0.5-0.5v-5.6C249.5,62.6,249.3,62.4,249,62.4z"/>
		</g>
		<path id="XMLID_368_" class="st20" d="M254.7,71.3c0.7,0.3,1.3,0.4,1.3-0.8v-9.6c0-0.1,0-0.2,0-0.3c0,0.1,0,0.2,0,0.3v8.4
			c0,1.2-0.6,1.1-1.3,0.8l-4.5-2.8c-0.2-0.1-0.3-0.3-0.3-0.5v1.2c0,0.2,0.1,0.4,0.3,0.6L254.7,71.3L254.7,71.3z M255.9,60.4
			C255.9,60.4,255.9,60.3,255.9,60.4C255.9,60.3,255.9,60.4,255.9,60.4L255.9,60.4z M255.8,60.3C255.8,60.2,255.8,60.2,255.8,60.3
			C255.8,60.2,255.8,60.2,255.8,60.3L255.8,60.3z M257.6,65.2c0.1,0.2,0.1,0.4,0.1,0.6c0,0.9-0.6,1.7-1.4,2v-1.2
			C256.9,66.3,257.4,65.8,257.6,65.2L257.6,65.2z M247,62.4C246.9,62.4,246.9,62.4,247,62.4C246.9,62.4,246.9,62.4,247,62.4
			L247,62.4z M246.8,62.5C246.8,62.5,246.8,62.5,246.8,62.5C246.8,62.5,246.8,62.5,246.8,62.5L246.8,62.5z M246.6,67.4v1.2
			c0,0.3,0.2,0.5,0.5,0.5h1.8c0.3,0,0.5-0.2,0.5-0.5v-1.2c0,0.3-0.2,0.5-0.5,0.5h-1.8C246.8,67.9,246.6,67.7,246.6,67.4z"/>
	</g>
</g>
<g id="XMLID_180_">
	<path id="XMLID_202_" class="st2" d="M234.3,247.1c4.8-0.9,38.7-0.9,43.5,0c1.5,0.3,2.5,1.3,2.8,2.8c0.9,4.8,0.9,9.6,0,14.4
		c-0.3,1.5-1.3,2.7-2.8,2.8c-4.7,0.4-38.6,0.4-43.5,0c-1.5-0.1-2.6-1.3-2.8-2.8c-0.5-4.8-0.6-9.6,0-14.4
		C231.7,248.4,232.8,247.4,234.3,247.1z"/>
	<path id="XMLID_201_" class="st3" d="M233.9,246c4.8-0.9,38.7-0.9,43.5,0c1.5,0.3,2.5,1.3,2.8,2.8c0.9,4.8,0.9,9.6,0,14.4
		c-0.3,1.5-1.3,2.7-2.8,2.8c-4.7,0.4-38.6,0.4-43.5,0c-1.5-0.1-2.6-1.3-2.8-2.8c-0.5-4.8-0.6-9.6,0-14.4
		C231.3,247.3,232.3,246.3,233.9,246z"/>
	<path id="XMLID_200_" class="st4" d="M233.9,245.5c4.8-0.9,38.7-0.9,43.5,0c1.5,0.3,2.5,1.3,2.8,2.8c0.9,4.8,0.9,9.6,0,14.4
		c-0.3,1.5-1.3,2.7-2.8,2.8c-4.7,0.4-38.6,0.4-43.5,0c-1.5-0.1-2.6-1.3-2.8-2.8c-0.5-4.8-0.6-9.6,0-14.4
		C231.3,246.8,232.3,245.8,233.9,245.5z"/>
	<path id="XMLID_199_" class="st3" d="M234.9,246.9c4.3-0.8,37.7-0.8,42,0c1.4,0.3,2.3,1.2,2.5,2.5c0.8,4.3,0.8,8.6,0,12.9
		c-0.3,1.4-1.1,2.4-2.5,2.5c-4.2,0.4-37.6,0.4-42,0c-1.4-0.1-2.4-1.1-2.5-2.5c-0.5-4.3-0.6-8.6,0-12.9
		C232.6,248.1,233.6,247.2,234.9,246.9z"/>
	<path id="XMLID_198_" class="st5" d="M234.6,246.5c4.3-0.8,37.7-0.8,42,0c1.4,0.2,2.2,1.2,2.5,2.5c0.8,4.3,0.8,8.6,0,12.9
		c-0.3,1.4-1.1,2.4-2.5,2.5c-4.2,0.4-37.6,0.4-42,0c-1.4-0.1-2.4-1.1-2.5-2.5c-0.5-4.3-0.6-8.6,0-12.9
		C232.3,247.7,233.2,246.8,234.6,246.5z"/>
	<path id="XMLID_197_" class="st6" d="M234.6,245.7c4.3-0.8,37.7-0.8,42,0c1.4,0.2,2.2,1.2,2.5,2.5c0.8,4.3,0.8,8.6,0,12.9
		c-0.3,1.4-1.1,2.4-2.5,2.5c-4.2,0.4-37.6,0.4-42,0c-1.4-0.1-2.4-1.1-2.5-2.5c-0.5-4.3-0.6-8.6,0-12.9
		C232.3,246.8,233.2,245.9,234.6,245.7z"/>
	<g id="XMLID_186_">
		<path id="XMLID_196_" class="st7" d="M234.7,245.8c4.3-0.8,37.6-0.8,41.8,0c1.3,0.2,2.2,1.1,2.5,2.5c0.8,4.2,0.8,8.5,0,12.7
			c-0.3,1.3-1.1,2.4-2.5,2.5c-4.2,0.4-37.5,0.4-41.8,0c-1.4-0.1-2.3-1.1-2.5-2.5c-0.5-4.2-0.6-8.5,0-12.7
			C232.4,246.9,233.4,246,234.7,245.8z"/>
		<path id="XMLID_195_" class="st8" d="M234.8,245.9c4.2-0.8,37.5-0.8,41.6,0c1.3,0.2,2.2,1.1,2.4,2.4c0.8,4.2,0.8,8.4,0,12.5
			c-0.3,1.3-1.1,2.3-2.4,2.4c-4.1,0.4-37.4,0.4-41.6,0c-1.3-0.1-2.3-1.1-2.4-2.4c-0.5-4.2-0.6-8.4,0-12.5
			C232.5,247,233.5,246.1,234.8,245.9z"/>
		<path id="XMLID_194_" class="st9" d="M234.9,246c4.2-0.7,37.4-0.7,41.5,0c1.3,0.2,2.2,1.1,2.4,2.4c0.8,4.1,0.8,8.3,0,12.4
			c-0.2,1.3-1.1,2.3-2.4,2.4c-4.1,0.4-37.3,0.4-41.5,0c-1.3-0.1-2.3-1.1-2.4-2.4c-0.5-4.1-0.6-8.3,0-12.4
			C232.6,247.1,233.6,246.2,234.9,246z"/>
		<path id="XMLID_193_" class="st10" d="M235,246.1c4.1-0.7,37.3-0.7,41.3,0c1.3,0.2,2.1,1.1,2.4,2.4c0.8,4.1,0.8,8.1,0,12.2
			c-0.2,1.3-1.1,2.3-2.4,2.4c-4,0.4-37.2,0.4-41.3,0c-1.3-0.1-2.2-1.1-2.4-2.4c-0.5-4.1-0.6-8.1,0-12.2
			C232.8,247.2,233.7,246.4,235,246.1z"/>
		<path id="XMLID_192_" class="st11" d="M235,246.2c4.1-0.7,37.2-0.7,41.1,0c1.3,0.2,2.1,1.1,2.3,2.3c0.8,4,0.8,8,0,12
			c-0.2,1.3-1.1,2.2-2.3,2.3c-4,0.4-37.1,0.4-41.1,0c-1.3-0.1-2.2-1.1-2.3-2.3c-0.5-4-0.5-8,0-12C232.9,247.3,233.8,246.5,235,246.2
			z"/>
		<path id="XMLID_191_" class="st12" d="M235.1,246.4c4-0.7,37.1-0.7,41,0c1.3,0.2,2.1,1.1,2.3,2.3c0.8,4,0.8,7.9,0,11.9
			c-0.2,1.2-1,2.2-2.3,2.3c-3.9,0.4-37,0.4-41,0c-1.3-0.1-2.2-1-2.3-2.3c-0.4-4-0.5-7.9,0-11.9C233,247.4,233.9,246.6,235.1,246.4z"
			/>
		<path id="XMLID_190_" class="st13" d="M235.2,246.5c3.9-0.7,36.9-0.7,40.8,0c1.2,0.2,2,1,2.3,2.3c0.8,3.9,0.7,7.8,0,11.7
			c-0.2,1.2-1,2.2-2.3,2.3c-3.9,0.4-36.9,0.3-40.8,0c-1.2-0.1-2.1-1-2.3-2.3c-0.4-3.9-0.5-7.8,0-11.7
			C233.1,247.5,234,246.7,235.2,246.5z"/>
		<path id="XMLID_189_" class="st14" d="M235.3,246.6c3.9-0.7,36.8-0.7,40.6,0c1.2,0.2,2,1,2.2,2.2c0.7,3.8,0.7,7.7,0,11.5
			c-0.2,1.2-1,2.1-2.2,2.2c-3.8,0.3-36.7,0.3-40.6,0c-1.2-0.1-2.1-1-2.2-2.2c-0.4-3.8-0.5-7.7,0-11.5
			C233.2,247.6,234.1,246.8,235.3,246.6z"/>
		<path id="XMLID_188_" class="st15" d="M235.4,246.7c3.8-0.7,36.7-0.7,40.5,0c1.2,0.2,2,1,2.2,2.2c0.7,3.8,0.7,7.6,0,11.4
			c-0.2,1.2-1,2.1-2.2,2.2c-3.7,0.3-36.6,0.3-40.5,0c-1.2-0.1-2.1-1-2.2-2.2c-0.4-3.8-0.5-7.6,0-11.4
			C233.3,247.7,234.2,246.9,235.4,246.7z"/>
		<path id="XMLID_187_" class="st16" d="M235.5,246.8c3.8-0.7,36.6-0.7,40.3,0c1.2,0.2,2,1,2.2,2.2c0.7,3.7,0.7,7.5,0,11.2
			c-0.2,1.2-1,2.1-2.2,2.2c-3.7,0.3-36.5,0.3-40.3,0c-1.2-0.1-2-1-2.2-2.2c-0.4-3.7-0.5-7.5,0-11.2
			C233.5,247.8,234.3,247,235.5,246.8z"/>
	</g>
	<path id="XMLID_185_" class="st17" d="M235.6,246.9c3.7-0.7,36.5-0.7,40.1,0c1.2,0.2,1.9,1,2.1,2.1c0.7,3.7,0.7,7.3,0,11
		c-0.2,1.2-1,2-2.1,2.1c-3.6,0.3-36.4,0.3-40.1,0c-1.2-0.1-2-1-2.1-2.1c-0.4-3.7-0.5-7.3,0-11C233.6,247.9,234.4,247.2,235.6,246.9z
		"/>
	<path id="XMLID_184_" class="st18" d="M234.6,245.7c4.3-0.8,37.7-0.8,42,0c1.4,0.2,2.2,1.2,2.5,2.5c0.4,1.9,0.6,3.9,0.6,5.8
		c-8.1-3.3-42.6,5.5-48,0c0-1.9,0.1-3.9,0.4-5.8C232.3,246.8,233.2,245.9,234.6,245.7z"/>
	<circle id="XMLID_183_" class="st4" cx="234.8" cy="248.8" r="2.3"/>
	<circle id="XMLID_182_" class="st4" cx="238.4" cy="247.1" r="1.1"/>
	<circle id="XMLID_181_" class="st4" cx="277" cy="261.6" r="1.4"/>
</g>
</svg>
