<?xml version="1.0" encoding="utf-8"?>
<!-- Generator: Adobe Illustrator 16.0.0, SVG Export Plug-In . SVG Version: 6.00 Build 0)  -->
<!DOCTYPE svg PUBLIC "-//W3C//DTD SVG 1.1//EN" "http://www.w3.org/Graphics/SVG/1.1/DTD/svg11.dtd">
<svg version="1.1" id="Layer_1" xmlns="http://www.w3.org/2000/svg" xmlns:xlink="http://www.w3.org/1999/xlink" x="0px" y="0px"
	 width="512px" height="512px" viewBox="0 0 512 512" enable-background="new 0 0 512 512" xml:space="preserve">
<g display="none">
	<defs>
		<rect id="SVGID_1_" width="512" height="512"/>
	</defs>
	<clipPath id="SVGID_2_" display="inline">
		<use xlink:href="#SVGID_1_"  display="none" overflow="visible"/>
	</clipPath>
	<g clip-path="url(#SVGID_2_)">
		<defs>
			<rect id="SVGID_3_" width="512" height="512"/>
		</defs>
		<clipPath id="SVGID_4_" display="inline">
			<use xlink:href="#SVGID_3_"  overflow="visible"/>
		</clipPath>
		<g display="inline" opacity="0.1" clip-path="url(#SVGID_4_)">
			<g>
				<defs>
					<rect id="SVGID_5_" x="202.059" y="258.721" width="107.882" height="15.003"/>
				</defs>
				<clipPath id="SVGID_6_">
					<use xlink:href="#SVGID_5_"  overflow="visible"/>
				</clipPath>
				<path clip-path="url(#SVGID_6_)" fill-rule="evenodd" clip-rule="evenodd" d="M226.82,270.54c0,0.093-0.004,0.182-0.012,0.266
					c-0.002,0.019-0.005,0.032-0.007,0.049c-0.007,0.065-0.016,0.128-0.028,0.188c-0.007,0.031-0.016,0.058-0.024,0.086
					c-0.011,0.042-0.021,0.085-0.034,0.124c-0.011,0.03-0.025,0.056-0.037,0.084c-0.014,0.034-0.027,0.069-0.044,0.099
					c-0.013,0.026-0.03,0.05-0.046,0.073c-0.019,0.03-0.036,0.062-0.057,0.088c-0.016,0.021-0.034,0.038-0.052,0.058
					c-0.023,0.025-0.046,0.053-0.072,0.076c-0.019,0.019-0.042,0.034-0.063,0.052c-0.026,0.021-0.052,0.043-0.08,0.061
					c-0.025,0.016-0.051,0.029-0.077,0.043c-0.028,0.017-0.056,0.033-0.087,0.047c-0.027,0.014-0.056,0.022-0.084,0.033
					c-0.033,0.012-0.066,0.026-0.101,0.037c-0.028,0.008-0.057,0.015-0.086,0.021c-0.039,0.011-0.077,0.02-0.118,0.027
					c-0.029,0.006-0.059,0.009-0.088,0.013c-0.044,0.008-0.088,0.014-0.135,0.018c-0.03,0.003-0.063,0.004-0.094,0.006
					c-0.047,0.003-0.095,0.006-0.144,0.007c-0.034,0-0.069-0.001-0.104-0.002c-0.051,0-0.102-0.001-0.156-0.003l-0.097-0.007
					c-0.058-0.004-0.118-0.008-0.178-0.014l-0.104-0.013c-0.06-0.007-0.12-0.015-0.182-0.022l-0.114-0.019
					c-0.065-0.01-0.131-0.021-0.199-0.033l-0.103-0.02c-0.071-0.013-0.142-0.027-0.214-0.042l-0.115-0.024
					c-0.073-0.016-0.146-0.031-0.221-0.05l-0.116-0.026c-0.082-0.021-0.164-0.04-0.248-0.062l-0.077-0.02l-0.289-0.075l-0.071-0.021
					c-2.269-0.615-5.244-1.703-8.345-2.209l-0.014-0.002c-0.498-0.081-0.999-0.146-1.502-0.192l-0.015-0.002
					c-0.164-0.016-0.329-0.028-0.494-0.039h-0.007c-0.165-0.012-0.331-0.021-0.496-0.026h-0.021
					c-3.372-0.121-6.708,0.767-9.28,3.985l-0.007,0.008l-0.071,0.09l-0.004,0.005l-0.006,0.009c-0.116,0.147-0.23,0.299-0.342,0.455
					c1.722-9.014,4.965-11.727,9.059-14.311l-0.15-0.16l-0.503-0.532h91.071l-0.503,0.532l-0.15,0.16
					c4.096,2.584,7.338,5.297,9.06,14.311c-0.112-0.156-0.226-0.308-0.341-0.455l-0.007-0.009l-0.004-0.005l-0.071-0.09
					l-0.007-0.008c-2.572-3.219-5.907-4.106-9.28-3.985h-0.021c-0.166,0.006-0.332,0.015-0.496,0.026h-0.008
					c-0.165,0.011-0.33,0.023-0.494,0.039l-0.016,0.002c-0.501,0.046-1.003,0.111-1.501,0.192l-0.014,0.002
					c-3.102,0.506-6.075,1.594-8.345,2.209l-0.071,0.021l-0.288,0.075l-0.078,0.02c-0.084,0.021-0.166,0.041-0.247,0.062
					l-0.116,0.026c-0.074,0.019-0.148,0.034-0.222,0.05l-0.114,0.024c-0.073,0.015-0.144,0.029-0.215,0.042l-0.103,0.02
					c-0.067,0.013-0.134,0.023-0.199,0.033l-0.114,0.019c-0.062,0.008-0.122,0.016-0.182,0.022l-0.104,0.013
					c-0.061,0.006-0.119,0.01-0.177,0.014l-0.099,0.007c-0.054,0.002-0.104,0.003-0.155,0.003c-0.035,0.001-0.07,0.002-0.104,0.002
					c-0.049-0.001-0.096-0.004-0.144-0.007c-0.031-0.002-0.063-0.003-0.094-0.006c-0.047-0.004-0.092-0.01-0.136-0.018
					c-0.028-0.004-0.059-0.007-0.087-0.013c-0.041-0.008-0.08-0.017-0.117-0.027c-0.029-0.007-0.06-0.014-0.088-0.021
					c-0.034-0.011-0.066-0.025-0.101-0.037c-0.028-0.011-0.057-0.02-0.083-0.033c-0.032-0.014-0.06-0.03-0.088-0.047
					c-0.026-0.014-0.052-0.027-0.077-0.043c-0.028-0.018-0.054-0.04-0.08-0.061c-0.021-0.018-0.044-0.033-0.063-0.052
					c-0.025-0.023-0.049-0.051-0.071-0.076c-0.018-0.02-0.036-0.036-0.052-0.058c-0.021-0.026-0.039-0.058-0.058-0.088
					c-0.015-0.023-0.032-0.047-0.046-0.073c-0.017-0.029-0.03-0.064-0.044-0.099c-0.012-0.028-0.024-0.054-0.036-0.084
					c-0.014-0.039-0.023-0.082-0.035-0.124c-0.008-0.028-0.017-0.055-0.022-0.086c-0.013-0.06-0.021-0.122-0.029-0.188
					c-0.002-0.017-0.005-0.03-0.007-0.049c-0.008-0.084-0.012-0.173-0.012-0.266v-2.103v-4.308l-0.004-0.001l-0.006-0.001
					l-0.006-0.001l-0.005-0.001l-0.188-0.035l-0.005-0.001l-0.016-0.003l-0.006-0.001l-0.015-0.003l-0.005-0.001l-0.006-0.001
					l-0.005-0.001l-0.005-0.001l-0.006-0.001h-0.005l-0.005-0.002h-0.005l-0.005-0.001l-0.006-0.002l-0.005-0.001h-0.005
					l-0.006-0.001l-0.005-0.001l-0.005-0.001l-0.005-0.001l-0.01-0.003l-0.007-0.001l-0.017-0.004l-0.008-0.001l-0.454-0.083
					l-0.008-0.001l-0.009-0.002l-0.009-0.001l-0.008-0.002l-0.005-0.001l-0.383-0.067l-0.007-0.001l-0.013-0.003
					c-0.244-0.042-0.492-0.083-0.745-0.122l-0.013-0.003l-0.012-0.002l-0.014-0.002l-0.365-0.057l-0.021-0.003l-0.009-0.001
					l-0.009-0.002l-0.009-0.001l-0.009-0.001l-0.009-0.001l-0.009-0.002l-0.384-0.058l-0.009-0.001l-0.019-0.003l-0.009-0.001
					l-0.009-0.002l-0.01-0.001l-0.009-0.002l-0.009-0.001l-0.009-0.001l-0.009-0.002l-0.01-0.001l-0.009-0.001l-0.009-0.002
					l-0.009-0.001l-0.01-0.002l-0.434-0.063l-0.013-0.002l-0.014-0.001l-0.014-0.002l-0.013-0.002l-0.014-0.002
					c-0.247-0.034-0.497-0.067-0.753-0.102l-0.014-0.002l-0.013-0.001l-0.015-0.002l-0.003-0.001l-0.436-0.056l-0.622-0.076
					l-0.437-0.052l-0.015-0.002l-0.014-0.001l-0.016-0.002l-0.014-0.002c-0.277-0.031-0.558-0.063-0.841-0.093l-0.016-0.002
					l-0.029-0.003l-0.016-0.002l-0.011-0.001l-0.446-0.047l-0.012-0.002l-0.01-0.001l-0.011-0.001l-0.011-0.001h-0.011l-0.01-0.002
					l-0.01-0.001l-0.012-0.001l-0.01-0.001l-0.021-0.002l-0.01-0.001l-0.012-0.001l-0.439-0.044l-0.011-0.002l-0.011-0.001
					l-0.01-0.001l-0.011-0.001l-0.011-0.001l-0.011-0.001l-0.01-0.001l-0.011-0.001l-0.011-0.001l-0.479-0.046l-0.008-0.001
					l-0.016-0.002l-0.015-0.001l-0.016-0.002c-0.288-0.027-0.58-0.054-0.874-0.079l-0.016-0.002l-0.015-0.001l-0.017-0.002
					l-0.015-0.001l-0.513-0.044l-0.009-0.002l-0.688-0.056l-0.01-0.001l-0.501-0.039l-0.017-0.002l-0.017-0.001l-0.016-0.001
					l-0.017-0.002c-0.296-0.021-0.594-0.044-0.894-0.066l-0.018-0.001l-0.016-0.001l-0.017-0.001l-0.017-0.002h-0.016l-0.572-0.04
					l-0.633-0.042l-0.021-0.001l-0.628-0.04h-0.009l-0.015-0.001l-0.016-0.001l-0.015-0.001l-0.893-0.052l-0.016-0.001l-0.016-0.001
					l-0.015-0.001l-0.01-0.001l-0.592-0.032l-0.034-0.002l-0.649-0.033l-0.807-0.039l-0.015-0.001l-0.014-0.001h-0.015l-0.015-0.001
					h-0.014l-0.015-0.001l-0.014-0.001h-0.015l-0.015-0.001l-0.015-0.001l-0.705-0.03l-0.015-0.002h-0.015l-0.014-0.001
					l-0.015-0.001h-0.015h-0.001l-0.592-0.024l-0.719-0.027l-0.785-0.027l-0.975-0.031l-0.021-0.001l-0.574-0.017l-0.783-0.021
					l-0.645-0.015c-0.309-0.008-0.618-0.014-0.928-0.02h-0.017l-0.016-0.001h-0.016h-0.018l-0.016-0.001h-0.018h-0.016l-0.016-0.001
					h-0.018l-0.628-0.01H260.4l-0.695-0.01l-0.016-0.002h-0.015h-0.018h-0.015l-0.017-0.001h-0.016l-0.767-0.008l-0.016-0.001
					h-0.016h-0.016h-0.016h-0.016h-0.016l-0.016-0.001h-0.016h-0.016l-0.818-0.007l-0.585-0.003h-0.012l-0.857-0.003h-0.024h-0.872
					l-0.777,0.003l-0.651,0.003h-0.005l-0.801,0.007h-0.027l-0.979,0.013l-0.667,0.009l-0.026,0.001l-0.605,0.01h-0.023l-0.91,0.019
					h-0.005l-0.843,0.02l-0.727,0.019l-0.65,0.02l-0.802,0.025h-0.014l-0.015,0.001h-0.014l-0.672,0.023l-0.015,0.001h-0.014
					l-0.015,0.001l-0.014,0.001h-0.014l-0.014,0.001h-0.015l-0.013,0.001h-0.015l-0.014,0.001h-0.014l-0.015,0.001l-0.014,0.001
					h-0.014l-0.727,0.028l-0.611,0.024l-0.825,0.037l-0.019,0.001l-0.903,0.044l-0.573,0.029l-0.665,0.036l-0.017,0.001
					l-0.633,0.037l-0.017,0.001l-0.016,0.001l-0.017,0.001l-0.016,0.001l-0.016,0.001l-0.017,0.001l-0.016,0.001l-0.032,0.002
					l-0.017,0.001l-0.715,0.044l-0.016,0.001l-0.017,0.001l-0.016,0.002l-0.016,0.001h-0.016l-0.016,0.002l-0.017,0.001
					l-0.016,0.001l-0.016,0.001l-0.016,0.001l-0.555,0.037l-0.646,0.044l-0.016,0.001l-0.015,0.001l-0.016,0.003l-0.015,0.001
					l-0.016,0.001l-0.015,0.001l-0.016,0.001l-0.015,0.001l-0.738,0.054l-0.016,0.002l-0.015,0.001l-0.015,0.001l-0.016,0.001
					l-0.015,0.001l-0.015,0.001l-0.015,0.002l-0.015,0.001h-0.001l-0.541,0.043l-0.683,0.057l-0.018,0.002l-0.47,0.04h-0.012
					l-0.015,0.002l-0.015,0.001c-0.298,0.026-0.591,0.053-0.883,0.081l-0.015,0.001l-0.015,0.002l-0.016,0.001l-0.015,0.002
					l-0.015,0.001l-0.509,0.049l-0.019,0.002l-0.569,0.057l-0.027,0.003l-0.526,0.056l-0.016,0.002l-0.016,0.002l-0.013,0.001
					l-0.013,0.001l-0.013,0.002c-0.266,0.029-0.529,0.058-0.789,0.088l-0.027,0.003l-0.012,0.001l-0.5,0.061l-0.567,0.068
					l-0.002,0.001l-0.463,0.059l-0.013,0.002l-0.013,0.002h-0.001c-0.258,0.034-0.512,0.067-0.762,0.103l-0.014,0.002l-0.012,0.002
					l-0.013,0.002l-0.014,0.001l-0.008,0.001l-0.433,0.063l-0.018,0.003l-0.532,0.08l-0.007,0.001l-0.007,0.001l-0.006,0.001
					l-0.008,0.001l-0.006,0.001l-0.007,0.001l-0.007,0.001l-0.007,0.001l-0.006,0.002h-0.007l-0.007,0.002l-0.325,0.05h-0.007
					l-0.006,0.002l-0.007,0.001l-0.007,0.001l-0.007,0.001l-0.012,0.003c-0.248,0.038-0.492,0.079-0.732,0.12l-0.012,0.002
					l-0.012,0.003l-0.006,0.001l-0.006,0.001l-0.007,0.002l-0.007,0.001l-0.005,0.001l-0.007,0.001l-0.007,0.001l-0.308,0.054
					l-0.006,0.001l-0.007,0.001l-0.006,0.002l-0.007,0.001l-0.006,0.001l-0.006,0.001l-0.006,0.001l-0.006,0.001l-0.009,0.002
					l-0.008,0.001l-0.008,0.001l-0.008,0.002l-0.448,0.082l-0.008,0.001l-0.009,0.002l-0.007,0.002l-0.008,0.001l-0.017,0.004
					l-0.334,0.063l-0.005,0.001v4.305V270.54z"/>
			</g>
		</g>
		<path display="inline" clip-path="url(#SVGID_4_)" fill-rule="evenodd" clip-rule="evenodd" fill="#E44149" d="M226.821,268.479
			c0,6.018-16.665-8.183-24.762,3.184c1.977-9.348,4.653-11.273,9.059-14.312l-6.715-7.105c6.769-3.616,18.814,4.994,22.418-3.237
			V268.479z"/>
	</g>
	<g clip-path="url(#SVGID_2_)">
		<defs>
			<path id="SVGID_7_" d="M210.967,257.193l0.15,0.158c-4.406,3.037-7.081,4.965-9.058,14.312
				c4.521-6.346,11.713-4.721,17.185-3.096c4.326,1.284,7.577,2.569,7.577-0.089v-13.718
				C224.217,260.707,217.209,257.866,210.967,257.193"/>
		</defs>
		<clipPath id="SVGID_8_" display="inline">
			<use xlink:href="#SVGID_7_"  overflow="visible"/>
		</clipPath>
		
			<linearGradient id="SVGID_9_" gradientUnits="userSpaceOnUse" x1="0" y1="512" x2="1" y2="512" gradientTransform="matrix(-29.2792 -1.0225 -1.0225 29.2792 744.558 -14727.5146)">
			<stop  offset="0" style="stop-color:#B61D1C"/>
			<stop  offset="1" style="stop-color:#EF464C"/>
		</linearGradient>
		<polygon display="inline" clip-path="url(#SVGID_8_)" fill="url(#SVGID_9_)" points="226.791,272.526 201.47,271.643 
			202.089,253.897 227.411,254.782 		"/>
	</g>
	<g clip-path="url(#SVGID_2_)">
		<defs>
			<rect id="SVGID_10_" width="512" height="512"/>
		</defs>
		<clipPath id="SVGID_11_" display="inline">
			<use xlink:href="#SVGID_10_"  overflow="visible"/>
		</clipPath>
		<path display="inline" clip-path="url(#SVGID_11_)" fill-rule="evenodd" clip-rule="evenodd" fill="#FF6594" d="M202.488,271.096
			c-0.145,0.183-0.289,0.37-0.43,0.568c1.723-9.015,4.965-11.729,9.06-14.313C208.449,261.665,204.414,263.38,202.488,271.096
			 M205.27,251.164l-0.868-0.917c6.77-3.617,18.814,4.993,22.419-3.238v1.305C223.365,256.204,212.155,248.62,205.27,251.164"/>
		<path display="inline" clip-path="url(#SVGID_11_)" fill-rule="evenodd" clip-rule="evenodd" fill="#CE1922" d="M226.821,268.479
			c0,6.018-16.665-8.183-24.762,3.184c5.744-14.654,24.762,0.689,24.762-5.285V268.479z"/>
		<path display="inline" clip-path="url(#SVGID_11_)" fill-rule="evenodd" clip-rule="evenodd" fill="#E44149" d="M220.254,244.397
			l6.566,0.75v23.333c-1.442-6.822-6.566-0.315-6.566-3.648V244.397z"/>
		<path display="inline" clip-path="url(#SVGID_11_)" fill-rule="evenodd" clip-rule="evenodd" fill="#AA0009" d="M220.254,244.397
			l6.566,0.718v23.364c-0.922-7.416-6.306-0.753-6.166-4.782L220.254,244.397z"/>
		<path display="inline" clip-path="url(#SVGID_11_)" fill-rule="evenodd" clip-rule="evenodd" fill="#E44149" d="M285.18,268.479
			c0,6.018,16.664-8.183,24.762,3.184c-1.978-9.348-4.653-11.273-9.06-14.312l6.716-7.105c-6.771-3.616-18.814,4.994-22.418-3.237
			V268.479z"/>
	</g>
	<g clip-path="url(#SVGID_2_)">
		<defs>
			<path id="SVGID_12_" d="M285.179,268.479c0,2.658,3.25,1.373,7.577,0.089c5.471-1.625,12.663-3.25,17.186,3.096
				c-1.978-9.347-4.653-11.274-9.06-14.312l0.151-0.158c-6.243,0.673-13.25,3.514-15.854-2.433V268.479z"/>
		</defs>
		<clipPath id="SVGID_13_" display="inline">
			<use xlink:href="#SVGID_12_"  overflow="visible"/>
		</clipPath>
		
			<linearGradient id="SVGID_14_" gradientUnits="userSpaceOnUse" x1="0" y1="511.999" x2="1" y2="511.999" gradientTransform="matrix(29.3703 -0.5127 -0.5127 -29.3703 536.9507 15301.1904)">
			<stop  offset="0" style="stop-color:#B61D1C"/>
			<stop  offset="1" style="stop-color:#EF464C"/>
		</linearGradient>
		<polygon display="inline" clip-path="url(#SVGID_13_)" fill="url(#SVGID_14_)" points="284.884,254.766 309.934,254.329 
			310.236,271.658 285.187,272.095 		"/>
	</g>
	<g clip-path="url(#SVGID_2_)">
		<defs>
			<rect id="SVGID_15_" width="512" height="512"/>
		</defs>
		<clipPath id="SVGID_16_" display="inline">
			<use xlink:href="#SVGID_15_"  overflow="visible"/>
		</clipPath>
		<path display="inline" clip-path="url(#SVGID_16_)" fill-rule="evenodd" clip-rule="evenodd" fill="#FF6594" d="M309.512,271.096
			c0.146,0.183,0.289,0.37,0.429,0.568c-1.722-9.015-4.964-11.729-9.059-14.313C303.551,261.665,307.587,263.38,309.512,271.096
			 M306.729,251.164l0.867-0.917c-6.769-3.617-18.813,4.993-22.418-3.238v1.305C288.635,256.204,299.845,248.62,306.729,251.164"/>
		<path display="inline" clip-path="url(#SVGID_16_)" fill-rule="evenodd" clip-rule="evenodd" fill="#CE1922" d="M285.18,268.479
			c0,6.018,16.664-8.183,24.762,3.184c-5.745-14.654-24.762,0.689-24.762-5.285V268.479z"/>
		<path display="inline" clip-path="url(#SVGID_16_)" fill-rule="evenodd" clip-rule="evenodd" fill="#E44149" d="M291.745,244.397
			l-6.566,0.75v23.333c1.443-6.822,6.566-0.315,6.566-3.648V244.397z"/>
		<path display="inline" clip-path="url(#SVGID_16_)" fill-rule="evenodd" clip-rule="evenodd" fill="#AA0009" d="M291.745,244.397
			l-6.565,0.718v23.364c0.923-7.416,6.306-0.753,6.165-4.782L291.745,244.397z"/>
		<path display="inline" clip-path="url(#SVGID_16_)" fill-rule="evenodd" clip-rule="evenodd" fill="#E44149" d="M220.254,244.397
			c1.096-7.994,70.411-7.994,71.506,0v20.288c-3.751-6.161-67.755-6.161-71.506,0V244.397z"/>
		<path display="inline" clip-path="url(#SVGID_16_)" fill-rule="evenodd" clip-rule="evenodd" fill="#DF1B25" d="M291.761,252.493
			v12.191c-3.751-6.16-67.755-6.16-71.506,0v-12.191C231.926,247.46,280.089,247.46,291.761,252.493"/>
		<path display="inline" clip-path="url(#SVGID_16_)" fill-rule="evenodd" clip-rule="evenodd" fill="#FF6594" d="M220.27,244.341
			c1.415-7.917,70.06-7.917,71.475,0C282.959,238.403,229.058,238.403,220.27,244.341"/>
		<path display="inline" clip-path="url(#SVGID_16_)" fill-rule="evenodd" clip-rule="evenodd" fill="#C10F18" d="M291.761,263.513
			v1.171c-3.751-6.16-67.755-6.16-71.506,0v-1.171C224.006,257.353,288.01,257.353,291.761,263.513"/>
		
			<path display="inline" clip-path="url(#SVGID_16_)" fill="none" stroke="#901315" stroke-width="1.826" stroke-linecap="round" stroke-linejoin="round" stroke-miterlimit="22.926" d="
			M237.889,244.382l0.132,9.68l2.175-0.132l-0.261-3.754c2.417-0.574,3.627-1.528,3.627-2.865c0-0.317-0.068-0.653-0.2-1.007
			c-0.532-1.424-1.716-2.135-3.551-2.135C239.234,244.169,238.593,244.238,237.889,244.382z M239.864,248.054l-0.129-1.91
			c1.055,0.253,1.593,0.537,1.615,0.855C241.373,247.32,240.878,247.671,239.864,248.054z M243.936,248.054l2.111,0.332
			c0.483-0.92,0.99-1.359,1.516-1.314c0.622,0.048,0.988,0.262,1.098,0.642c0.016,0.053,0.025,0.554,0.031,1.496
			c-0.549-0.211-1.086-0.315-1.616-0.315c-0.393,0-0.793,0.063-1.195,0.189c-0.802,0.253-1.202,0.878-1.202,1.877
			c0,0.081,0.009,0.211,0.025,0.385c0.115,1.225,1.514,1.883,4.196,1.976l0.017,0.386l2.132-0.133l0.068-2.828
			c0.029-1.193-0.084-2.248-0.338-3.165c-0.489-1.77-1.586-2.654-3.289-2.654c-0.352,0-0.712,0.042-1.081,0.124
			C245.332,245.294,244.507,246.295,243.936,248.054z M248.759,250.455l0.057,1.426c-1.34-0.276-1.99-0.633-1.945-1.072
			c0.028-0.301,0.329-0.453,0.906-0.453C248.047,250.356,248.374,250.39,248.759,250.455z M256.998,253.462l0.264-8.622h-1.921
			v5.325c-0.479,0.793-0.87,1.187-1.173,1.187c-0.535,0-0.803-1.37-0.803-4.117c0-0.751,0.023-1.623,0.071-2.611l-1.978,0.073
			c-0.045,4.196,0.186,6.886,0.692,8.071c0.253,0.593,0.661,0.889,1.23,0.889c0.576,0,1.311-0.302,2.209-0.904l0.089,0.811
			L256.998,253.462z M257.297,253.113l0.97-2.205c1.241,0.807,2.201,1.212,2.882,1.212c0.242,0,0.476-0.07,0.697-0.213
			c0.254-0.161,0.38-0.355,0.38-0.589c0-0.346-0.461-0.635-1.381-0.872c-1.334-0.343-2.231-1.044-2.692-2.105
			c-0.155-0.351-0.231-0.678-0.231-0.973c0-0.634,0.324-1.188,0.974-1.66c0.555-0.409,1.383-0.611,2.482-0.611
			c0.773,0,1.688,0.101,2.737,0.306l-0.703,2.117c-0.799-0.366-1.446-0.549-1.942-0.549c-0.241,0-0.472,0.053-0.686,0.157
			c-0.265,0.127-0.397,0.299-0.397,0.513c0,0.196,0.177,0.41,0.529,0.635c0.242,0.155,0.715,0.369,1.421,0.645
			c0.594,0.23,1.024,0.461,1.289,0.695c0.385,0.335,0.588,0.788,0.61,1.353c0.039,0.932-0.396,1.779-1.303,2.538
			c-0.383,0.324-0.948,0.487-1.688,0.487C260.248,253.994,258.934,253.702,257.297,253.113z M266.785,250.244
			c0.247,0.829,0.773,1.263,1.576,1.302c0.745,0.039,1.252-0.355,1.517-1.182l2.307-0.329c-0.588,2.415-1.756,3.622-3.504,3.622
			c-0.54,0-1.139-0.124-1.806-0.372c-1.23-0.703-1.846-2.057-1.846-4.057c0-0.172,0.006-0.36,0.017-0.569
			c0.121-2.316,1.247-3.661,3.379-4.035c2.023-0.045,3.188,1.365,3.495,4.224L266.785,250.244z M267.415,247.3
			c-0.304,0.36-0.47,0.796-0.498,1.308l3.093-0.883c-0.357-0.642-0.805-0.962-1.337-0.962
			C268.138,246.763,267.722,246.943,267.415,247.3z M272.376,253.657l-0.354-10.282c3.407,0.923,5.25,2.13,5.523,3.624
			c0.099,0.54,0.149,1.055,0.149,1.55c0,0.797-0.144,1.467-0.428,2.01C276.805,251.437,275.173,252.469,272.376,253.657z
			 M274.197,246.67l0.069,3.165c0.884-0.261,1.356-0.745,1.418-1.449C275.747,247.683,275.249,247.111,274.197,246.67z"/>
		<path display="inline" clip-path="url(#SVGID_16_)" fill-rule="evenodd" clip-rule="evenodd" fill="#FFFFFF" d="M274.943,252.434
			v-2.889c0.451-0.277,0.699-0.663,0.742-1.159c0.045-0.508-0.203-0.948-0.742-1.319v-2.657c1.553,0.738,2.422,1.6,2.602,2.589
			c0.099,0.54,0.149,1.055,0.149,1.55c0,0.797-0.144,1.467-0.427,2.01C276.971,251.121,276.196,251.746,274.943,252.434
			 M274.943,244.41v2.657c-0.206-0.142-0.455-0.275-0.746-0.397l0.07,3.166c0.262-0.078,0.486-0.175,0.676-0.291v2.889
			c-0.704,0.388-1.561,0.795-2.567,1.223l-0.272-7.915v-2.345C273.221,243.704,274.167,244.041,274.943,244.41 M272.104,250.349
			c0.027-0.102,0.056-0.207,0.082-0.314l-0.082,0.012V250.349z M272.104,243.397v2.345l-0.082-2.367L272.104,243.397z
			 M272.104,250.047v0.302c-0.611,2.205-1.752,3.308-3.422,3.308c-0.071,0-0.145-0.003-0.219-0.007v-2.101
			c0.69-0.001,1.162-0.396,1.414-1.185L272.104,250.047z M268.463,249.787v-1.62l1.547-0.442c-0.357-0.641-0.806-0.962-1.337-0.962
			c-0.071,0-0.142,0.003-0.21,0.01v-2.149c2-0.027,3.152,1.383,3.457,4.224L268.463,249.787z M268.463,244.624v2.149
			c-0.435,0.042-0.782,0.218-1.048,0.527c-0.304,0.36-0.47,0.796-0.498,1.309l1.546-0.442v1.62l-1.678,0.457
			c0.247,0.829,0.773,1.263,1.576,1.303c0.034,0.001,0.069,0.002,0.102,0.002v2.101c-0.481-0.028-1.01-0.15-1.589-0.365
			c-1.229-0.703-1.845-2.057-1.845-4.057c0-0.172,0.006-0.36,0.017-0.569c0.121-2.316,1.246-3.661,3.379-4.035H268.463z
			 M247.842,253.249v-1.622c0.269,0.091,0.593,0.176,0.973,0.254l-0.056-1.426c-0.355-0.06-0.66-0.093-0.917-0.098v-1.39
			c0.28,0.053,0.564,0.134,0.849,0.244c-0.005-0.943-0.014-1.444-0.031-1.497c-0.092-0.319-0.365-0.521-0.818-0.606v-2.166
			c1.503,0.116,2.482,0.995,2.937,2.64c0.254,0.917,0.366,1.972,0.338,3.165l-0.068,2.828l-2.133,0.133l-0.016-0.386
			C248.521,253.309,248.169,253.284,247.842,253.249 M256.998,253.463l0.264-8.623h-1.92v5.325c-0.479,0.793-0.87,1.187-1.174,1.187
			c-0.534,0-0.802-1.37-0.802-4.116c0-0.752,0.023-1.624,0.07-2.612l-1.978,0.073c-0.045,4.196,0.186,6.886,0.692,8.071
			c0.254,0.594,0.662,0.889,1.23,0.889c0.577,0,1.311-0.301,2.209-0.903l0.09,0.81L256.998,253.463z M257.296,253.113l0.972-2.205
			c1.24,0.807,2.2,1.212,2.881,1.212c0.242,0,0.476-0.07,0.697-0.213c0.254-0.161,0.381-0.355,0.381-0.588
			c0-0.347-0.462-0.636-1.382-0.873c-1.334-0.343-2.231-1.044-2.692-2.105c-0.155-0.351-0.231-0.678-0.231-0.973
			c0-0.633,0.323-1.188,0.974-1.66c0.555-0.409,1.382-0.611,2.481-0.611c0.774,0,1.689,0.101,2.738,0.307l-0.704,2.116
			c-0.798-0.366-1.445-0.549-1.941-0.549c-0.241,0-0.473,0.054-0.686,0.158c-0.265,0.126-0.397,0.298-0.397,0.512
			c0,0.197,0.178,0.41,0.529,0.636c0.242,0.154,0.715,0.368,1.421,0.644c0.595,0.231,1.024,0.462,1.289,0.695
			c0.385,0.335,0.588,0.788,0.61,1.353c0.04,0.932-0.397,1.779-1.303,2.539c-0.383,0.323-0.948,0.486-1.688,0.486
			C260.248,253.994,258.935,253.702,257.296,253.113 M240.543,250.016c2.012-0.584,3.019-1.485,3.019-2.705
			c0-0.317-0.068-0.653-0.2-1.007c-0.457-1.225-1.398-1.922-2.819-2.094v2.169c0.522,0.191,0.791,0.398,0.807,0.62
			c0.017,0.238-0.252,0.494-0.807,0.766V250.016z M247.842,244.942v2.166c-0.086-0.017-0.18-0.028-0.279-0.036
			c-0.526-0.044-1.033,0.394-1.517,1.314l-2.11-0.332c0.571-1.758,1.395-2.76,2.473-3.002c0.369-0.082,0.729-0.124,1.081-0.124
			C247.61,244.928,247.728,244.933,247.842,244.942 M247.842,248.967v1.39l-0.065-0.001c-0.577,0-0.878,0.152-0.906,0.453
			c-0.033,0.315,0.292,0.587,0.971,0.818v1.622c-1.993-0.217-3.039-0.851-3.138-1.903c-0.017-0.174-0.025-0.303-0.025-0.385
			c0-0.999,0.399-1.623,1.201-1.877c0.403-0.126,0.802-0.188,1.196-0.188C247.329,248.896,247.585,248.92,247.842,248.967
			 M237.889,244.382l0.132,9.68l2.175-0.132l-0.261-3.754c0.212-0.05,0.414-0.104,0.608-0.16v-2.251
			c-0.192,0.095-0.419,0.191-0.679,0.289l-0.129-1.91c0.316,0.075,0.585,0.154,0.808,0.235v-2.169
			c-0.231-0.028-0.475-0.041-0.732-0.041C239.234,244.169,238.593,244.238,237.889,244.382"/>
	</g>
</g>
<g display="none">
	<path display="inline" opacity="0.1" fill-rule="evenodd" clip-rule="evenodd" d="M153.219,180.541H359.34c3.851,0,7,3.149,7,7
		v139.375c0,3.851-3.149,7-7,7H153.219c-3.851,0-7.001-3.149-7.001-7V187.541C146.218,183.69,149.368,180.541,153.219,180.541z"/>
	<path display="inline" fill-rule="evenodd" clip-rule="evenodd" fill="#E5E5E5" d="M151.275,178.334h206.121c3.85,0,7,3.15,7,7.001
		v139.374c0,3.852-3.15,7.001-7,7.001H151.275c-3.851,0-7.001-3.149-7.001-7.001V185.335
		C144.274,181.484,147.425,178.334,151.275,178.334z"/>
	<path display="inline" fill-rule="evenodd" clip-rule="evenodd" fill="#FFFFFF" d="M151.275,176.876h206.121c3.85,0,7,3.15,7,7
		v139.375c0,3.851-3.15,7-7,7H151.275c-3.851,0-7.001-3.149-7.001-7V183.877C144.274,180.026,147.425,176.876,151.275,176.876z"/>
	<path display="inline" fill-rule="evenodd" clip-rule="evenodd" fill="#E5E5E5" d="M155.662,181.561h198.263
		c3.629,0,6.598,2.969,6.598,6.598v131.355c0,3.629-2.969,6.598-6.598,6.598H155.662c-3.629,0-6.598-2.969-6.598-6.598V188.159
		C149.064,184.53,152.033,181.561,155.662,181.561z"/>
	<path display="inline" fill-rule="evenodd" clip-rule="evenodd" fill="#F0C282" d="M154.146,180.701h198.487
		c3.604,0,6.553,2.949,6.553,6.553V317.72c0,3.604-2.948,6.554-6.553,6.554H154.146c-3.604,0-6.554-2.949-6.554-6.554V187.254
		C147.593,183.65,150.542,180.701,154.146,180.701z"/>
	<path display="inline" fill-rule="evenodd" clip-rule="evenodd" fill="#F9EDCB" d="M154.048,178.983h197.213
		c3.551,0,6.455,2.904,6.455,6.455v128.508c0,3.55-2.904,6.454-6.455,6.454H154.048c-3.551,0-6.455-2.904-6.455-6.454V185.438
		C147.593,181.888,150.497,178.983,154.048,178.983z"/>
	<g display="inline">
		<path fill-rule="evenodd" clip-rule="evenodd" fill="#F9ECC8" d="M155.09,179.842c65.043,0,130.086,0,195.129,0
			c3.507,0,6.376,2.869,6.376,6.376c0,42.315,0,84.631,0,126.946c0,3.507-2.869,6.376-6.376,6.376c-65.043,0-130.086,0-195.129,0
			c-3.507,0-6.376-2.869-6.376-6.376c0-42.315,0-84.631,0-126.946C148.714,182.711,151.583,179.842,155.09,179.842z"/>
		<path fill-rule="evenodd" clip-rule="evenodd" fill="#F8EBC5" d="M156.133,180.702c64.348,0,128.695,0,193.043,0
			c3.465,0,6.299,2.834,6.299,6.298c0,41.795,0,83.59,0,125.385c0,3.463-2.834,6.297-6.299,6.297c-64.348,0-128.695,0-193.043,0
			c-3.464,0-6.298-2.834-6.298-6.297c0-41.795,0-83.59,0-125.385C149.835,183.536,152.669,180.702,156.133,180.702z"/>
		<path fill-rule="evenodd" clip-rule="evenodd" fill="#F8EAC1" d="M157.175,181.561c63.653,0,127.306,0,190.959,0
			c3.421,0,6.22,2.798,6.22,6.219c0,41.274,0,82.549,0,123.823c0,3.421-2.799,6.219-6.22,6.219c-63.653,0-127.306,0-190.959,0
			c-3.421,0-6.219-2.798-6.219-6.219c0-41.274,0-82.549,0-123.823C150.956,184.359,153.754,181.561,157.175,181.561z"/>
		<path fill-rule="evenodd" clip-rule="evenodd" fill="#F7E9BE" d="M158.218,182.42c62.958,0,125.916,0,188.874,0
			c3.377,0,6.141,2.763,6.141,6.141c0,40.754,0,81.507,0,122.261c0,3.378-2.764,6.142-6.141,6.142c-62.958,0-125.916,0-188.874,0
			c-3.378,0-6.141-2.764-6.141-6.142c0-40.754,0-81.507,0-122.261C152.077,185.183,154.84,182.42,158.218,182.42z"/>
		<path fill-rule="evenodd" clip-rule="evenodd" fill="#F7E8BB" d="M159.26,183.279c62.264,0,124.526,0,186.789,0
			c3.335,0,6.063,2.728,6.063,6.063c0,40.233,0,80.467,0,120.7c0,3.334-2.728,6.063-6.063,6.063c-62.263,0-124.525,0-186.789,0
			c-3.334,0-6.063-2.729-6.063-6.063c0-40.233,0-80.467,0-120.7C153.197,186.007,155.926,183.279,159.26,183.279z"/>
		<path fill-rule="evenodd" clip-rule="evenodd" fill="#F6E7B8" d="M160.303,184.139c61.567,0,123.136,0,184.704,0
			c3.291,0,5.983,2.692,5.983,5.984c0,39.713,0,79.426,0,119.139c0,3.291-2.692,5.983-5.983,5.983c-61.568,0-123.137,0-184.704,0
			c-3.292,0-5.984-2.692-5.984-5.983c0-39.713,0-79.426,0-119.139C154.318,186.831,157.011,184.139,160.303,184.139z"/>
		<path fill-rule="evenodd" clip-rule="evenodd" fill="#F6E6B5" d="M161.345,184.998c60.873,0,121.746,0,182.619,0
			c3.249,0,5.906,2.657,5.906,5.906c0,39.192,0,78.384,0,117.577c0,3.248-2.657,5.905-5.906,5.905c-60.873,0-121.746,0-182.619,0
			c-3.248,0-5.905-2.657-5.905-5.905c0-39.192,0-78.385,0-117.577C155.439,187.655,158.097,184.998,161.345,184.998z"/>
		<path fill-rule="evenodd" clip-rule="evenodd" fill="#F5E5B2" d="M162.388,185.857c60.178,0,120.355,0,180.534,0
			c3.205,0,5.827,2.623,5.827,5.827c0,38.672,0,77.343,0,116.015c0,3.205-2.622,5.827-5.827,5.827c-60.179,0-120.356,0-180.534,0
			c-3.205,0-5.828-2.622-5.828-5.827c0-38.672,0-77.343,0-116.015C156.56,188.479,159.183,185.857,162.388,185.857z"/>
		<path fill-rule="evenodd" clip-rule="evenodd" fill="#F5E4AE" d="M163.43,186.716c59.483,0,118.967,0,178.45,0
			c3.161,0,5.748,2.587,5.748,5.749c0,38.151,0,76.302,0,114.453c0,3.162-2.587,5.749-5.748,5.749c-59.483,0-118.967,0-178.45,0
			c-3.162,0-5.749-2.587-5.749-5.749c0-38.15,0-76.302,0-114.453C157.681,189.303,160.268,186.716,163.43,186.716z"/>
		<path fill-rule="evenodd" clip-rule="evenodd" fill="#F4E3AB" d="M164.473,187.576c58.788,0,117.576,0,176.364,0
			c3.119,0,5.67,2.551,5.67,5.67c0,37.63,0,75.261,0,112.892c0,3.118-2.551,5.67-5.67,5.67c-58.788,0-117.576,0-176.364,0
			c-3.119,0-5.671-2.552-5.671-5.67c0-37.631,0-75.261,0-112.892C158.802,190.127,161.354,187.576,164.473,187.576z"/>
	</g>
	<path display="inline" fill-rule="evenodd" clip-rule="evenodd" fill="#F4E2A8" d="M165.515,188.435h174.28
		c3.075,0,5.592,2.517,5.592,5.592v111.33c0,3.075-2.517,5.592-5.592,5.592h-174.28c-3.075,0-5.592-2.517-5.592-5.592v-111.33
		C159.923,190.952,162.439,188.435,165.515,188.435z"/>
	<circle display="inline" fill-rule="evenodd" clip-rule="evenodd" fill="#FFFFFF" cx="352.847" cy="315.43" r="3.554"/>
	<circle display="inline" fill-rule="evenodd" clip-rule="evenodd" fill="#FFFFFF" cx="347.409" cy="317.426" r="1.914"/>
	<circle display="inline" fill-rule="evenodd" clip-rule="evenodd" fill="#FFFFFF" cx="154.543" cy="186.107" r="5.493"/>
	<circle display="inline" fill-rule="evenodd" clip-rule="evenodd" fill="#FFFFFF" cx="163.015" cy="182.99" r="3.039"/>
</g>
<g>
	<path opacity="0.1" fill-rule="evenodd" clip-rule="evenodd" d="M209.843,274.498c0,0.118-0.007,0.23-0.019,0.336
		c-0.003,0.022-0.009,0.041-0.012,0.063c-0.012,0.082-0.024,0.162-0.044,0.236c-0.01,0.039-0.024,0.072-0.037,0.109
		c-0.017,0.053-0.032,0.107-0.054,0.156c-0.017,0.037-0.038,0.07-0.057,0.105c-0.022,0.043-0.043,0.087-0.069,0.126
		c-0.021,0.032-0.048,0.062-0.071,0.092c-0.029,0.037-0.057,0.077-0.09,0.111c-0.024,0.026-0.053,0.048-0.08,0.071
		c-0.037,0.033-0.072,0.068-0.112,0.099c-0.031,0.022-0.065,0.042-0.099,0.063c-0.041,0.026-0.081,0.055-0.126,0.078
		c-0.038,0.02-0.079,0.036-0.119,0.054c-0.045,0.021-0.089,0.042-0.138,0.06c-0.041,0.016-0.087,0.027-0.131,0.041
		c-0.052,0.017-0.103,0.033-0.157,0.047c-0.044,0.011-0.09,0.019-0.135,0.027c-0.061,0.013-0.121,0.025-0.185,0.035
		c-0.044,0.006-0.091,0.011-0.137,0.016c-0.069,0.009-0.139,0.017-0.211,0.022c-0.048,0.003-0.098,0.005-0.146,0.007
		c-0.074,0.004-0.148,0.008-0.226,0.009c-0.053,0.001-0.108-0.001-0.162-0.001c-0.08-0.002-0.16-0.002-0.243-0.006l-0.153-0.008
		c-0.091-0.005-0.183-0.01-0.277-0.018l-0.162-0.016c-0.094-0.009-0.188-0.018-0.284-0.029l-0.178-0.022
		c-0.104-0.013-0.206-0.026-0.313-0.042l-0.16-0.024c-0.111-0.017-0.222-0.034-0.336-0.054l-0.178-0.03
		c-0.114-0.021-0.229-0.041-0.347-0.063l-0.181-0.034c-0.127-0.024-0.256-0.05-0.388-0.077l-0.12-0.024l-0.451-0.097l-0.11-0.023
		c-3.546-0.779-8.193-2.152-13.038-2.792l-0.021-0.003c-0.778-0.102-1.562-0.186-2.347-0.244l-0.023-0.002
		c-0.257-0.019-0.515-0.035-0.772-0.049l-0.011-0.001c-0.259-0.014-0.518-0.024-0.775-0.032h-0.032
		c-5.269-0.153-10.48,0.969-14.499,5.035l-0.011,0.012l-0.111,0.113l-0.006,0.006l-0.01,0.011c-0.181,0.187-0.359,0.378-0.534,0.576
		c2.69-11.392,7.757-14.822,14.154-18.088l-0.235-0.202l-0.786-0.672h142.287l-0.786,0.672l-0.235,0.202
		c6.397,3.266,11.464,6.696,14.154,18.088c-0.175-0.198-0.354-0.39-0.534-0.576l-0.01-0.011l-0.006-0.006l-0.111-0.113l-0.011-0.012
		c-4.018-4.066-9.23-5.188-14.499-5.035h-0.032c-0.258,0.008-0.517,0.019-0.775,0.032l-0.011,0.001
		c-0.258,0.014-0.515,0.03-0.772,0.049l-0.023,0.002c-0.785,0.059-1.568,0.143-2.347,0.244l-0.021,0.003
		c-4.845,0.64-9.492,2.013-13.038,2.792l-0.11,0.023l-0.451,0.097l-0.12,0.024c-0.132,0.027-0.26,0.053-0.388,0.077l-0.181,0.034
		c-0.117,0.022-0.232,0.043-0.347,0.063l-0.178,0.03c-0.114,0.02-0.225,0.037-0.336,0.054l-0.16,0.024
		c-0.106,0.016-0.209,0.029-0.313,0.042l-0.178,0.022c-0.097,0.012-0.19,0.021-0.284,0.029l-0.162,0.016
		c-0.095,0.008-0.187,0.013-0.277,0.018l-0.153,0.008c-0.083,0.004-0.163,0.004-0.243,0.006c-0.054,0-0.109,0.002-0.162,0.001
		c-0.077-0.001-0.151-0.005-0.226-0.009c-0.049-0.002-0.099-0.004-0.146-0.007c-0.072-0.006-0.142-0.014-0.211-0.022
		c-0.046-0.005-0.093-0.01-0.137-0.016c-0.063-0.01-0.124-0.022-0.185-0.035c-0.045-0.009-0.091-0.017-0.134-0.027
		c-0.056-0.014-0.106-0.03-0.158-0.047c-0.044-0.014-0.09-0.025-0.131-0.041c-0.049-0.018-0.093-0.039-0.138-0.06
		c-0.04-0.018-0.081-0.034-0.119-0.054c-0.045-0.023-0.085-0.052-0.126-0.078c-0.033-0.021-0.067-0.041-0.099-0.063
		c-0.04-0.03-0.075-0.065-0.112-0.099c-0.026-0.023-0.056-0.045-0.08-0.071c-0.033-0.034-0.061-0.074-0.09-0.111
		c-0.023-0.03-0.05-0.06-0.071-0.092c-0.026-0.039-0.047-0.083-0.069-0.126c-0.019-0.035-0.04-0.068-0.057-0.105
		c-0.021-0.049-0.036-0.104-0.054-0.156c-0.013-0.037-0.027-0.07-0.037-0.109c-0.02-0.074-0.032-0.154-0.044-0.236
		c-0.003-0.021-0.009-0.04-0.011-0.063c-0.013-0.105-0.02-0.218-0.02-0.336v-2.656v-5.444l-0.007-0.001l-0.008-0.002l-0.008-0.001
		l-0.008-0.001l-0.296-0.045l-0.008-0.002l-0.024-0.004h-0.008l-0.024-0.004l-0.008-0.002l-0.008-0.001l-0.008-0.001l-0.008-0.002
		h-0.009l-0.008-0.002l-0.008-0.001l-0.009-0.001l-0.008-0.002h-0.008l-0.008-0.002l-0.008-0.001l-0.009-0.001l-0.008-0.002
		l-0.008-0.001l-0.008-0.001l-0.013-0.002l-0.013-0.002l-0.025-0.004l-0.014-0.002l-0.708-0.105l-0.014-0.002l-0.013-0.002
		l-0.014-0.002l-0.013-0.002l-0.009-0.001l-0.597-0.085l-0.012-0.002l-0.019-0.002c-0.382-0.053-0.77-0.105-1.164-0.156l-0.02-0.002
		l-0.02-0.003l-0.021-0.003l-0.571-0.071l-0.033-0.004l-0.014-0.001l-0.014-0.002l-0.014-0.002l-0.014-0.002l-0.014-0.002
		l-0.015-0.002l-0.6-0.072l-0.014-0.001l-0.028-0.004l-0.015-0.001l-0.014-0.002l-0.014-0.002l-0.015-0.002l-0.014-0.002
		l-0.014-0.001l-0.015-0.002l-0.015-0.001l-0.014-0.002l-0.014-0.002l-0.015-0.002l-0.014-0.002l-0.678-0.078l-0.021-0.002
		l-0.021-0.003l-0.021-0.003l-0.021-0.002l-0.021-0.002c-0.388-0.043-0.778-0.087-1.176-0.129l-0.021-0.002l-0.021-0.003
		l-0.021-0.002l-0.005-0.001l-0.681-0.069l-0.972-0.097l-0.682-0.065l-0.022-0.002l-0.023-0.002l-0.022-0.003l-0.022-0.002
		c-0.434-0.04-0.871-0.08-1.314-0.118l-0.023-0.002l-0.047-0.004l-0.023-0.002l-0.017-0.002l-0.699-0.059l-0.016-0.001l-0.017-0.002
		l-0.017-0.001l-0.016-0.001l-0.017-0.002l-0.017-0.001l-0.016-0.001l-0.017-0.002l-0.017-0.001l-0.032-0.003l-0.017-0.002
		l-0.016-0.001l-0.688-0.056l-0.017-0.002l-0.017-0.001l-0.017-0.001l-0.017-0.002l-0.016-0.001l-0.018-0.001l-0.016-0.002h-0.017
		l-0.017-0.002l-0.749-0.059l-0.013-0.002l-0.023-0.002l-0.023-0.002l-0.024-0.001c-0.45-0.034-0.905-0.067-1.364-0.101
		l-0.024-0.002l-0.024-0.002l-0.024-0.002l-0.023-0.001l-0.802-0.056l-0.015-0.001l-1.074-0.071l-0.017-0.002l-0.782-0.049
		l-0.024-0.002l-0.025-0.002l-0.025-0.002l-0.025-0.001c-0.462-0.028-0.929-0.057-1.397-0.084l-0.026-0.001l-0.025-0.002
		l-0.025-0.002l-0.025-0.001l-0.025-0.001l-0.893-0.05l-0.99-0.054l-0.032-0.001l-0.981-0.051l-0.014-0.001h-0.023l-0.024-0.002
		l-0.023-0.001l-1.395-0.065l-0.024-0.002l-0.023-0.001l-0.024-0.001h-0.015l-0.924-0.041l-0.054-0.002l-1.016-0.043l-1.26-0.049
		l-0.022-0.001l-0.022-0.001l-0.022-0.001l-0.021-0.001l-0.022-0.001l-0.022-0.001h-0.022l-0.022-0.002h-0.022l-0.022-0.001
		l-1.103-0.04h-0.022l-0.022-0.002h-0.022l-0.022-0.001l-0.022-0.001h-0.001l-0.925-0.03l-1.123-0.035l-1.227-0.035l-1.523-0.04
		h-0.033l-0.897-0.021l-1.223-0.025l-1.008-0.02c-0.482-0.009-0.966-0.017-1.449-0.023h-0.025l-0.025-0.001l-0.025-0.001h-0.026
		h-0.025h-0.025l-0.025-0.001l-0.026-0.001h-0.025l-0.981-0.014h-0.006l-1.086-0.012l-0.025-0.001h-0.023l-0.025-0.001h-0.024
		h-0.024h-0.024l-1.198-0.012h-0.024h-0.024h-0.024l-0.024-0.001h-0.024h-0.024l-0.024-0.001h-0.024h-0.024l-1.279-0.008
		l-0.915-0.005h-0.017l-1.34-0.003h-0.037h-1.363l-1.213,0.003l-1.019,0.005h-0.007l-1.252,0.008h-0.042l-1.529,0.016l-1.043,0.012
		h-0.04l-0.945,0.014h-0.035l-1.423,0.023h-0.007l-1.319,0.025l-1.133,0.023l-1.017,0.023l-1.253,0.033h-0.022l-0.022,0.001
		l-0.022,0.001l-1.051,0.029h-0.022l-0.022,0.001l-0.022,0.001h-0.021l-0.022,0.001l-0.022,0.001h-0.022l-0.022,0.001l-0.021,0.001
		h-0.022l-0.022,0.001l-0.022,0.001h-0.022l-0.022,0.001l-1.135,0.036l-0.954,0.031l-1.289,0.047l-0.03,0.001l-1.411,0.056
		l-0.895,0.037h-0.001l-1.039,0.045l-0.026,0.002l-0.989,0.047l-0.025,0.001l-0.025,0.001l-0.026,0.002h-0.025l-0.025,0.002
		l-0.025,0.001l-0.025,0.001l-0.052,0.003l-0.025,0.001l-1.117,0.057l-0.025,0.001l-0.025,0.001l-0.025,0.002l-0.025,0.001
		l-0.025,0.001l-0.025,0.002l-0.024,0.001l-0.025,0.001l-0.025,0.002l-0.025,0.001l-0.867,0.046l-1.009,0.057l-0.024,0.002
		l-0.024,0.001l-0.024,0.002l-0.023,0.001l-0.024,0.002l-0.024,0.001l-0.024,0.001l-0.024,0.002l-1.153,0.068l-0.023,0.002
		l-0.024,0.002l-0.023,0.001l-0.024,0.001l-0.023,0.002l-0.024,0.002l-0.023,0.001l-0.023,0.001h-0.002l-0.844,0.055l-1.067,0.071
		l-0.028,0.002l-0.735,0.051l-0.018,0.001l-0.023,0.002l-0.024,0.002c-0.465,0.032-0.924,0.066-1.379,0.102l-0.023,0.001
		l-0.024,0.003l-0.023,0.001l-0.024,0.002l-0.023,0.002l-0.795,0.063l-0.03,0.003l-0.888,0.072l-0.043,0.003l-0.822,0.069
		l-0.024,0.002l-0.024,0.002l-0.021,0.002l-0.021,0.002l-0.021,0.002c-0.415,0.037-0.827,0.073-1.233,0.111l-0.042,0.004
		l-0.019,0.002l-0.781,0.074l-0.885,0.088l-0.004,0.001l-0.723,0.074l-0.021,0.002l-0.021,0.003h-0.001
		c-0.403,0.043-0.799,0.086-1.191,0.13l-0.02,0.003l-0.021,0.002l-0.021,0.002l-0.021,0.002l-0.013,0.002l-0.677,0.078l-0.028,0.004
		l-0.832,0.101l-0.01,0.001l-0.012,0.002l-0.01,0.001l-0.011,0.001l-0.011,0.002l-0.011,0.001l-0.011,0.001l-0.011,0.002
		l-0.011,0.002h-0.01l-0.011,0.002l-0.508,0.063l-0.011,0.002l-0.01,0.002l-0.011,0.001l-0.011,0.001l-0.01,0.002l-0.02,0.002l0,0
		c-0.389,0.051-0.77,0.102-1.145,0.153l-0.019,0.003l-0.019,0.002l-0.01,0.002l-0.01,0.001l-0.01,0.001l-0.011,0.002l-0.01,0.001
		l-0.01,0.001l-0.01,0.002l-0.482,0.068l-0.011,0.002l-0.009,0.002l-0.011,0.001l-0.01,0.001l-0.01,0.002l-0.01,0.001l-0.01,0.002
		l-0.01,0.001l-0.013,0.002l-0.013,0.002l-0.013,0.002l-0.013,0.002l-0.7,0.104l-0.013,0.002l-0.013,0.002l-0.012,0.002
		l-0.013,0.002l-0.025,0.004l-0.522,0.08l-0.008,0.001v5.44V274.498z"/>
	<g>
		<g>
			<g>
				<path fill-rule="evenodd" clip-rule="evenodd" fill="#E44149" d="M209.843,271.895c0,7.605-26.036-10.342-38.688,4.023
					c3.09-11.814,7.271-14.248,14.154-18.088l-10.491-8.98c10.576-4.57,29.394,6.312,35.024-4.091V271.895z"/>
				<linearGradient id="SVGID_17_" gradientUnits="userSpaceOnUse" x1="201.3379" y1="265.6162" x2="154.4272" y2="263.9781">
					<stop  offset="0" style="stop-color:#B61D1C"/>
					<stop  offset="1" style="stop-color:#EF464C"/>
				</linearGradient>
				<path fill-rule="evenodd" clip-rule="evenodd" fill="url(#SVGID_17_)" d="M209.843,271.895c0,7.605-26.036-10.342-38.688,4.023
					c3.09-11.814,7.271-14.248,14.154-18.088l-0.235-0.201c9.752,0.852,20.7,4.442,24.769-3.072V271.895z"/>
				<path fill-rule="evenodd" clip-rule="evenodd" fill="#FF6594" d="M171.827,275.201c-0.228,0.23-0.452,0.468-0.672,0.717
					c2.69-11.392,7.757-14.821,14.154-18.088C181.14,263.281,174.835,265.449,171.827,275.201L171.827,275.201z M176.173,250.01
					l-1.354-1.16c10.576-4.57,29.394,6.312,35.024-4.091v1.648C204.444,256.379,186.93,246.795,176.173,250.01z"/>
				<path fill-rule="evenodd" clip-rule="evenodd" fill="#CE1922" d="M209.843,271.895c0,7.605-26.036-10.342-38.688,4.023
					c8.976-18.521,38.688,0.871,38.688-6.68V271.895z"/>
			</g>
			<path fill-rule="evenodd" clip-rule="evenodd" fill="#E44149" d="M199.584,241.458l10.259,0.948v29.488
				c-2.254-8.622-10.259-0.398-10.259-4.611V241.458z"/>
			<path fill-rule="evenodd" clip-rule="evenodd" fill="#AA0009" d="M199.584,241.458l10.259,0.907v29.529
				c-1.441-9.373-9.853-0.952-9.634-6.045L199.584,241.458z"/>
		</g>
		<g>
			<g>
				<path fill-rule="evenodd" clip-rule="evenodd" fill="#E44149" d="M301.021,271.895c0,7.605,26.036-10.342,38.688,4.023
					c-3.09-11.814-7.27-14.248-14.154-18.088l10.491-8.98c-10.576-4.57-29.393,6.312-35.024-4.091V271.895z"/>
				<linearGradient id="SVGID_18_" gradientUnits="userSpaceOnUse" x1="283.7373" y1="265.876" x2="330.7748" y2="265.0549">
					<stop  offset="0" style="stop-color:#B61D1C"/>
					<stop  offset="1" style="stop-color:#EF464C"/>
				</linearGradient>
				<path fill-rule="evenodd" clip-rule="evenodd" fill="url(#SVGID_18_)" d="M301.021,271.895c0,7.605,26.036-10.342,38.688,4.023
					c-3.09-11.814-7.27-14.248-14.154-18.088l0.235-0.201c-9.752,0.852-20.7,4.442-24.769-3.072V271.895z"/>
				<path fill-rule="evenodd" clip-rule="evenodd" fill="#FF6594" d="M339.036,275.201c0.228,0.23,0.452,0.468,0.672,0.717
					c-2.69-11.392-7.757-14.821-14.154-18.088C329.724,263.281,336.028,265.449,339.036,275.201L339.036,275.201z M334.69,250.01
					l1.354-1.16c-10.576-4.57-29.393,6.312-35.024-4.091v1.648C306.419,256.379,323.934,246.795,334.69,250.01z"/>
				<path fill-rule="evenodd" clip-rule="evenodd" fill="#CE1922" d="M301.021,271.895c0,7.605,26.036-10.342,38.688,4.023
					c-8.976-18.521-38.688,0.871-38.688-6.68V271.895z"/>
			</g>
			<path fill-rule="evenodd" clip-rule="evenodd" fill="#E44149" d="M311.279,241.458l-10.259,0.948v29.488
				c2.254-8.622,10.259-0.398,10.259-4.611V241.458z"/>
			<path fill-rule="evenodd" clip-rule="evenodd" fill="#AA0009" d="M311.279,241.458l-10.259,0.907v29.529
				c1.441-9.373,9.853-0.952,9.634-6.045L311.279,241.458z"/>
		</g>
		<g>
			<path fill-rule="evenodd" clip-rule="evenodd" fill="#E44149" d="M199.584,241.458c1.712-10.103,110.007-10.103,111.719,0v25.64
				c-5.86-7.786-105.858-7.786-111.719,0V241.458z"/>
			<path fill-rule="evenodd" clip-rule="evenodd" fill="#DF1B25" d="M311.303,251.689v15.409c-5.86-7.786-105.858-7.786-111.719,0
				v-15.409C217.818,245.329,293.066,245.329,311.303,251.689z"/>
			<path fill-rule="evenodd" clip-rule="evenodd" fill="#FF6594" d="M199.608,241.387c2.211-10.006,109.459-10.006,111.671,0
				C297.552,233.882,213.338,233.882,199.608,241.387z"/>
			<path fill-rule="evenodd" clip-rule="evenodd" fill="#C10F18" d="M311.303,265.617v1.48c-5.86-7.786-105.858-7.786-111.719,0
				v-1.48C205.444,257.832,305.442,257.832,311.303,265.617z"/>
		</g>
	</g>
</g>
</svg>
