<?xml version="1.0" encoding="utf-8"?>
<!-- Generator: Adobe Illustrator 19.0.0, SVG Export Plug-In . SVG Version: 6.00 Build 0)  -->
<svg version="1.1" id="Layer_1" xmlns="http://www.w3.org/2000/svg" xmlns:xlink="http://www.w3.org/1999/xlink" x="0px" y="0px"
	 viewBox="0 0 512 512" style="enable-background:new 0 0 512 512;" xml:space="preserve">
<style type="text/css">
	.st0{opacity:0.1;fill-rule:evenodd;clip-rule:evenodd;}
	.st1{fill-rule:evenodd;clip-rule:evenodd;fill:#E5E5E5;}
	.st2{fill-rule:evenodd;clip-rule:evenodd;fill:#FFFFFF;}
	.st3{fill-rule:evenodd;clip-rule:evenodd;fill:#00AFDB;}
	.st4{fill-rule:evenodd;clip-rule:evenodd;fill:#98FFFF;}
	.st5{fill-rule:evenodd;clip-rule:evenodd;fill:#8AF9FF;}
	.st6{fill-rule:evenodd;clip-rule:evenodd;fill:#7DF5FF;}
	.st7{fill-rule:evenodd;clip-rule:evenodd;fill:#6FF0FF;}
	.st8{fill-rule:evenodd;clip-rule:evenodd;fill:#61EBFF;}
	.st9{fill-rule:evenodd;clip-rule:evenodd;fill:#53E7FF;}
	.st10{fill-rule:evenodd;clip-rule:evenodd;fill:#46E2FF;}
	.st11{fill-rule:evenodd;clip-rule:evenodd;fill:#38DEFF;}
	.st12{fill-rule:evenodd;clip-rule:evenodd;fill:#2AD9FF;}
	.st13{fill-rule:evenodd;clip-rule:evenodd;fill:#1CD4FF;}
	.st14{fill-rule:evenodd;clip-rule:evenodd;fill:#0ED0FF;}
	.st15{fill-rule:evenodd;clip-rule:evenodd;fill:#00CBFF;}
	.st16{opacity:0.29;fill-rule:evenodd;clip-rule:evenodd;fill:#FFFFFF;}
	.st17{fill-rule:evenodd;clip-rule:evenodd;fill:none;stroke:#00AFDB;stroke-width:1.262;stroke-miterlimit:22.9256;}
</style>
<g id="XMLID_408_">
	<g id="XMLID_416_">
		<path id="XMLID_438_" class="st0" d="M248.4,246.2c5.3-0.9,10.6-1,15.8,0c1.7,0.3,2.8,1.4,3.1,3.1c1,5.3,1,10.5,0,15.8
			c-0.3,1.7-1.4,2.9-3.1,3.1c-5.2,0.5-10.5,0.5-15.8,0c-1.7-0.1-2.9-1.4-3.1-3.1c-0.6-5.3-0.7-10.5,0-15.8
			C245.5,247.6,246.7,246.5,248.4,246.2z"/>
		<path id="XMLID_437_" class="st1" d="M247.8,245c5.3-0.9,10.6-1,15.8,0c1.7,0.3,2.8,1.4,3.1,3.1c1,5.3,1,10.5,0,15.8
			c-0.3,1.7-1.4,2.9-3.1,3.1c-5.2,0.5-10.5,0.5-15.8,0c-1.7-0.1-2.9-1.4-3.1-3.1c-0.6-5.3-0.7-10.5,0-15.8
			C245,246.4,246.2,245.3,247.8,245z"/>
		<path id="XMLID_436_" class="st2" d="M247.8,244.4c5.3-0.9,10.6-1,15.8,0c1.7,0.3,2.8,1.4,3.1,3.1c1,5.3,1,10.5,0,15.8
			c-0.3,1.7-1.4,2.9-3.1,3.1c-5.2,0.5-10.5,0.5-15.8,0c-1.7-0.1-2.9-1.4-3.1-3.1c-0.6-5.3-0.7-10.5,0-15.8
			C245,245.8,246.2,244.7,247.8,244.4z"/>
		<path id="XMLID_435_" class="st1" d="M249,245.9c4.8-0.8,9.5-0.9,14.1,0c1.5,0.3,2.5,1.3,2.8,2.8c0.9,4.7,0.9,9.4,0,14.1
			c-0.3,1.5-1.2,2.6-2.8,2.8c-4.7,0.4-9.4,0.4-14.1,0c-1.5-0.1-2.6-1.2-2.8-2.8c-0.5-4.7-0.6-9.4,0-14.1
			C246.5,247.2,247.5,246.2,249,245.9z"/>
		<path id="XMLID_434_" class="st3" d="M248.7,245.5c4.8-0.8,9.5-0.9,14.1,0c1.5,0.3,2.5,1.3,2.8,2.8c0.9,4.7,0.9,9.4,0,14.1
			c-0.3,1.5-1.2,2.6-2.8,2.8c-4.7,0.4-9.4,0.4-14.1,0c-1.5-0.1-2.6-1.2-2.8-2.8c-0.5-4.7-0.6-9.4,0-14.1
			C246.1,246.8,247.2,245.8,248.7,245.5z"/>
		<path id="XMLID_433_" class="st4" d="M248.7,244.6c4.8-0.8,9.5-0.9,14.1,0c1.5,0.3,2.5,1.3,2.8,2.8c0.9,4.7,0.9,9.4,0,14.1
			c-0.3,1.5-1.2,2.6-2.8,2.8c-4.7,0.4-9.4,0.4-14.1,0c-1.5-0.1-2.6-1.3-2.8-2.8c-0.5-4.7-0.6-9.4,0-14.1
			C246.1,245.8,247.2,244.8,248.7,244.6z"/>
		<g id="XMLID_422_">
			<path id="XMLID_432_" class="st5" d="M248.8,244.7c4.7-0.8,9.4-0.8,14,0c1.5,0.3,2.4,1.3,2.7,2.7c0.9,4.7,0.9,9.3,0,14
				c-0.3,1.5-1.2,2.6-2.7,2.7c-4.6,0.4-9.3,0.4-14,0c-1.5-0.1-2.6-1.2-2.7-2.7c-0.5-4.7-0.6-9.3,0-14
				C246.2,245.9,247.3,245,248.8,244.7z"/>
			<path id="XMLID_431_" class="st6" d="M248.9,244.8c4.6-0.8,9.2-0.8,13.8,0c1.5,0.3,2.4,1.2,2.7,2.7c0.9,4.6,0.9,9.2,0,13.8
				c-0.3,1.4-1.2,2.5-2.7,2.7c-4.5,0.4-9.1,0.4-13.8,0c-1.5-0.1-2.5-1.2-2.7-2.7c-0.5-4.6-0.6-9.2,0-13.8
				C246.4,246.1,247.4,245.1,248.9,244.8z"/>
			<path id="XMLID_430_" class="st7" d="M248.9,245c4.6-0.8,9.1-0.8,13.6,0c1.4,0.3,2.4,1.2,2.6,2.6c0.9,4.5,0.9,9.1,0,13.6
				c-0.3,1.4-1.2,2.5-2.6,2.6c-4.5,0.4-9,0.4-13.6,0c-1.4-0.1-2.5-1.2-2.6-2.6c-0.5-4.5-0.6-9.1,0-13.6
				C246.5,246.2,247.5,245.2,248.9,245z"/>
			<path id="XMLID_429_" class="st8" d="M249,245.1c4.5-0.8,9-0.8,13.4,0c1.4,0.3,2.3,1.2,2.6,2.6c0.9,4.5,0.8,8.9,0,13.4
				c-0.3,1.4-1.2,2.5-2.6,2.6c-4.4,0.4-8.9,0.4-13.4,0c-1.4-0.1-2.4-1.2-2.6-2.6c-0.5-4.5-0.6-8.9,0-13.4
				C246.6,246.3,247.6,245.3,249,245.1z"/>
			<path id="XMLID_428_" class="st9" d="M249.1,245.2c4.5-0.8,8.9-0.8,13.2,0c1.4,0.3,2.3,1.2,2.6,2.6c0.9,4.4,0.8,8.8,0,13.2
				c-0.3,1.4-1.2,2.4-2.6,2.6c-4.4,0.4-8.8,0.4-13.2,0c-1.4-0.1-2.4-1.2-2.6-2.6c-0.5-4.4-0.6-8.8,0-13.2
				C246.8,246.4,247.7,245.5,249.1,245.2z"/>
			<path id="XMLID_427_" class="st10" d="M249.2,245.3c4.4-0.8,8.7-0.8,13,0c1.4,0.3,2.3,1.2,2.5,2.5c0.8,4.3,0.8,8.7,0,13
				c-0.3,1.4-1.1,2.4-2.5,2.5c-4.3,0.4-8.6,0.4-13,0c-1.4-0.1-2.4-1.2-2.5-2.5c-0.5-4.3-0.6-8.7,0-13
				C246.9,246.5,247.9,245.6,249.2,245.3z"/>
			<path id="XMLID_426_" class="st11" d="M249.3,245.5c4.3-0.8,8.6-0.8,12.8,0c1.4,0.2,2.2,1.1,2.5,2.5c0.8,4.3,0.8,8.6,0,12.8
				c-0.3,1.4-1.1,2.4-2.5,2.5c-4.2,0.4-8.5,0.4-12.8,0c-1.4-0.1-2.3-1.1-2.5-2.5c-0.5-4.3-0.6-8.6,0-12.8
				C247,246.6,248,245.7,249.3,245.5z"/>
			<path id="XMLID_425_" class="st12" d="M249.4,245.6c4.3-0.8,8.5-0.8,12.6,0c1.3,0.2,2.2,1.1,2.5,2.5c0.8,4.2,0.8,8.4,0,12.6
				c-0.3,1.3-1.1,2.3-2.5,2.5c-4.2,0.4-8.4,0.4-12.6,0c-1.4-0.1-2.3-1.1-2.5-2.5c-0.5-4.2-0.6-8.4,0-12.6
				C247.1,246.7,248.1,245.8,249.4,245.6z"/>
			<path id="XMLID_424_" class="st13" d="M249.5,245.7c4.2-0.7,8.4-0.8,12.5,0c1.3,0.2,2.2,1.1,2.4,2.4c0.8,4.2,0.8,8.3,0,12.5
				c-0.2,1.3-1.1,2.3-2.4,2.4c-4.1,0.4-8.3,0.4-12.5,0c-1.3-0.1-2.3-1.1-2.4-2.4c-0.5-4.2-0.6-8.3,0-12.5
				C247.3,246.8,248.2,246,249.5,245.7z"/>
			<path id="XMLID_423_" class="st14" d="M249.6,245.9c4.1-0.7,8.2-0.7,12.3,0c1.3,0.2,2.1,1.1,2.4,2.4c0.8,4.1,0.8,8.2,0,12.3
				c-0.2,1.3-1.1,2.3-2.4,2.4c-4,0.4-8.1,0.4-12.3,0c-1.3-0.1-2.2-1.1-2.4-2.4c-0.5-4.1-0.6-8.2,0-12.3
				C247.4,246.9,248.3,246.1,249.6,245.9z"/>
		</g>
		<path id="XMLID_421_" class="st15" d="M249.7,246c4.1-0.7,8.1-0.7,12.1,0c1.3,0.2,2.1,1.1,2.4,2.4c0.8,4,0.8,8.1,0,12.1
			c-0.2,1.3-1.1,2.2-2.4,2.4c-4,0.4-8,0.4-12.1,0c-1.3-0.1-2.2-1.1-2.4-2.4c-0.5-4-0.5-8.1,0-12.1
			C247.5,247.1,248.4,246.2,249.7,246z"/>
		<path id="XMLID_420_" class="st16" d="M248.7,244.6c4.8-0.8,9.5-0.9,14.1,0c1.5,0.3,2.5,1.3,2.8,2.8c0.4,2.1,0.6,4.3,0.7,6.4
			c-8.8-3.6-14.8,6-20.8,0c0-2.1,0.2-4.2,0.4-6.4C246.1,245.8,247.2,244.8,248.7,244.6z"/>
		<circle id="XMLID_419_" class="st2" cx="248.5" cy="247.1" r="1.9"/>
		<circle id="XMLID_418_" class="st2" cx="251.4" cy="245.4" r="0.9"/>
		<circle id="XMLID_417_" class="st2" cx="263.2" cy="262.7" r="1.1"/>
	</g>
	<g id="XMLID_409_">
		<g id="XMLID_412_">
			<path id="XMLID_415_" class="st17" d="M253.9,256c0.8,0,1.6,0.2,2.2,0.4c-0.6-2.6-1.4-5.9-2.1-8.5c-0.3-1.2,2.5-0.6,3.5,0.1
				c1,0.7,1.7,2.4,4.1,2.1c-1.3,1.6-3.3,0.5-4.7,0.2c-0.8-0.1-1.3,0.4-1.1,0.9l1.4,5.9c0.4,0.4,0.6,0.9,0.6,1.3
				c0,1.4-1.8,2.6-3.9,2.6c-2.2,0-3.9-1.1-3.9-2.6C249.9,257.1,251.7,256,253.9,256z"/>
			<path id="XMLID_413_" class="st2" d="M253.9,256c0.8,0,1.6,0.2,2.2,0.4c-0.6-2.6-1.4-5.9-2.1-8.5c-0.3-1.2,2.5-0.6,3.5,0.1
				c1,0.7,1.7,2.4,4.1,2.1c-1.3,1.6-3.3,0.5-4.7,0.2c-0.8-0.1-1.3,0.4-1.1,0.9l1.4,5.9c0.4,0.4,0.6,0.9,0.6,1.3
				c0,1.4-1.8,2.6-3.9,2.6c-2.2,0-3.9-1.1-3.9-2.6C249.9,257.1,251.7,256,253.9,256z"/>
		</g>
		<path id="XMLID_411_" class="st0" d="M257.6,257.7c-0.1,1.3-1.8,2.4-3.9,2.4c-1.7,0-3.2-0.7-3.7-1.8c0,0,0,0.1,0,0.2
			c0,0.7,0.4,1.3,1.1,1.8c0.6,0.4,1.3,0.7,2.2,0.7c0.2,0,0.5,0,0.7,0c2.2,0,3.9-1.1,3.9-2.6C257.8,258.3,257.7,258,257.6,257.7z"/>
		<path id="XMLID_410_" class="st0" d="M258.5,250.7c1.1,0.3,2.3,0.4,3.2-0.6c-0.3,0-0.6,0.1-0.9,0c-0.3,0-0.5-0.1-0.8-0.2
			c-1.1,0.1-2.3-0.4-3.2-0.6c-0.5-0.1-0.9,0.1-1,0.4c-0.1,0.2-0.2,0.4-0.1,0.6l0.2,0.8c0-0.4,0.4-0.7,0.9-0.7c0.1,0,0.1,0,0.2,0
			C257.4,250.4,257.9,250.6,258.5,250.7z"/>
	</g>
</g>
</svg>
