<?xml version="1.0" encoding="utf-8"?>
<!-- Generator: Adobe Illustrator 19.0.0, SVG Export Plug-In . SVG Version: 6.00 Build 0)  -->
<svg version="1.1" id="Layer_1" xmlns="http://www.w3.org/2000/svg" xmlns:xlink="http://www.w3.org/1999/xlink" x="0px" y="0px"
	 viewBox="0 0 512 512" style="enable-background:new 0 0 512 512;" xml:space="preserve">
<style type="text/css">
	.st0{display:none;}
	.st1{display:inline;opacity:0.1;fill-rule:evenodd;clip-rule:evenodd;}
	.st2{display:inline;}
	.st3{fill-rule:evenodd;clip-rule:evenodd;fill:#E44149;}
	.st4{fill-rule:evenodd;clip-rule:evenodd;fill:url(#XMLID_58_);}
	.st5{fill-rule:evenodd;clip-rule:evenodd;fill:#FF6594;}
	.st6{fill-rule:evenodd;clip-rule:evenodd;fill:#CE1922;}
	.st7{fill-rule:evenodd;clip-rule:evenodd;fill:#AA0009;}
	.st8{fill-rule:evenodd;clip-rule:evenodd;fill:url(#XMLID_59_);}
	.st9{fill-rule:evenodd;clip-rule:evenodd;fill:#DF1B25;}
	.st10{fill-rule:evenodd;clip-rule:evenodd;fill:#C10F18;}
	
		.st11{display:inline;fill-rule:evenodd;clip-rule:evenodd;fill:none;stroke:#901315;stroke-width:1.8255;stroke-linecap:round;stroke-linejoin:round;stroke-miterlimit:22.9256;}
	.st12{display:inline;fill-rule:evenodd;clip-rule:evenodd;fill:#FFFFFF;}
	.st13{opacity:0.1;fill-rule:evenodd;clip-rule:evenodd;}
	.st14{fill-rule:evenodd;clip-rule:evenodd;fill:#E5E5E5;}
	.st15{fill-rule:evenodd;clip-rule:evenodd;fill:#FFFFFF;}
	.st16{fill-rule:evenodd;clip-rule:evenodd;fill:#F0C282;}
	.st17{fill-rule:evenodd;clip-rule:evenodd;fill:#F9EDCB;}
	.st18{fill-rule:evenodd;clip-rule:evenodd;fill:#F9ECC8;}
	.st19{fill-rule:evenodd;clip-rule:evenodd;fill:#F8EBC5;}
	.st20{fill-rule:evenodd;clip-rule:evenodd;fill:#F8EAC1;}
	.st21{fill-rule:evenodd;clip-rule:evenodd;fill:#F7E9BE;}
	.st22{fill-rule:evenodd;clip-rule:evenodd;fill:#F7E8BB;}
	.st23{fill-rule:evenodd;clip-rule:evenodd;fill:#F6E7B8;}
	.st24{fill-rule:evenodd;clip-rule:evenodd;fill:#F6E6B5;}
	.st25{fill-rule:evenodd;clip-rule:evenodd;fill:#F5E5B2;}
	.st26{fill-rule:evenodd;clip-rule:evenodd;fill:#F5E4AE;}
	.st27{fill-rule:evenodd;clip-rule:evenodd;fill:#F4E3AB;}
	.st28{fill-rule:evenodd;clip-rule:evenodd;fill:#F4E2A8;}
	.st29{fill-rule:evenodd;clip-rule:evenodd;fill:#EEB369;}
	.st30{fill-rule:evenodd;clip-rule:evenodd;fill:#F0C484;}
	.st31{fill-rule:evenodd;clip-rule:evenodd;fill:#F0C685;}
	.st32{fill-rule:evenodd;clip-rule:evenodd;fill:#F1C987;}
	.st33{fill-rule:evenodd;clip-rule:evenodd;fill:#F1CB89;}
	.st34{fill-rule:evenodd;clip-rule:evenodd;fill:#F1CD8A;}
	.st35{fill-rule:evenodd;clip-rule:evenodd;fill:#F1CF8C;}
	.st36{fill-rule:evenodd;clip-rule:evenodd;fill:#F1D18D;}
	.st37{fill-rule:evenodd;clip-rule:evenodd;fill:#F1D38F;}
	.st38{fill-rule:evenodd;clip-rule:evenodd;fill:#F2D691;}
	.st39{fill-rule:evenodd;clip-rule:evenodd;fill:#F2D892;}
	.st40{fill-rule:evenodd;clip-rule:evenodd;fill:#F2DA94;}
	.st41{fill-rule:evenodd;clip-rule:evenodd;fill:url(#SVGID_1_);}
	.st42{fill-rule:evenodd;clip-rule:evenodd;fill:url(#SVGID_2_);}
	
		.st43{fill-rule:evenodd;clip-rule:evenodd;fill:none;stroke:#901315;stroke-width:1.8255;stroke-linecap:round;stroke-linejoin:round;stroke-miterlimit:22.9256;}
</style>
<g id="XMLID_29_" class="st0">
	<path id="XMLID_56_" class="st1" d="M194.4,59.5c0,0.1,0,0.2,0,0.3c0,0,0,0,0,0c0,0.1,0,0.1,0,0.2c0,0,0,0.1,0,0.1c0,0,0,0.1,0,0.1
		c0,0,0,0.1,0,0.1c0,0,0,0.1,0,0.1c0,0,0,0,0,0.1c0,0,0,0.1-0.1,0.1c0,0,0,0-0.1,0.1c0,0,0,0.1-0.1,0.1c0,0,0,0-0.1,0.1
		c0,0-0.1,0-0.1,0.1c0,0-0.1,0-0.1,0c0,0-0.1,0-0.1,0c0,0-0.1,0-0.1,0c0,0-0.1,0-0.1,0c0,0-0.1,0-0.1,0c0,0-0.1,0-0.1,0
		c0,0-0.1,0-0.1,0c0,0-0.1,0-0.1,0c0,0-0.1,0-0.1,0c0,0-0.1,0-0.1,0c0,0-0.1,0-0.1,0c-0.1,0-0.1,0-0.2,0l-0.1,0c-0.1,0-0.1,0-0.2,0
		l-0.1,0c-0.1,0-0.1,0-0.2,0l-0.1,0c-0.1,0-0.1,0-0.2,0l-0.1,0c-0.1,0-0.1,0-0.2,0l-0.1,0c-0.1,0-0.1,0-0.2,0l-0.1,0
		c-0.1,0-0.2,0-0.2-0.1l-0.1,0l-0.3-0.1l-0.1,0c-2.3-0.6-5.2-1.7-8.3-2.2l0,0c-0.5-0.1-1-0.1-1.5-0.2l0,0c-0.2,0-0.3,0-0.5,0l0,0
		c-0.2,0-0.3,0-0.5,0l0,0c-3.4-0.1-6.7,0.8-9.3,4l0,0l-0.1,0.1l0,0l0,0c-0.1,0.1-0.2,0.3-0.3,0.5c1.7-9,5-11.7,9.1-14.3l-0.2-0.2
		l-0.5-0.5h91.1l-0.5,0.5l-0.2,0.2c4.1,2.6,7.3,5.3,9.1,14.3c-0.1-0.2-0.2-0.3-0.3-0.5l0,0l0,0l-0.1-0.1l0,0c-2.6-3.2-5.9-4.1-9.3-4
		l0,0c-0.2,0-0.3,0-0.5,0l0,0c-0.2,0-0.3,0-0.5,0l0,0c-0.5,0-1,0.1-1.5,0.2l0,0c-3.1,0.5-6.1,1.6-8.3,2.2l-0.1,0l-0.3,0.1l-0.1,0
		c-0.1,0-0.2,0-0.2,0.1l-0.1,0c-0.1,0-0.1,0-0.2,0l-0.1,0c-0.1,0-0.1,0-0.2,0l-0.1,0c-0.1,0-0.1,0-0.2,0l-0.1,0c-0.1,0-0.1,0-0.2,0
		l-0.1,0c-0.1,0-0.1,0-0.2,0l-0.1,0c-0.1,0-0.1,0-0.2,0c0,0-0.1,0-0.1,0c0,0-0.1,0-0.1,0c0,0-0.1,0-0.1,0c0,0-0.1,0-0.1,0
		c0,0-0.1,0-0.1,0c0,0-0.1,0-0.1,0c0,0-0.1,0-0.1,0c0,0-0.1,0-0.1,0c0,0-0.1,0-0.1,0c0,0-0.1,0-0.1,0c0,0-0.1,0-0.1,0
		c0,0-0.1,0-0.1-0.1c0,0,0,0-0.1-0.1c0,0,0-0.1-0.1-0.1c0,0,0,0-0.1-0.1c0,0,0-0.1-0.1-0.1c0,0,0,0,0-0.1c0,0,0-0.1,0-0.1
		c0,0,0-0.1,0-0.1c0,0,0-0.1,0-0.1c0,0,0-0.1,0-0.1c0-0.1,0-0.1,0-0.2c0,0,0,0,0,0c0-0.1,0-0.2,0-0.3v-2.1v-4.3l0,0l0,0l0,0l0,0
		l-0.2,0l0,0l0,0l0,0l0,0l0,0l0,0l0,0l0,0l0,0l0,0l0,0l0,0l0,0l0,0l0,0l0,0l0,0l0,0l0,0l0,0l0,0l0,0l0,0l0,0l-0.5-0.1l0,0l0,0l0,0
		l0,0l0,0l-0.4-0.1l0,0l0,0c-0.2,0-0.5-0.1-0.7-0.1l0,0l0,0l0,0l-0.4-0.1l0,0l0,0l0,0l0,0l0,0l0,0l0,0l-0.4-0.1l0,0l0,0l0,0l0,0l0,0
		l0,0l0,0l0,0l0,0l0,0l0,0l0,0l0,0l0,0l-0.4-0.1l0,0l0,0l0,0l0,0l0,0c-0.2,0-0.5-0.1-0.8-0.1l0,0l0,0l0,0l0,0l-0.4-0.1l-0.6-0.1
		l-0.4-0.1l0,0l0,0l0,0l0,0c-0.3,0-0.6-0.1-0.8-0.1l0,0l0,0l0,0l0,0l-0.4,0l0,0l0,0l0,0l0,0l0,0l0,0l0,0l0,0l0,0l0,0l0,0l0,0l-0.4,0
		l0,0l0,0l0,0l0,0l0,0l0,0l0,0l0,0l0,0l-0.5,0l0,0l0,0l0,0l0,0c-0.3,0-0.6-0.1-0.9-0.1l0,0l0,0l0,0l0,0l-0.5,0l0,0l-0.7-0.1l0,0
		l-0.5,0l0,0l0,0l0,0l0,0c-0.3,0-0.6,0-0.9-0.1l0,0l0,0l0,0l0,0l0,0l-0.6,0l-0.6,0l0,0l-0.6,0h0l0,0l0,0l0,0l-0.9-0.1l0,0l0,0l0,0
		l0,0l-0.6,0l0,0l-0.6,0l-0.8,0l0,0l0,0l0,0l0,0l0,0l0,0l0,0l0,0l0,0l0,0l-0.7,0l0,0l0,0l0,0l0,0l0,0h0l-0.6,0l-0.7,0l-0.8,0l-1,0
		l0,0l-0.6,0l-0.8,0l-0.6,0c-0.3,0-0.6,0-0.9,0h0l0,0l0,0h0l0,0h0l0,0l0,0h0l-0.6,0h0l-0.7,0l0,0h0l0,0h0l0,0h0l-0.8,0l0,0h0l0,0h0
		h0h0l0,0h0h0l-0.8,0l-0.6,0h0l-0.9,0h0h-0.9l-0.8,0l-0.7,0h0l-0.8,0h0l-1,0l-0.7,0l0,0l-0.6,0l0,0l-0.9,0h0l-0.8,0l-0.7,0l-0.7,0
		l-0.8,0l0,0l0,0l0,0l-0.7,0l0,0l0,0l0,0l0,0l0,0l0,0l0,0l0,0l0,0l0,0l0,0l0,0l0,0l0,0l-0.7,0l-0.6,0l-0.8,0l0,0l-0.9,0l-0.6,0h0
		l-0.7,0l0,0l-0.6,0l0,0l0,0l0,0l0,0l0,0l0,0l0,0l0,0l0,0l-0.7,0l0,0l0,0l0,0l0,0l0,0l0,0l0,0l0,0l0,0l0,0l-0.6,0l-0.6,0l0,0l0,0
		l0,0l0,0l0,0l0,0l0,0l0,0l-0.7,0.1l0,0l0,0l0,0l0,0l0,0l0,0l0,0l0,0h0l-0.5,0l-0.7,0.1l0,0l-0.5,0l0,0l0,0l0,0
		c-0.3,0-0.6,0.1-0.9,0.1l0,0l0,0l0,0l0,0l0,0l-0.5,0l0,0l-0.6,0.1l0,0l-0.5,0.1l0,0l0,0l0,0l0,0l0,0c-0.3,0-0.5,0.1-0.8,0.1l0,0
		l0,0l-0.5,0.1l-0.6,0.1l0,0l-0.5,0.1l0,0l0,0h0c-0.3,0-0.5,0.1-0.8,0.1l0,0l0,0l0,0l0,0l0,0l-0.4,0.1l0,0l-0.5,0.1l0,0l0,0l0,0l0,0
		l0,0l0,0l0,0l0,0l0,0l0,0l0,0l-0.3,0l0,0l0,0l0,0l0,0l0,0l0,0l0,0c-0.2,0-0.5,0.1-0.7,0.1l0,0l0,0l0,0l0,0l0,0l0,0l0,0l0,0l0,0
		l-0.3,0.1l0,0l0,0l0,0l0,0l0,0l0,0l0,0l0,0l0,0l0,0l0,0l0,0l-0.4,0.1l0,0l0,0l0,0l0,0l0,0l-0.3,0.1l0,0v4.3V59.5z"/>
	<g id="XMLID_30_" class="st2">
		<g id="XMLID_46_">
			<g id="XMLID_49_">
				<path id="XMLID_55_" class="st3" d="M194.4,57.5c0,6-16.7-8.2-24.8,3.2c2-9.3,4.7-11.3,9.1-14.3l-6.7-7.1
					c6.8-3.6,18.8,5,22.4-3.2V57.5z"/>
				<linearGradient id="XMLID_58_" gradientUnits="userSpaceOnUse" x1="188.5924" y1="52.4406" x2="159.3132" y2="51.4181">
					<stop  offset="0" style="stop-color:#B61D1C"/>
					<stop  offset="1" style="stop-color:#EF464C"/>
				</linearGradient>
				<path id="XMLID_54_" class="st4" d="M194.4,57.5c0,6-16.7-8.2-24.8,3.2c2-9.3,4.7-11.3,9.1-14.3l-0.2-0.2
					c6.2,0.7,13.3,3.5,15.9-2.4V57.5z"/>
				<path id="XMLID_51_" class="st5" d="M170,60.1c-0.1,0.2-0.3,0.4-0.4,0.6c1.7-9,5-11.7,9.1-14.3C176,50.7,172,52.4,170,60.1
					L170,60.1z M172.8,40.2l-0.9-0.9c6.8-3.6,18.8,5,22.4-3.2v1.3C190.9,45.2,179.7,37.6,172.8,40.2z"/>
				<path id="XMLID_50_" class="st6" d="M194.4,57.5c0,6-16.7-8.2-24.8,3.2c5.7-14.7,24.8,0.7,24.8-5.3V57.5z"/>
			</g>
			<path id="XMLID_48_" class="st3" d="M187.8,33.4l6.6,0.8v23.3c-1.4-6.8-6.6-0.3-6.6-3.6V33.4z"/>
			<path id="XMLID_47_" class="st7" d="M187.8,33.4l6.6,0.7v23.4c-0.9-7.4-6.3-0.8-6.2-4.8L187.8,33.4z"/>
		</g>
		<g id="XMLID_36_">
			<g id="XMLID_39_">
				<path id="XMLID_45_" class="st3" d="M252.7,57.5c0,6,16.7-8.2,24.8,3.2c-2-9.3-4.7-11.3-9.1-14.3l6.7-7.1
					c-6.8-3.6-18.8,5-22.4-3.2V57.5z"/>
				<linearGradient id="XMLID_59_" gradientUnits="userSpaceOnUse" x1="242.0049" y1="52.6127" x2="271.3752" y2="52.1">
					<stop  offset="0" style="stop-color:#B61D1C"/>
					<stop  offset="1" style="stop-color:#EF464C"/>
				</linearGradient>
				<path id="XMLID_44_" class="st8" d="M252.7,57.5c0,6,16.7-8.2,24.8,3.2c-2-9.3-4.7-11.3-9.1-14.3l0.2-0.2
					c-6.2,0.7-13.2,3.5-15.9-2.4V57.5z"/>
				<path id="XMLID_41_" class="st5" d="M277,60.1c0.1,0.2,0.3,0.4,0.4,0.6c-1.7-9-5-11.7-9.1-14.3C271.1,50.7,275.1,52.4,277,60.1
					L277,60.1z M274.3,40.2l0.9-0.9c-6.8-3.6-18.8,5-22.4-3.2v1.3C256.2,45.2,267.4,37.6,274.3,40.2z"/>
				<path id="XMLID_40_" class="st6" d="M252.7,57.5c0,6,16.7-8.2,24.8,3.2c-5.7-14.7-24.8,0.7-24.8-5.3V57.5z"/>
			</g>
			<path id="XMLID_38_" class="st3" d="M259.3,33.4l-6.6,0.8v23.3c1.4-6.8,6.6-0.3,6.6-3.6V33.4z"/>
			<path id="XMLID_37_" class="st7" d="M259.3,33.4l-6.6,0.7v23.4c0.9-7.4,6.3-0.8,6.2-4.8L259.3,33.4z"/>
		</g>
		<g id="XMLID_31_">
			<path id="XMLID_35_" class="st3" d="M187.8,33.4c1.1-8,70.4-8,71.5,0v20.3c-3.8-6.2-67.8-6.2-71.5,0V33.4z"/>
			<path id="XMLID_34_" class="st9" d="M259.3,41.5v12.2c-3.8-6.2-67.8-6.2-71.5,0V41.5C199.5,36.5,247.6,36.5,259.3,41.5z"/>
			<path id="XMLID_33_" class="st5" d="M187.8,33.3c1.4-7.9,70.1-7.9,71.5,0C250.5,27.4,196.6,27.4,187.8,33.3z"/>
			<path id="XMLID_32_" class="st10" d="M259.3,52.5v1.2c-3.8-6.2-67.8-6.2-71.5,0v-1.2C191.5,46.3,255.5,46.3,259.3,52.5z"/>
		</g>
	</g>
</g>
<g id="XMLID_2_" class="st0">
	<path id="XMLID_18_" class="st11" d="M205.4,33.4l0.1,9.7l2.2-0.1l-0.3-3.8c2.4-0.6,3.6-1.5,3.6-2.9c0-0.3-0.1-0.7-0.2-1
		c-0.5-1.4-1.7-2.1-3.6-2.1C206.8,33.2,206.1,33.2,205.4,33.4L205.4,33.4z M207.4,37.1l-0.1-1.9c1.1,0.3,1.6,0.5,1.6,0.9
		C208.9,36.3,208.4,36.7,207.4,37.1L207.4,37.1z M211.5,37.1l2.1,0.3c0.5-0.9,1-1.4,1.5-1.3c0.6,0,1,0.3,1.1,0.6c0,0.1,0,0.6,0,1.5
		c-0.5-0.2-1.1-0.3-1.6-0.3c-0.4,0-0.8,0.1-1.2,0.2c-0.8,0.3-1.2,0.9-1.2,1.9c0,0.1,0,0.2,0,0.4c0.1,1.2,1.5,1.9,4.2,2l0,0.4
		l2.1-0.1l0.1-2.8c0-1.2-0.1-2.2-0.3-3.2c-0.5-1.8-1.6-2.7-3.3-2.7c-0.4,0-0.7,0-1.1,0.1C212.9,34.3,212,35.3,211.5,37.1L211.5,37.1
		z M216.3,39.5l0.1,1.4c-1.3-0.3-2-0.6-1.9-1.1c0-0.3,0.3-0.5,0.9-0.5C215.6,39.4,215.9,39.4,216.3,39.5L216.3,39.5z M224.5,42.5
		l0.3-8.6h-1.9v5.3c-0.5,0.8-0.9,1.2-1.2,1.2c-0.5,0-0.8-1.4-0.8-4.1c0-0.8,0-1.6,0.1-2.6l-2,0.1c0,4.2,0.2,6.9,0.7,8.1
		c0.3,0.6,0.7,0.9,1.2,0.9c0.6,0,1.3-0.3,2.2-0.9l0.1,0.8L224.5,42.5L224.5,42.5z M224.8,42.1l1-2.2c1.2,0.8,2.2,1.2,2.9,1.2
		c0.2,0,0.5-0.1,0.7-0.2c0.3-0.2,0.4-0.4,0.4-0.6c0-0.3-0.5-0.6-1.4-0.9c-1.3-0.3-2.2-1-2.7-2.1c-0.2-0.4-0.2-0.7-0.2-1
		c0-0.6,0.3-1.2,1-1.7c0.6-0.4,1.4-0.6,2.5-0.6c0.8,0,1.7,0.1,2.7,0.3l-0.7,2.1c-0.8-0.4-1.4-0.5-1.9-0.5c-0.2,0-0.5,0.1-0.7,0.2
		c-0.3,0.1-0.4,0.3-0.4,0.5c0,0.2,0.2,0.4,0.5,0.6c0.2,0.2,0.7,0.4,1.4,0.6c0.6,0.2,1,0.5,1.3,0.7c0.4,0.3,0.6,0.8,0.6,1.4
		c0,0.9-0.4,1.8-1.3,2.5c-0.4,0.3-0.9,0.5-1.7,0.5C227.8,43,226.5,42.7,224.8,42.1L224.8,42.1z M234.3,39.2c0.2,0.8,0.8,1.3,1.6,1.3
		c0.7,0,1.3-0.4,1.5-1.2l2.3-0.3c-0.6,2.4-1.8,3.6-3.5,3.6c-0.5,0-1.1-0.1-1.8-0.4c-1.2-0.7-1.8-2.1-1.8-4.1c0-0.2,0-0.4,0-0.6
		c0.1-2.3,1.2-3.7,3.4-4c2,0,3.2,1.4,3.5,4.2L234.3,39.2L234.3,39.2z M235,36.3c-0.3,0.4-0.5,0.8-0.5,1.3l3.1-0.9
		c-0.4-0.6-0.8-1-1.3-1C235.7,35.8,235.3,35.9,235,36.3L235,36.3z M239.9,42.7l-0.4-10.3c3.4,0.9,5.3,2.1,5.5,3.6
		c0.1,0.5,0.1,1.1,0.1,1.6c0,0.8-0.1,1.5-0.4,2C244.3,40.4,242.7,41.5,239.9,42.7L239.9,42.7z M241.7,35.7l0.1,3.2
		c0.9-0.3,1.4-0.7,1.4-1.4C243.3,36.7,242.8,36.1,241.7,35.7z"/>
	<path id="XMLID_3_" class="st12" d="M242.5,41.4v-2.9c0.5-0.3,0.7-0.7,0.7-1.2c0-0.5-0.2-0.9-0.7-1.3v-2.7c1.6,0.7,2.4,1.6,2.6,2.6
		c0.1,0.5,0.1,1.1,0.1,1.6c0,0.8-0.1,1.5-0.4,2C244.5,40.1,243.7,40.7,242.5,41.4z M242.5,33.4v2.7c-0.2-0.1-0.5-0.3-0.7-0.4
		l0.1,3.2c0.3-0.1,0.5-0.2,0.7-0.3v2.9c-0.7,0.4-1.6,0.8-2.6,1.2l-0.3-7.9v-2.3C240.8,32.7,241.7,33,242.5,33.4L242.5,33.4z
		 M239.6,39.3c0-0.1,0.1-0.2,0.1-0.3l-0.1,0V39.3z M239.6,32.4v2.3V32.4L239.6,32.4L239.6,32.4z M239.6,39v0.3
		c-0.6,2.2-1.8,3.3-3.4,3.3c-0.1,0-0.1,0-0.2,0v-2.1c0.7,0,1.2-0.4,1.4-1.2L239.6,39L239.6,39z M236,38.8v-1.6l1.5-0.4
		c-0.4-0.6-0.8-1-1.3-1c-0.1,0-0.1,0-0.2,0v-2.1c2,0,3.2,1.4,3.5,4.2L236,38.8z M236,33.6v2.1c-0.4,0-0.8,0.2-1,0.5
		c-0.3,0.4-0.5,0.8-0.5,1.3l1.5-0.4v1.6l-1.7,0.5c0.2,0.8,0.8,1.3,1.6,1.3c0,0,0.1,0,0.1,0v2.1c-0.5,0-1-0.1-1.6-0.4
		c-1.2-0.7-1.8-2.1-1.8-4.1c0-0.2,0-0.4,0-0.6C232.7,35.3,233.8,34,236,33.6L236,33.6L236,33.6z M215.4,42.2v-1.6
		c0.3,0.1,0.6,0.2,1,0.3l-0.1-1.4c-0.4-0.1-0.7-0.1-0.9-0.1V38c0.3,0.1,0.6,0.1,0.8,0.2c0-0.9,0-1.4,0-1.5c-0.1-0.3-0.4-0.5-0.8-0.6
		v-2.2c1.5,0.1,2.5,1,2.9,2.6c0.3,0.9,0.4,2,0.3,3.2l-0.1,2.8l-2.1,0.1l0-0.4C216.1,42.3,215.7,42.3,215.4,42.2L215.4,42.2z
		 M224.5,42.5l0.3-8.6h-1.9v5.3c-0.5,0.8-0.9,1.2-1.2,1.2c-0.5,0-0.8-1.4-0.8-4.1c0-0.8,0-1.6,0.1-2.6l-2,0.1c0,4.2,0.2,6.9,0.7,8.1
		c0.3,0.6,0.7,0.9,1.2,0.9c0.6,0,1.3-0.3,2.2-0.9l0.1,0.8L224.5,42.5L224.5,42.5z M224.8,42.1l1-2.2c1.2,0.8,2.2,1.2,2.9,1.2
		c0.2,0,0.5-0.1,0.7-0.2c0.3-0.2,0.4-0.4,0.4-0.6c0-0.3-0.5-0.6-1.4-0.9c-1.3-0.3-2.2-1-2.7-2.1c-0.2-0.4-0.2-0.7-0.2-1
		c0-0.6,0.3-1.2,1-1.7c0.6-0.4,1.4-0.6,2.5-0.6c0.8,0,1.7,0.1,2.7,0.3l-0.7,2.1c-0.8-0.4-1.4-0.5-1.9-0.5c-0.2,0-0.5,0.1-0.7,0.2
		c-0.3,0.1-0.4,0.3-0.4,0.5c0,0.2,0.2,0.4,0.5,0.6c0.2,0.2,0.7,0.4,1.4,0.6c0.6,0.2,1,0.5,1.3,0.7c0.4,0.3,0.6,0.8,0.6,1.4
		c0,0.9-0.4,1.8-1.3,2.5c-0.4,0.3-0.9,0.5-1.7,0.5C227.8,43,226.5,42.7,224.8,42.1z M208.1,39c2-0.6,3-1.5,3-2.7
		c0-0.3-0.1-0.7-0.2-1c-0.5-1.2-1.4-1.9-2.8-2.1v2.2c0.5,0.2,0.8,0.4,0.8,0.6c0,0.2-0.3,0.5-0.8,0.8V39L208.1,39z M215.4,33.9v2.2
		c-0.1,0-0.2,0-0.3,0c-0.5,0-1,0.4-1.5,1.3l-2.1-0.3c0.6-1.8,1.4-2.8,2.5-3c0.4-0.1,0.7-0.1,1.1-0.1
		C215.1,33.9,215.3,33.9,215.4,33.9L215.4,33.9z M215.4,38v1.4l-0.1,0c-0.6,0-0.9,0.2-0.9,0.5c0,0.3,0.3,0.6,1,0.8v1.6
		c-2-0.2-3-0.9-3.1-1.9c0-0.2,0-0.3,0-0.4c0-1,0.4-1.6,1.2-1.9c0.4-0.1,0.8-0.2,1.2-0.2C214.9,37.9,215.1,37.9,215.4,38z
		 M205.4,33.4l0.1,9.7l2.2-0.1l-0.3-3.8c0.2-0.1,0.4-0.1,0.6-0.2v-2.3c-0.2,0.1-0.4,0.2-0.7,0.3l-0.1-1.9c0.3,0.1,0.6,0.2,0.8,0.2
		v-2.2c-0.2,0-0.5,0-0.7,0C206.8,33.2,206.1,33.2,205.4,33.4z"/>
</g>
<g id="XMLID_1_">
	<g>
		<g>
			<path class="st13" d="M219.3,200.9h76.4c3,0,5.5,2.7,5.5,6v119.5c0,3.3-2.5,6-5.5,6h-76.4c-3,0-5.5-2.7-5.5-6V206.9
				C213.7,203.6,216.2,200.9,219.3,200.9z"/>
			<path class="st14" d="M217.7,199h76.5c3,0,5.5,2.7,5.5,6v119.5c0,3.3-2.5,6-5.5,6h-76.5c-3,0-5.5-2.7-5.5-6V205
				C212.2,201.7,214.7,199,217.7,199z"/>
			<path class="st15" d="M217.7,197.8h76.5c3,0,5.5,2.7,5.5,6v119.5c0,3.3-2.5,6-5.5,6h-76.5c-3,0-5.5-2.7-5.5-6V203.8
				C212.2,200.5,214.7,197.8,217.7,197.8z"/>
			<path class="st14" d="M221.2,201.8h70.2c2.9,0,5.2,2.5,5.2,5.7V320c0,3.1-2.3,5.7-5.2,5.7h-70.2c-2.9,0-5.2-2.5-5.2-5.7V207.4
				C216,204.3,218.3,201.8,221.2,201.8z"/>
			<path class="st16" d="M220,201h70.4c2.9,0,5.2,2.5,5.2,5.6v111.9c0,3.1-2.3,5.6-5.2,5.6H220c-2.9,0-5.2-2.5-5.2-5.6V206.7
				C214.8,203.6,217.2,201,220,201z"/>
			<path class="st17" d="M219.9,199.6h69.4c2.8,0,5.1,2.5,5.1,5.5v110.2c0,3-2.3,5.5-5.1,5.5h-69.4c-2.8,0-5.1-2.5-5.1-5.5V205.1
				C214.8,202.1,217.1,199.6,219.9,199.6z"/>
			<g>
				<path class="st18" d="M220.8,200.3c22.6,0,45.2,0,67.8,0c2.8,0,5,2.5,5,5.5c0,36.3,0,72.6,0,108.8c0,3-2.3,5.5-5,5.5
					c-22.6,0-45.2,0-67.8,0c-2.8,0-5-2.5-5-5.5c0-36.3,0-72.6,0-108.8C215.7,202.8,218,200.3,220.8,200.3z"/>
				<path class="st19" d="M221.6,201c22,0,44.1,0,66.1,0c2.7,0,5,2.4,5,5.4c0,35.8,0,71.7,0,107.5c0,3-2.2,5.4-5,5.4
					c-22,0-44.1,0-66.1,0c-2.7,0-5-2.4-5-5.4c0-35.8,0-71.7,0-107.5C216.6,203.5,218.8,201,221.6,201z"/>
				<path class="st20" d="M222.4,201.8c21.5,0,43,0,64.5,0c2.7,0,4.9,2.4,4.9,5.3c0,35.4,0,70.8,0,106.2c0,2.9-2.2,5.3-4.9,5.3
					c-21.5,0-43,0-64.5,0c-2.7,0-4.9-2.4-4.9-5.3c0-35.4,0-70.8,0-106.2C217.5,204.2,219.7,201.8,222.4,201.8z"/>
				<path class="st21" d="M223.2,202.5c20.9,0,41.9,0,62.8,0c2.7,0,4.9,2.4,4.9,5.3c0,34.9,0,69.9,0,104.8c0,2.9-2.2,5.3-4.9,5.3
					c-20.9,0-41.9,0-62.8,0c-2.7,0-4.9-2.4-4.9-5.3c0-34.9,0-69.9,0-104.8C218.4,204.9,220.6,202.5,223.2,202.5z"/>
				<path class="st22" d="M224.1,203.2c20.4,0,40.8,0,61.2,0c2.6,0,4.8,2.3,4.8,5.2c0,34.5,0,69,0,103.5c0,2.9-2.2,5.2-4.8,5.2
					c-20.4,0-40.8,0-61.2,0c-2.6,0-4.8-2.3-4.8-5.2c0-34.5,0-69,0-103.5C219.3,205.6,221.4,203.2,224.1,203.2z"/>
				<path class="st23" d="M224.9,204c19.8,0,39.7,0,59.5,0c2.6,0,4.7,2.3,4.7,5.1c0,34,0,68.1,0,102.1c0,2.8-2.1,5.1-4.7,5.1
					c-19.8,0-39.7,0-59.5,0c-2.6,0-4.7-2.3-4.7-5.1c0-34,0-68.1,0-102.1C220.1,206.3,222.3,204,224.9,204z"/>
				<path class="st24" d="M225.7,204.7c19.3,0,38.6,0,57.9,0c2.6,0,4.7,2.3,4.7,5.1c0,33.6,0,67.2,0,100.8c0,2.8-2.1,5.1-4.7,5.1
					c-19.3,0-38.6,0-57.9,0c-2.6,0-4.7-2.3-4.7-5.1c0-33.6,0-67.2,0-100.8C221,207,223.1,204.7,225.7,204.7z"/>
				<path class="st25" d="M226.5,205.5c18.7,0,37.5,0,56.2,0c2.5,0,4.6,2.2,4.6,5c0,33.2,0,66.3,0,99.5c0,2.7-2.1,5-4.6,5
					c-18.7,0-37.5,0-56.2,0c-2.5,0-4.6-2.2-4.6-5c0-33.2,0-66.3,0-99.5C221.9,207.7,224,205.5,226.5,205.5z"/>
				<path class="st26" d="M227.4,206.2c18.2,0,36.4,0,54.6,0c2.5,0,4.5,2.2,4.5,4.9c0,32.7,0,65.4,0,98.1c0,2.7-2,4.9-4.5,4.9
					c-18.2,0-36.4,0-54.6,0c-2.5,0-4.5-2.2-4.5-4.9c0-32.7,0-65.4,0-98.1C222.8,208.4,224.9,206.2,227.4,206.2z"/>
				<path class="st27" d="M228.2,206.9c17.6,0,35.3,0,52.9,0c2.5,0,4.5,2.2,4.5,4.9c0,32.3,0,64.5,0,96.8c0,2.7-2,4.9-4.5,4.9
					c-17.6,0-35.3,0-52.9,0c-2.5,0-4.5-2.2-4.5-4.9c0-32.3,0-64.5,0-96.8C223.7,209.1,225.7,206.9,228.2,206.9z"/>
			</g>
			<path class="st28" d="M229,207.7h51.3c2.4,0,4.4,2.2,4.4,4.8v95.4c0,2.6-2,4.8-4.4,4.8H229c-2.4,0-4.4-2.2-4.4-4.8v-95.4
				C224.6,209.8,226.6,207.7,229,207.7z"/>
			<ellipse class="st15" cx="290.1" cy="315.5" rx="2.8" ry="3"/>
			<ellipse class="st15" cx="285.8" cy="317.2" rx="1.5" ry="1.6"/>
			<ellipse class="st15" cx="220.3" cy="205.7" rx="4.3" ry="4.7"/>
			<ellipse class="st15" cx="227" cy="203" rx="2.4" ry="2.6"/>
		</g>
		<g>
			<path class="st29" d="M223.2,209.3h62.5c2.6,0,4.7,2.5,4.7,5.6v94.3c0,3.1-2.1,5.6-4.7,5.6h-62.5c-2.6,0-4.7-2.5-4.7-5.6v-94.3
				C218.5,211.9,220.6,209.3,223.2,209.3z"/>
			<path class="st16" d="M224.9,212h59c2.5,0,4.5,2.4,4.5,5.4v91c0,3-2,5.4-4.5,5.4h-59c-2.5,0-4.5-2.4-4.5-5.4v-91
				C220.4,214.5,222.4,212,224.9,212z"/>
			<g>
				<path class="st30" d="M225.1,213.1c19.5,0,39.1,0,58.6,0c2.5,0,4.5,2.4,4.5,5.3c0,30,0,60,0,90c0,2.9-2,5.3-4.5,5.3
					c-19.5,0-39.1,0-58.6,0c-2.5,0-4.5-2.4-4.5-5.3c0-30,0-60,0-90C220.6,215.5,222.7,213.1,225.1,213.1z"/>
				<path class="st31" d="M225.3,214.1c19.4,0,38.8,0,58.2,0c2.4,0,4.4,2.4,4.4,5.3c0,29.7,0,59.3,0,89c0,2.9-2,5.3-4.4,5.3
					c-19.4,0-38.8,0-58.2,0c-2.4,0-4.4-2.4-4.4-5.3c0-29.7,0-59.3,0-89C220.9,216.5,222.9,214.1,225.3,214.1z"/>
				<path class="st32" d="M225.5,215.1c19.3,0,38.5,0,57.8,0c2.4,0,4.4,2.4,4.4,5.2c0,29.3,0,58.6,0,87.9c0,2.9-2,5.2-4.4,5.2
					c-19.3,0-38.5,0-57.8,0c-2.4,0-4.4-2.3-4.4-5.2c0-29.3,0-58.6,0-87.9C221.2,217.5,223.1,215.1,225.5,215.1z"/>
				<path class="st33" d="M225.7,216.2c19.1,0,38.2,0,57.4,0c2.4,0,4.3,2.3,4.3,5.2c0,29,0,57.9,0,86.9c0,2.8-2,5.2-4.3,5.2
					c-19.1,0-38.2,0-57.4,0c-2.4,0-4.3-2.3-4.3-5.2c0-29,0-57.9,0-86.9C221.4,218.5,223.4,216.2,225.7,216.2z"/>
				<path class="st34" d="M226,217.2c19,0,38,0,57,0c2.4,0,4.3,2.3,4.3,5.1c0,28.6,0,57.3,0,85.9c0,2.8-1.9,5.1-4.3,5.1
					c-19,0-38,0-57,0c-2.4,0-4.3-2.3-4.3-5.1c0-28.6,0-57.3,0-85.9C221.7,219.5,223.6,217.2,226,217.2z"/>
				<path class="st35" d="M226.2,218.2c18.8,0,37.7,0,56.5,0c2.3,0,4.2,2.3,4.2,5c0,28.3,0,56.6,0,84.9c0,2.8-1.9,5-4.2,5
					c-18.8,0-37.7,0-56.5,0c-2.3,0-4.2-2.3-4.2-5c0-28.3,0-56.6,0-84.9C221.9,220.5,223.8,218.2,226.2,218.2z"/>
				<path class="st36" d="M226.4,219.3c18.7,0,37.4,0,56.1,0c2.3,0,4.2,2.2,4.2,5c0,27.9,0,55.9,0,83.8c0,2.7-1.9,5-4.2,5
					c-18.7,0-37.4,0-56.1,0c-2.3,0-4.2-2.2-4.2-5c0-27.9,0-55.9,0-83.8C222.2,221.5,224.1,219.3,226.4,219.3z"/>
				<path class="st37" d="M226.6,220.3c18.6,0,37.2,0,55.7,0c2.3,0,4.1,2.2,4.1,4.9c0,27.6,0,55.2,0,82.8c0,2.7-1.9,4.9-4.1,4.9
					c-18.6,0-37.2,0-55.7,0c-2.3,0-4.1-2.2-4.1-4.9c0-27.6,0-55.2,0-82.8C222.4,222.5,224.3,220.3,226.6,220.3z"/>
				<path class="st38" d="M226.8,221.3c18.4,0,36.9,0,55.3,0c2.2,0,4.1,2.2,4.1,4.9c0,27.3,0,54.5,0,81.8c0,2.7-1.8,4.9-4.1,4.9
					c-18.4,0-36.9,0-55.3,0c-2.2,0-4.1-2.2-4.1-4.9c0-27.3,0-54.5,0-81.8C222.7,223.5,224.5,221.3,226.8,221.3z"/>
				<path class="st39" d="M227,222.4c18.3,0,36.6,0,54.9,0c2.2,0,4,2.2,4,4.8c0,26.9,0,53.9,0,80.8c0,2.6-1.8,4.8-4,4.8
					c-18.3,0-36.6,0-54.9,0c-2.2,0-4-2.2-4-4.8c0-26.9,0-53.9,0-80.8C222.9,224.5,224.8,222.4,227,222.4z"/>
			</g>
			<path class="st40" d="M227.2,223.4h54.5c2.2,0,4,2.1,4,4.7v79.8c0,2.6-1.8,4.7-4,4.7h-54.5c-2.2,0-4-2.1-4-4.7v-79.8
				C223.2,225.5,225,223.4,227.2,223.4z"/>
		</g>
		<g>
			<path class="st13" d="M226.5,213.3c0,0.1,0,0.2,0,0.3c0,0,0,0,0,0c0,0.1,0,0.1,0,0.2c0,0,0,0.1,0,0.1c0,0,0,0.1,0,0.1
				c0,0,0,0.1,0,0.1c0,0,0,0.1,0,0.1c0,0,0,0,0,0.1c0,0,0,0.1-0.1,0.1c0,0,0,0-0.1,0.1c0,0,0,0.1-0.1,0.1c0,0,0,0-0.1,0.1
				c0,0-0.1,0-0.1,0.1c0,0-0.1,0-0.1,0c0,0-0.1,0-0.1,0c0,0-0.1,0-0.1,0c0,0-0.1,0-0.1,0c0,0-0.1,0-0.1,0c0,0-0.1,0-0.1,0
				c0,0-0.1,0-0.1,0c0,0-0.1,0-0.1,0c0,0-0.1,0-0.1,0c0,0-0.1,0-0.1,0c0,0-0.1,0-0.1,0c-0.1,0-0.1,0-0.2,0l-0.1,0
				c-0.1,0-0.1,0-0.2,0l-0.1,0c-0.1,0-0.1,0-0.2,0l-0.1,0c-0.1,0-0.1,0-0.2,0l-0.1,0c-0.1,0-0.1,0-0.2,0l-0.1,0c-0.1,0-0.1,0-0.2,0
				l-0.1,0c-0.1,0-0.2,0-0.2-0.1l-0.1,0l-0.3-0.1l-0.1,0c-2.3-0.6-5.2-1.7-8.3-2.2l0,0c-0.5-0.1-1-0.1-1.5-0.2l0,0
				c-0.2,0-0.3,0-0.5,0l0,0c-0.2,0-0.3,0-0.5,0l0,0c-3.4-0.1-6.7,0.8-9.3,4l0,0l-0.1,0.1l0,0l0,0c-0.1,0.1-0.2,0.3-0.3,0.5
				c1.7-9,5-11.7,9.1-14.3l-0.2-0.2l-0.5-0.5h91.1l-0.5,0.5l-0.2,0.2c4.1,2.6,7.3,5.3,9.1,14.3c-0.1-0.2-0.2-0.3-0.3-0.5l0,0l0,0
				l-0.1-0.1l0,0c-2.6-3.2-5.9-4.1-9.3-4l0,0c-0.2,0-0.3,0-0.5,0l0,0c-0.2,0-0.3,0-0.5,0l0,0c-0.5,0-1,0.1-1.5,0.2l0,0
				c-3.1,0.5-6.1,1.6-8.3,2.2l-0.1,0l-0.3,0.1l-0.1,0c-0.1,0-0.2,0-0.2,0.1l-0.1,0c-0.1,0-0.1,0-0.2,0l-0.1,0c-0.1,0-0.1,0-0.2,0
				l-0.1,0c-0.1,0-0.1,0-0.2,0l-0.1,0c-0.1,0-0.1,0-0.2,0l-0.1,0c-0.1,0-0.1,0-0.2,0l-0.1,0c-0.1,0-0.1,0-0.2,0c0,0-0.1,0-0.1,0
				c0,0-0.1,0-0.1,0c0,0-0.1,0-0.1,0c0,0-0.1,0-0.1,0c0,0-0.1,0-0.1,0c0,0-0.1,0-0.1,0c0,0-0.1,0-0.1,0c0,0-0.1,0-0.1,0
				c0,0-0.1,0-0.1,0c0,0-0.1,0-0.1,0c0,0-0.1,0-0.1,0c0,0-0.1,0-0.1-0.1c0,0,0,0-0.1-0.1c0,0,0-0.1-0.1-0.1c0,0,0,0-0.1-0.1
				c0,0,0-0.1-0.1-0.1c0,0,0,0,0-0.1c0,0,0-0.1,0-0.1c0,0,0-0.1,0-0.1c0,0,0-0.1,0-0.1c0,0,0-0.1,0-0.1c0-0.1,0-0.1,0-0.2
				c0,0,0,0,0,0c0-0.1,0-0.2,0-0.3v-2.1v-4.3l0,0l0,0l0,0l0,0l-0.2,0l0,0l0,0l0,0l0,0l0,0l0,0l0,0l0,0l0,0l0,0l0,0l0,0l0,0l0,0l0,0
				l0,0l0,0l0,0l0,0l0,0l0,0l0,0l0,0l0,0l-0.5-0.1l0,0l0,0l0,0l0,0l0,0l-0.4-0.1l0,0l0,0c-0.2,0-0.5-0.1-0.7-0.1l0,0l0,0l0,0
				l-0.4-0.1l0,0l0,0l0,0l0,0l0,0l0,0l0,0l-0.4-0.1l0,0l0,0l0,0l0,0l0,0l0,0l0,0l0,0l0,0l0,0l0,0l0,0l0,0l0,0l-0.4-0.1l0,0l0,0l0,0
				l0,0l0,0c-0.2,0-0.5-0.1-0.8-0.1l0,0l0,0l0,0l0,0l-0.4-0.1l-0.6-0.1l-0.4-0.1l0,0l0,0l0,0l0,0c-0.3,0-0.6-0.1-0.8-0.1l0,0l0,0
				l0,0l0,0l-0.4,0l0,0l0,0l0,0l0,0l0,0l0,0l0,0l0,0l0,0l0,0l0,0l0,0l-0.4,0l0,0l0,0l0,0l0,0l0,0l0,0l0,0l0,0l0,0l-0.5,0l0,0l0,0
				l0,0l0,0c-0.3,0-0.6-0.1-0.9-0.1l0,0l0,0l0,0l0,0l-0.5,0l0,0l-0.7-0.1l0,0l-0.5,0l0,0l0,0l0,0l0,0c-0.3,0-0.6,0-0.9-0.1l0,0l0,0
				l0,0l0,0l0,0l-0.6,0l-0.6,0l0,0l-0.6,0l0,0l0,0l0,0l0,0l-0.9-0.1l0,0l0,0l0,0l0,0l-0.6,0l0,0l-0.6,0l-0.8,0l0,0l0,0l0,0l0,0l0,0
				l0,0l0,0l0,0l0,0l0,0l-0.7,0l0,0l0,0l0,0h0l0,0l0,0l-0.6,0l-0.7,0l-0.8,0l-1,0l0,0l-0.6,0l-0.8,0l-0.6,0c-0.3,0-0.6,0-0.9,0h0
				l0,0h0h0l0,0l0,0l0,0h0h0l-0.6,0h0l-0.7,0l0,0h0h0l0,0h0l0,0l-0.8,0h0h0l0,0l0,0h0h0h0h0l0,0l-0.8,0l-0.6,0h0l-0.9,0h0l-0.9,0
				l-0.8,0l-0.7,0h0l-0.8,0l0,0l-1,0l-0.7,0l0,0l-0.6,0l0,0l-0.9,0h0l-0.8,0l-0.7,0l-0.7,0l-0.8,0l0,0l0,0h0l-0.7,0l0,0l0,0l0,0l0,0
				l0,0l0,0h0l0,0l0,0l0,0l0,0l0,0l0,0l0,0l-0.7,0l-0.6,0l-0.8,0l0,0l-0.9,0l-0.6,0h0l-0.7,0l0,0l-0.6,0l0,0l0,0l0,0l0,0l0,0l0,0
				l0,0l0,0l0,0l-0.7,0l0,0l0,0l0,0l0,0l0,0l0,0l0,0l0,0l0,0l0,0l-0.6,0l-0.6,0l0,0l0,0l0,0l0,0l0,0l0,0l0,0l0,0l-0.7,0.1l0,0l0,0
				l0,0l0,0l0,0l0,0l0,0l0,0h0l-0.5,0l-0.7,0.1l0,0l-0.5,0l0,0l0,0l0,0c-0.3,0-0.6,0.1-0.9,0.1l0,0l0,0l0,0l0,0l0,0l-0.5,0l0,0
				l-0.6,0.1l0,0l-0.5,0.1l0,0l0,0l0,0l0,0l0,0c-0.3,0-0.5,0.1-0.8,0.1l0,0l0,0l-0.5,0.1l-0.6,0.1h0l-0.5,0.1l0,0l0,0l0,0
				c-0.3,0-0.5,0.1-0.8,0.1l0,0l0,0l0,0l0,0l0,0l-0.4,0.1l0,0l-0.5,0.1l0,0l0,0l0,0l0,0l0,0l0,0l0,0l0,0l0,0l0,0l0,0l-0.3,0l0,0l0,0
				l0,0l0,0l0,0l0,0l0,0c-0.2,0-0.5,0.1-0.7,0.1l0,0l0,0l0,0l0,0l0,0l0,0l0,0l0,0l0,0l-0.3,0.1l0,0l0,0l0,0l0,0l0,0l0,0l0,0l0,0l0,0
				l0,0l0,0l0,0l-0.4,0.1l0,0l0,0l0,0l0,0l0,0l-0.3,0.1l0,0v4.3V213.3z"/>
			<g>
				<g>
					<g>
						<path class="st3" d="M226.5,211.2c0,6-16.7-8.2-24.8,3.2c2-9.3,4.7-11.3,9.1-14.3l-6.7-7.1c6.8-3.6,18.8,5,22.4-3.2V211.2z"/>
						<linearGradient id="SVGID_1_" gradientUnits="userSpaceOnUse" x1="220.7622" y1="206.1861" x2="191.4832" y2="205.1636">
							<stop  offset="0" style="stop-color:#B61D1C"/>
							<stop  offset="1" style="stop-color:#EF464C"/>
						</linearGradient>
						<path class="st41" d="M226.5,211.2c0,6-16.7-8.2-24.8,3.2c2-9.3,4.7-11.3,9.1-14.3l-0.2-0.2c6.2,0.7,13.2,3.5,15.9-2.4V211.2z
							"/>
						<path class="st5" d="M202.2,213.8c-0.1,0.2-0.3,0.4-0.4,0.6c1.7-9,5-11.7,9.1-14.3C208.2,204.4,204.1,206.1,202.2,213.8
							L202.2,213.8z M205,193.9l-0.9-0.9c6.8-3.6,18.8,5,22.4-3.2v1.3C223.1,198.9,211.9,191.4,205,193.9z"/>
						<path class="st6" d="M226.5,211.2c0,6-16.7-8.2-24.8,3.2c5.7-14.7,24.8,0.7,24.8-5.3V211.2z"/>
					</g>
					<path class="st3" d="M220,187.1l6.6,0.8v23.3c-1.4-6.8-6.6-0.3-6.6-3.6V187.1z"/>
					<path class="st7" d="M220,187.1l6.6,0.7v23.4c-0.9-7.4-6.3-0.8-6.2-4.8L220,187.1z"/>
				</g>
				<g>
					<g>
						<path class="st3" d="M284.9,211.2c0,6,16.7-8.2,24.8,3.2c-2-9.3-4.7-11.3-9.1-14.3l6.7-7.1c-6.8-3.6-18.8,5-22.4-3.2V211.2z"
							/>
						<linearGradient id="SVGID_2_" gradientUnits="userSpaceOnUse" x1="274.1748" y1="206.3582" x2="303.545" y2="205.8455">
							<stop  offset="0" style="stop-color:#B61D1C"/>
							<stop  offset="1" style="stop-color:#EF464C"/>
						</linearGradient>
						<path class="st42" d="M284.9,211.2c0,6,16.7-8.2,24.8,3.2c-2-9.3-4.7-11.3-9.1-14.3l0.2-0.2c-6.2,0.7-13.2,3.5-15.9-2.4V211.2
							z"/>
						<path class="st5" d="M309.2,213.8c0.1,0.2,0.3,0.4,0.4,0.6c-1.7-9-5-11.7-9.1-14.3C303.3,204.4,307.3,206.1,309.2,213.8
							L309.2,213.8z M306.4,193.9l0.9-0.9c-6.8-3.6-18.8,5-22.4-3.2v1.3C288.3,198.9,299.6,191.4,306.4,193.9z"/>
						<path class="st6" d="M284.9,211.2c0,6,16.7-8.2,24.8,3.2c-5.7-14.7-24.8,0.7-24.8-5.3V211.2z"/>
					</g>
					<path class="st3" d="M291.5,187.1l-6.6,0.8v23.3c1.4-6.8,6.6-0.3,6.6-3.6V187.1z"/>
					<path class="st7" d="M291.5,187.1l-6.6,0.7v23.4c0.9-7.4,6.3-0.8,6.2-4.8L291.5,187.1z"/>
				</g>
				<g>
					<path class="st3" d="M220,187.1c1.1-8,70.4-8,71.5,0v20.3c-3.8-6.2-67.8-6.2-71.5,0V187.1z"/>
					<path class="st9" d="M291.5,195.2v12.2c-3.8-6.2-67.8-6.2-71.5,0v-12.2C231.6,190.2,279.8,190.2,291.5,195.2z"/>
					<path class="st5" d="M220,187.1c1.4-7.9,70.1-7.9,71.5,0C282.7,181.1,228.8,181.1,220,187.1z"/>
					<path class="st10" d="M291.5,206.3v1.2c-3.8-6.2-67.8-6.2-71.5,0v-1.2C223.7,200.1,287.7,200.1,291.5,206.3z"/>
				</g>
			</g>
		</g>
	</g>
	<g>
		<path class="st43" d="M234.7,187.2l0.1,9.7l2.2-0.1l-0.3-3.8c2.4-0.6,3.6-1.5,3.6-2.9c0-0.3-0.1-0.7-0.2-1
			c-0.5-1.4-1.7-2.1-3.6-2.1C236.1,187,235.4,187.1,234.7,187.2L234.7,187.2z M236.7,190.9l-0.1-1.9c1.1,0.3,1.6,0.5,1.6,0.9
			C238.2,190.1,237.7,190.5,236.7,190.9L236.7,190.9z M240.8,190.9l2.1,0.3c0.5-0.9,1-1.4,1.5-1.3c0.6,0,1,0.3,1.1,0.6
			c0,0.1,0,0.6,0,1.5c-0.5-0.2-1.1-0.3-1.6-0.3c-0.4,0-0.8,0.1-1.2,0.2c-0.8,0.3-1.2,0.9-1.2,1.9c0,0.1,0,0.2,0,0.4
			c0.1,1.2,1.5,1.9,4.2,2l0,0.4l2.1-0.1l0.1-2.8c0-1.2-0.1-2.2-0.3-3.2c-0.5-1.8-1.6-2.7-3.3-2.7c-0.4,0-0.7,0-1.1,0.1
			C242.2,188.1,241.3,189.1,240.8,190.9L240.8,190.9z M245.6,193.3l0.1,1.4c-1.3-0.3-2-0.6-1.9-1.1c0-0.3,0.3-0.5,0.9-0.5
			C244.9,193.2,245.2,193.2,245.6,193.3L245.6,193.3z M253.8,196.3l0.3-8.6h-1.9v5.3c-0.5,0.8-0.9,1.2-1.2,1.2
			c-0.5,0-0.8-1.4-0.8-4.1c0-0.8,0-1.6,0.1-2.6l-2,0.1c0,4.2,0.2,6.9,0.7,8.1c0.3,0.6,0.7,0.9,1.2,0.9c0.6,0,1.3-0.3,2.2-0.9
			l0.1,0.8L253.8,196.3L253.8,196.3z M254.1,195.9l1-2.2c1.2,0.8,2.2,1.2,2.9,1.2c0.2,0,0.5-0.1,0.7-0.2c0.3-0.2,0.4-0.4,0.4-0.6
			c0-0.3-0.5-0.6-1.4-0.9c-1.3-0.3-2.2-1-2.7-2.1c-0.2-0.4-0.2-0.7-0.2-1c0-0.6,0.3-1.2,1-1.7c0.6-0.4,1.4-0.6,2.5-0.6
			c0.8,0,1.7,0.1,2.7,0.3l-0.7,2.1c-0.8-0.4-1.4-0.5-1.9-0.5c-0.2,0-0.5,0.1-0.7,0.2c-0.3,0.1-0.4,0.3-0.4,0.5
			c0,0.2,0.2,0.4,0.5,0.6c0.2,0.2,0.7,0.4,1.4,0.6c0.6,0.2,1,0.5,1.3,0.7c0.4,0.3,0.6,0.8,0.6,1.4c0,0.9-0.4,1.8-1.3,2.5
			c-0.4,0.3-0.9,0.5-1.7,0.5C257.1,196.8,255.8,196.5,254.1,195.9L254.1,195.9z M263.6,193.1c0.2,0.8,0.8,1.3,1.6,1.3
			c0.7,0,1.3-0.4,1.5-1.2l2.3-0.3c-0.6,2.4-1.8,3.6-3.5,3.6c-0.5,0-1.1-0.1-1.8-0.4c-1.2-0.7-1.8-2.1-1.8-4.1c0-0.2,0-0.4,0-0.6
			c0.1-2.3,1.2-3.7,3.4-4c2,0,3.2,1.4,3.5,4.2L263.6,193.1L263.6,193.1z M264.3,190.1c-0.3,0.4-0.5,0.8-0.5,1.3l3.1-0.9
			c-0.4-0.6-0.8-1-1.3-1C265,189.6,264.6,189.8,264.3,190.1L264.3,190.1z M269.2,196.5l-0.4-10.3c3.4,0.9,5.3,2.1,5.5,3.6
			c0.1,0.5,0.1,1.1,0.1,1.6c0,0.8-0.1,1.5-0.4,2C273.6,194.3,272,195.3,269.2,196.5L269.2,196.5z M271,189.5l0.1,3.2
			c0.9-0.3,1.4-0.7,1.4-1.4C272.6,190.5,272.1,189.9,271,189.5z"/>
		<path class="st15" d="M271.8,195.3v-2.9c0.5-0.3,0.7-0.7,0.7-1.2c0-0.5-0.2-0.9-0.7-1.3v-2.7c1.6,0.7,2.4,1.6,2.6,2.6
			c0.1,0.5,0.1,1.1,0.1,1.6c0,0.8-0.1,1.5-0.4,2C273.8,193.9,273,194.6,271.8,195.3z M271.8,187.2v2.7c-0.2-0.1-0.5-0.3-0.7-0.4
			l0.1,3.2c0.3-0.1,0.5-0.2,0.7-0.3v2.9c-0.7,0.4-1.6,0.8-2.6,1.2l-0.3-7.9v-2.3C270.1,186.5,271,186.9,271.8,187.2L271.8,187.2z
			 M268.9,193.2c0-0.1,0.1-0.2,0.1-0.3l-0.1,0V193.2z M268.9,186.2v2.3V186.2L268.9,186.2L268.9,186.2z M268.9,192.9v0.3
			c-0.6,2.2-1.8,3.3-3.4,3.3c-0.1,0-0.1,0-0.2,0v-2.1c0.7,0,1.2-0.4,1.4-1.2L268.9,192.9L268.9,192.9z M265.3,192.6V191l1.5-0.4
			c-0.4-0.6-0.8-1-1.3-1c-0.1,0-0.1,0-0.2,0v-2.1c2,0,3.2,1.4,3.5,4.2L265.3,192.6z M265.3,187.4v2.1c-0.4,0-0.8,0.2-1,0.5
			c-0.3,0.4-0.5,0.8-0.5,1.3l1.5-0.4v1.6l-1.7,0.5c0.2,0.8,0.8,1.3,1.6,1.3c0,0,0.1,0,0.1,0v2.1c-0.5,0-1-0.1-1.6-0.4
			c-1.2-0.7-1.8-2.1-1.8-4.1c0-0.2,0-0.4,0-0.6C262,189.2,263.1,187.8,265.3,187.4L265.3,187.4L265.3,187.4z M244.7,196.1v-1.6
			c0.3,0.1,0.6,0.2,1,0.3l-0.1-1.4c-0.4-0.1-0.7-0.1-0.9-0.1v-1.4c0.3,0.1,0.6,0.1,0.8,0.2c0-0.9,0-1.4,0-1.5
			c-0.1-0.3-0.4-0.5-0.8-0.6v-2.2c1.5,0.1,2.5,1,2.9,2.6c0.3,0.9,0.4,2,0.3,3.2l-0.1,2.8l-2.1,0.1l0-0.4
			C245.4,196.1,245,196.1,244.7,196.1L244.7,196.1z M253.8,196.3l0.3-8.6h-1.9v5.3c-0.5,0.8-0.9,1.2-1.2,1.2c-0.5,0-0.8-1.4-0.8-4.1
			c0-0.8,0-1.6,0.1-2.6l-2,0.1c0,4.2,0.2,6.9,0.7,8.1c0.3,0.6,0.7,0.9,1.2,0.9c0.6,0,1.3-0.3,2.2-0.9l0.1,0.8L253.8,196.3
			L253.8,196.3z M254.1,195.9l1-2.2c1.2,0.8,2.2,1.2,2.9,1.2c0.2,0,0.5-0.1,0.7-0.2c0.3-0.2,0.4-0.4,0.4-0.6c0-0.3-0.5-0.6-1.4-0.9
			c-1.3-0.3-2.2-1-2.7-2.1c-0.2-0.4-0.2-0.7-0.2-1c0-0.6,0.3-1.2,1-1.7c0.6-0.4,1.4-0.6,2.5-0.6c0.8,0,1.7,0.1,2.7,0.3l-0.7,2.1
			c-0.8-0.4-1.4-0.5-1.9-0.5c-0.2,0-0.5,0.1-0.7,0.2c-0.3,0.1-0.4,0.3-0.4,0.5c0,0.2,0.2,0.4,0.5,0.6c0.2,0.2,0.7,0.4,1.4,0.6
			c0.6,0.2,1,0.5,1.3,0.7c0.4,0.3,0.6,0.8,0.6,1.4c0,0.9-0.4,1.8-1.3,2.5c-0.4,0.3-0.9,0.5-1.7,0.5
			C257.1,196.8,255.8,196.5,254.1,195.9z M237.4,192.8c2-0.6,3-1.5,3-2.7c0-0.3-0.1-0.7-0.2-1c-0.5-1.2-1.4-1.9-2.8-2.1v2.2
			c0.5,0.2,0.8,0.4,0.8,0.6c0,0.2-0.3,0.5-0.8,0.8V192.8L237.4,192.8z M244.7,187.8v2.2c-0.1,0-0.2,0-0.3,0c-0.5,0-1,0.4-1.5,1.3
			l-2.1-0.3c0.6-1.8,1.4-2.8,2.5-3c0.4-0.1,0.7-0.1,1.1-0.1C244.5,187.8,244.6,187.8,244.7,187.8L244.7,187.8z M244.7,191.8v1.4
			l-0.1,0c-0.6,0-0.9,0.2-0.9,0.5c0,0.3,0.3,0.6,1,0.8v1.6c-2-0.2-3-0.9-3.1-1.9c0-0.2,0-0.3,0-0.4c0-1,0.4-1.6,1.2-1.9
			c0.4-0.1,0.8-0.2,1.2-0.2C244.2,191.7,244.4,191.7,244.7,191.8z M234.7,187.2l0.1,9.7l2.2-0.1l-0.3-3.8c0.2-0.1,0.4-0.1,0.6-0.2
			v-2.3c-0.2,0.1-0.4,0.2-0.7,0.3l-0.1-1.9c0.3,0.1,0.6,0.2,0.8,0.2V187c-0.2,0-0.5,0-0.7,0C236.1,187,235.4,187.1,234.7,187.2z"/>
	</g>
</g>
</svg>
