<?xml version="1.0" encoding="utf-8"?>
<!-- Generator: Adobe Illustrator 19.0.0, SVG Export Plug-In . SVG Version: 6.00 Build 0)  -->
<svg version="1.1" id="Layer_1" xmlns="http://www.w3.org/2000/svg" xmlns:xlink="http://www.w3.org/1999/xlink" x="0px" y="0px"
	 viewBox="0 0 512 512" style="enable-background:new 0 0 512 512;" xml:space="preserve">
<style type="text/css">
	.st0{display:none;}
	.st1{display:inline;}
	.st2{opacity:0.1;fill-rule:evenodd;clip-rule:evenodd;}
	.st3{fill-rule:evenodd;clip-rule:evenodd;fill:#E5E5E5;}
	.st4{fill-rule:evenodd;clip-rule:evenodd;fill:#FFFFFF;}
	.st5{fill-rule:evenodd;clip-rule:evenodd;fill:#00AFDB;}
	.st6{fill-rule:evenodd;clip-rule:evenodd;fill:#98FFFF;}
	.st7{fill-rule:evenodd;clip-rule:evenodd;fill:#8AF9FF;}
	.st8{fill-rule:evenodd;clip-rule:evenodd;fill:#7DF5FF;}
	.st9{fill-rule:evenodd;clip-rule:evenodd;fill:#6FF0FF;}
	.st10{fill-rule:evenodd;clip-rule:evenodd;fill:#61EBFF;}
	.st11{fill-rule:evenodd;clip-rule:evenodd;fill:#53E7FF;}
	.st12{fill-rule:evenodd;clip-rule:evenodd;fill:#46E2FF;}
	.st13{fill-rule:evenodd;clip-rule:evenodd;fill:#38DEFF;}
	.st14{fill-rule:evenodd;clip-rule:evenodd;fill:#2AD9FF;}
	.st15{fill-rule:evenodd;clip-rule:evenodd;fill:#1CD4FF;}
	.st16{fill-rule:evenodd;clip-rule:evenodd;fill:#0ED0FF;}
	.st17{fill-rule:evenodd;clip-rule:evenodd;fill:#00CBFF;}
	.st18{opacity:0.29;fill-rule:evenodd;clip-rule:evenodd;fill:#FFFFFF;}
	.st19{fill-rule:evenodd;clip-rule:evenodd;fill:none;stroke:#00AFDB;stroke-width:1.262;stroke-miterlimit:22.9256;}
	.st20{fill-rule:evenodd;clip-rule:evenodd;}
</style>
<g id="XMLID_408_" class="st0">
	<g id="XMLID_416_" class="st1">
		<path id="XMLID_438_" class="st2" d="M95.6,154.3c5.3-0.9,10.6-1,15.8,0c1.7,0.3,2.8,1.4,3.1,3.1c1,5.3,1,10.5,0,15.8
			c-0.3,1.7-1.4,2.9-3.1,3.1c-5.2,0.5-10.5,0.5-15.8,0c-1.7-0.1-2.9-1.4-3.1-3.1c-0.6-5.3-0.7-10.5,0-15.8
			C92.8,155.6,93.9,154.5,95.6,154.3z"/>
		<path id="XMLID_437_" class="st3" d="M95.1,153.1c5.3-0.9,10.6-1,15.8,0c1.7,0.3,2.8,1.4,3.1,3.1c1,5.3,1,10.5,0,15.8
			c-0.3,1.7-1.4,2.9-3.1,3.1c-5.2,0.5-10.5,0.5-15.8,0c-1.7-0.1-2.9-1.4-3.1-3.1c-0.6-5.3-0.7-10.5,0-15.8
			C92.2,154.5,93.4,153.4,95.1,153.1z"/>
		<path id="XMLID_436_" class="st4" d="M95.1,152.5c5.3-0.9,10.6-1,15.8,0c1.7,0.3,2.8,1.4,3.1,3.1c1,5.3,1,10.5,0,15.8
			c-0.3,1.7-1.4,2.9-3.1,3.1c-5.2,0.5-10.5,0.5-15.8,0c-1.7-0.1-2.9-1.4-3.1-3.1c-0.6-5.3-0.7-10.5,0-15.8
			C92.2,153.9,93.4,152.8,95.1,152.5z"/>
		<path id="XMLID_435_" class="st3" d="M96.3,154c4.8-0.8,9.5-0.9,14.1,0c1.5,0.3,2.5,1.3,2.8,2.8c0.9,4.7,0.9,9.4,0,14.1
			c-0.3,1.5-1.2,2.6-2.8,2.8c-4.7,0.4-9.4,0.4-14.1,0c-1.5-0.1-2.6-1.2-2.8-2.8c-0.5-4.7-0.6-9.4,0-14.1
			C93.7,155.3,94.8,154.3,96.3,154z"/>
		<path id="XMLID_434_" class="st5" d="M95.9,153.6c4.8-0.8,9.5-0.9,14.1,0c1.5,0.3,2.5,1.3,2.8,2.8c0.9,4.7,0.9,9.4,0,14.1
			c-0.3,1.5-1.2,2.6-2.8,2.8c-4.7,0.4-9.4,0.4-14.1,0c-1.5-0.1-2.6-1.2-2.8-2.8c-0.5-4.7-0.6-9.4,0-14.1
			C93.4,154.8,94.4,153.9,95.9,153.6z"/>
		<path id="XMLID_433_" class="st6" d="M95.9,152.6c4.8-0.8,9.5-0.9,14.1,0c1.5,0.3,2.5,1.3,2.8,2.8c0.9,4.7,0.9,9.4,0,14.1
			c-0.3,1.5-1.2,2.6-2.8,2.8c-4.7,0.4-9.4,0.4-14.1,0c-1.5-0.1-2.6-1.3-2.8-2.8c-0.5-4.7-0.6-9.4,0-14.1
			C93.4,153.9,94.4,152.9,95.9,152.6z"/>
		<g id="XMLID_422_">
			<path id="XMLID_432_" class="st7" d="M96,152.8c4.7-0.8,9.4-0.8,14,0c1.5,0.3,2.4,1.3,2.7,2.7c0.9,4.7,0.9,9.3,0,14
				c-0.3,1.5-1.2,2.6-2.7,2.7c-4.6,0.4-9.3,0.4-14,0c-1.5-0.1-2.6-1.2-2.7-2.7c-0.5-4.7-0.6-9.3,0-14C93.5,154,94.5,153,96,152.8z"
				/>
			<path id="XMLID_431_" class="st8" d="M96.1,152.9c4.6-0.8,9.2-0.8,13.8,0c1.5,0.3,2.4,1.2,2.7,2.7c0.9,4.6,0.9,9.2,0,13.8
				c-0.3,1.4-1.2,2.5-2.7,2.7c-4.5,0.4-9.1,0.4-13.8,0c-1.5-0.1-2.5-1.2-2.7-2.7c-0.5-4.6-0.6-9.2,0-13.8
				C93.6,154.1,94.6,153.2,96.1,152.9z"/>
			<path id="XMLID_430_" class="st9" d="M96.2,153c4.6-0.8,9.1-0.8,13.6,0c1.4,0.3,2.4,1.2,2.6,2.6c0.9,4.5,0.9,9.1,0,13.6
				c-0.3,1.4-1.2,2.5-2.6,2.6c-4.5,0.4-9,0.4-13.6,0c-1.4-0.1-2.5-1.2-2.6-2.6c-0.5-4.5-0.6-9.1,0-13.6
				C93.7,154.2,94.8,153.3,96.2,153z"/>
			<path id="XMLID_429_" class="st10" d="M96.3,153.1c4.5-0.8,9-0.8,13.4,0c1.4,0.3,2.3,1.2,2.6,2.6c0.9,4.5,0.8,8.9,0,13.4
				c-0.3,1.4-1.2,2.5-2.6,2.6c-4.4,0.4-8.9,0.4-13.4,0c-1.4-0.1-2.4-1.2-2.6-2.6c-0.5-4.5-0.6-8.9,0-13.4
				C93.9,154.3,94.9,153.4,96.3,153.1z"/>
			<path id="XMLID_428_" class="st11" d="M96.4,153.3c4.5-0.8,8.9-0.8,13.2,0c1.4,0.3,2.3,1.2,2.6,2.6c0.9,4.4,0.8,8.8,0,13.2
				c-0.3,1.4-1.2,2.4-2.6,2.6c-4.4,0.4-8.8,0.4-13.2,0c-1.4-0.1-2.4-1.2-2.6-2.6c-0.5-4.4-0.6-8.8,0-13.2
				C94,154.4,95,153.5,96.4,153.3z"/>
			<path id="XMLID_427_" class="st12" d="M96.5,153.4c4.4-0.8,8.7-0.8,13,0c1.4,0.3,2.3,1.2,2.5,2.5c0.8,4.3,0.8,8.7,0,13
				c-0.3,1.4-1.1,2.4-2.5,2.5c-4.3,0.4-8.6,0.4-13,0c-1.4-0.1-2.4-1.2-2.5-2.5c-0.5-4.3-0.6-8.7,0-13
				C94.1,154.6,95.1,153.6,96.5,153.4z"/>
			<path id="XMLID_426_" class="st13" d="M96.6,153.5c4.3-0.8,8.6-0.8,12.8,0c1.4,0.2,2.2,1.1,2.5,2.5c0.8,4.3,0.8,8.6,0,12.8
				c-0.3,1.4-1.1,2.4-2.5,2.5c-4.2,0.4-8.5,0.4-12.8,0c-1.4-0.1-2.3-1.1-2.5-2.5c-0.5-4.3-0.6-8.6,0-12.8
				C94.3,154.7,95.2,153.8,96.6,153.5z"/>
			<path id="XMLID_425_" class="st14" d="M96.7,153.7c4.3-0.8,8.5-0.8,12.6,0c1.3,0.2,2.2,1.1,2.5,2.5c0.8,4.2,0.8,8.4,0,12.6
				c-0.3,1.3-1.1,2.3-2.5,2.5c-4.2,0.4-8.4,0.4-12.6,0c-1.4-0.1-2.3-1.1-2.5-2.5c-0.5-4.2-0.6-8.4,0-12.6
				C94.4,154.8,95.3,153.9,96.7,153.7z"/>
			<path id="XMLID_424_" class="st15" d="M96.8,153.8c4.2-0.7,8.4-0.8,12.5,0c1.3,0.2,2.2,1.1,2.4,2.4c0.8,4.2,0.8,8.3,0,12.5
				c-0.2,1.3-1.1,2.3-2.4,2.4c-4.1,0.4-8.3,0.4-12.5,0c-1.3-0.1-2.3-1.1-2.4-2.4c-0.5-4.2-0.6-8.3,0-12.5
				C94.5,154.9,95.5,154,96.8,153.8z"/>
			<path id="XMLID_423_" class="st16" d="M96.9,153.9c4.1-0.7,8.2-0.7,12.3,0c1.3,0.2,2.1,1.1,2.4,2.4c0.8,4.1,0.8,8.2,0,12.3
				c-0.2,1.3-1.1,2.3-2.4,2.4c-4,0.4-8.1,0.4-12.3,0c-1.3-0.1-2.2-1.1-2.4-2.4c-0.5-4.1-0.6-8.2,0-12.3
				C94.6,155,95.6,154.1,96.9,153.9z"/>
		</g>
		<path id="XMLID_421_" class="st17" d="M97,154c4.1-0.7,8.1-0.7,12.1,0c1.3,0.2,2.1,1.1,2.4,2.4c0.8,4,0.8,8.1,0,12.1
			c-0.2,1.3-1.1,2.2-2.4,2.4c-4,0.4-8,0.4-12.1,0c-1.3-0.1-2.2-1.1-2.4-2.4c-0.5-4-0.5-8.1,0-12.1C94.8,155.1,95.7,154.3,97,154z"/>
		<path id="XMLID_420_" class="st18" d="M95.9,152.6c4.8-0.8,9.5-0.9,14.1,0c1.5,0.3,2.5,1.3,2.8,2.8c0.4,2.1,0.6,4.3,0.7,6.4
			c-8.8-3.6-14.8,6-20.8,0c0-2.1,0.2-4.2,0.4-6.4C93.4,153.9,94.4,152.9,95.9,152.6z"/>
		<circle id="XMLID_419_" class="st4" cx="95.8" cy="155.1" r="1.9"/>
		<circle id="XMLID_418_" class="st4" cx="98.6" cy="153.4" r="0.9"/>
		<circle id="XMLID_417_" class="st4" cx="110.5" cy="170.7" r="1.1"/>
	</g>
	<g id="XMLID_409_" class="st1">
		<g id="XMLID_412_">
			<path id="XMLID_415_" class="st19" d="M101.1,164c0.8,0,1.6,0.2,2.2,0.4c-0.6-2.6-1.4-5.9-2.1-8.5c-0.3-1.2,2.5-0.6,3.5,0.1
				c1,0.7,1.7,2.4,4.1,2.1c-1.3,1.6-3.3,0.5-4.7,0.2c-0.8-0.1-1.3,0.4-1.1,0.9l1.4,5.9c0.4,0.4,0.6,0.9,0.6,1.3
				c0,1.4-1.8,2.6-3.9,2.6c-2.2,0-3.9-1.1-3.9-2.6C97.2,165.2,98.9,164,101.1,164z"/>
			<path id="XMLID_413_" class="st4" d="M101.1,164c0.8,0,1.6,0.2,2.2,0.4c-0.6-2.6-1.4-5.9-2.1-8.5c-0.3-1.2,2.5-0.6,3.5,0.1
				c1,0.7,1.7,2.4,4.1,2.1c-1.3,1.6-3.3,0.5-4.7,0.2c-0.8-0.1-1.3,0.4-1.1,0.9l1.4,5.9c0.4,0.4,0.6,0.9,0.6,1.3
				c0,1.4-1.8,2.6-3.9,2.6c-2.2,0-3.9-1.1-3.9-2.6C97.2,165.2,98.9,164,101.1,164z"/>
		</g>
		<path id="XMLID_411_" class="st2" d="M104.8,165.8c-0.1,1.3-1.8,2.4-3.9,2.4c-1.7,0-3.2-0.7-3.7-1.8c0,0,0,0.1,0,0.2
			c0,0.7,0.4,1.3,1.1,1.8c0.6,0.4,1.3,0.7,2.2,0.7c0.2,0,0.5,0,0.7,0c2.2,0,3.9-1.1,3.9-2.6C105,166.3,105,166,104.8,165.8z"/>
		<path id="XMLID_410_" class="st2" d="M105.7,158.8c1.1,0.3,2.3,0.4,3.2-0.6c-0.3,0-0.6,0.1-0.9,0c-0.3,0-0.5-0.1-0.8-0.2
			c-1.1,0.1-2.3-0.4-3.2-0.6c-0.5-0.1-0.9,0.1-1,0.4c-0.1,0.2-0.2,0.4-0.1,0.6l0.2,0.8c0-0.4,0.4-0.7,0.9-0.7c0.1,0,0.1,0,0.2,0
			C104.7,158.5,105.2,158.7,105.7,158.8z"/>
	</g>
</g>
<g id="XMLID_245_">
	<g id="XMLID_385_">
		<path id="XMLID_407_" class="st2" d="M247.9,246.2c5.3-0.9,10.6-1,15.8,0c1.7,0.3,2.8,1.4,3.1,3.1c1,5.3,1,10.5,0,15.8
			c-0.3,1.7-1.4,2.9-3.1,3.1c-5.2,0.5-10.5,0.5-15.8,0c-1.7-0.1-2.9-1.4-3.1-3.1c-0.6-5.3-0.7-10.5,0-15.8
			C245,247.6,246.2,246.5,247.9,246.2z"/>
		<path id="XMLID_406_" class="st3" d="M247.4,245c5.3-0.9,10.6-1,15.8,0c1.7,0.3,2.8,1.4,3.1,3.1c1,5.3,1,10.5,0,15.8
			c-0.3,1.7-1.4,2.9-3.1,3.1c-5.2,0.5-10.5,0.5-15.8,0c-1.7-0.1-2.9-1.4-3.1-3.1c-0.6-5.3-0.7-10.5,0-15.8
			C244.5,246.4,245.7,245.3,247.4,245z"/>
		<path id="XMLID_405_" class="st4" d="M247.4,244.4c5.3-0.9,10.6-1,15.8,0c1.7,0.3,2.8,1.4,3.1,3.1c1,5.3,1,10.5,0,15.8
			c-0.3,1.7-1.4,2.9-3.1,3.1c-5.2,0.5-10.5,0.5-15.8,0c-1.7-0.1-2.9-1.4-3.1-3.1c-0.6-5.3-0.7-10.5,0-15.8
			C244.5,245.8,245.7,244.7,247.4,244.4z"/>
		<path id="XMLID_404_" class="st3" d="M248.5,245.9c4.8-0.8,9.5-0.9,14.1,0c1.5,0.3,2.5,1.3,2.8,2.8c0.9,4.7,0.9,9.4,0,14.1
			c-0.3,1.5-1.2,2.6-2.8,2.8c-4.7,0.4-9.4,0.4-14.1,0c-1.5-0.1-2.6-1.2-2.8-2.8c-0.5-4.7-0.6-9.4,0-14.1
			C246,247.2,247.1,246.2,248.5,245.9z"/>
		<path id="XMLID_403_" class="st5" d="M248.2,245.5c4.8-0.8,9.5-0.9,14.1,0c1.5,0.3,2.5,1.3,2.8,2.8c0.9,4.7,0.9,9.4,0,14.1
			c-0.3,1.5-1.2,2.6-2.8,2.8c-4.7,0.4-9.4,0.4-14.1,0c-1.5-0.1-2.6-1.2-2.8-2.8c-0.5-4.7-0.6-9.4,0-14.1
			C245.6,246.8,246.7,245.8,248.2,245.5z"/>
		<path id="XMLID_402_" class="st6" d="M248.2,244.6c4.8-0.8,9.5-0.9,14.1,0c1.5,0.3,2.5,1.3,2.8,2.8c0.9,4.7,0.9,9.4,0,14.1
			c-0.3,1.5-1.2,2.6-2.8,2.8c-4.7,0.4-9.4,0.4-14.1,0c-1.5-0.1-2.6-1.3-2.8-2.8c-0.5-4.7-0.6-9.4,0-14.1
			C245.6,245.8,246.7,244.8,248.2,244.6z"/>
		<g id="XMLID_391_">
			<path id="XMLID_401_" class="st7" d="M248.3,244.7c4.7-0.8,9.4-0.8,14,0c1.5,0.3,2.4,1.3,2.7,2.7c0.9,4.7,0.9,9.3,0,14
				c-0.3,1.5-1.2,2.6-2.7,2.7c-4.6,0.4-9.3,0.4-14,0c-1.5-0.1-2.6-1.2-2.7-2.7c-0.5-4.7-0.6-9.3,0-14
				C245.8,245.9,246.8,245,248.3,244.7z"/>
			<path id="XMLID_400_" class="st8" d="M248.4,244.8c4.6-0.8,9.2-0.8,13.8,0c1.5,0.3,2.4,1.2,2.7,2.7c0.9,4.6,0.9,9.2,0,13.8
				c-0.3,1.4-1.2,2.5-2.7,2.7c-4.5,0.4-9.1,0.4-13.8,0c-1.5-0.1-2.5-1.2-2.7-2.7c-0.5-4.6-0.6-9.2,0-13.8
				C245.9,246.1,246.9,245.1,248.4,244.8z"/>
			<path id="XMLID_399_" class="st9" d="M248.5,245c4.6-0.8,9.1-0.8,13.6,0c1.4,0.3,2.4,1.2,2.6,2.6c0.9,4.5,0.9,9.1,0,13.6
				c-0.3,1.4-1.2,2.5-2.6,2.6c-4.5,0.4-9,0.4-13.6,0c-1.4-0.1-2.5-1.2-2.6-2.6c-0.5-4.5-0.6-9.1,0-13.6
				C246,246.2,247.1,245.2,248.5,245z"/>
			<path id="XMLID_398_" class="st10" d="M248.6,245.1c4.5-0.8,9-0.8,13.4,0c1.4,0.3,2.3,1.2,2.6,2.6c0.9,4.5,0.8,8.9,0,13.4
				c-0.3,1.4-1.2,2.5-2.6,2.6c-4.4,0.4-8.9,0.4-13.4,0c-1.4-0.1-2.4-1.2-2.6-2.6c-0.5-4.5-0.6-8.9,0-13.4
				C246.2,246.3,247.2,245.3,248.6,245.1z"/>
			<path id="XMLID_397_" class="st11" d="M248.7,245.2c4.5-0.8,8.9-0.8,13.2,0c1.4,0.3,2.3,1.2,2.6,2.6c0.9,4.4,0.8,8.8,0,13.2
				c-0.3,1.4-1.2,2.4-2.6,2.6c-4.4,0.4-8.8,0.4-13.2,0c-1.4-0.1-2.4-1.2-2.6-2.6c-0.5-4.4-0.6-8.8,0-13.2
				C246.3,246.4,247.3,245.5,248.7,245.2z"/>
			<path id="XMLID_396_" class="st12" d="M248.8,245.3c4.4-0.8,8.7-0.8,13,0c1.4,0.3,2.3,1.2,2.5,2.5c0.8,4.3,0.8,8.7,0,13
				c-0.3,1.4-1.1,2.4-2.5,2.5c-4.3,0.4-8.6,0.4-13,0c-1.4-0.1-2.4-1.2-2.5-2.5c-0.5-4.3-0.6-8.7,0-13
				C246.4,246.5,247.4,245.6,248.8,245.3z"/>
			<path id="XMLID_395_" class="st13" d="M248.9,245.5c4.3-0.8,8.6-0.8,12.8,0c1.4,0.2,2.2,1.1,2.5,2.5c0.8,4.3,0.8,8.6,0,12.8
				c-0.3,1.4-1.1,2.4-2.5,2.5c-4.2,0.4-8.5,0.4-12.8,0c-1.4-0.1-2.3-1.1-2.5-2.5c-0.5-4.3-0.6-8.6,0-12.8
				C246.5,246.6,247.5,245.7,248.9,245.5z"/>
			<path id="XMLID_394_" class="st14" d="M249,245.6c4.3-0.8,8.5-0.8,12.6,0c1.3,0.2,2.2,1.1,2.5,2.5c0.8,4.2,0.8,8.4,0,12.6
				c-0.3,1.3-1.1,2.3-2.5,2.5c-4.2,0.4-8.4,0.4-12.6,0c-1.4-0.1-2.3-1.1-2.5-2.5c-0.5-4.2-0.6-8.4,0-12.6
				C246.7,246.7,247.6,245.8,249,245.6z"/>
			<path id="XMLID_393_" class="st15" d="M249.1,245.7c4.2-0.7,8.4-0.8,12.5,0c1.3,0.2,2.2,1.1,2.4,2.4c0.8,4.2,0.8,8.3,0,12.5
				c-0.2,1.3-1.1,2.3-2.4,2.4c-4.1,0.4-8.3,0.4-12.5,0c-1.3-0.1-2.3-1.1-2.4-2.4c-0.5-4.2-0.6-8.3,0-12.5
				C246.8,246.8,247.7,246,249.1,245.7z"/>
			<path id="XMLID_392_" class="st16" d="M249.2,245.9c4.1-0.7,8.2-0.7,12.3,0c1.3,0.2,2.1,1.1,2.4,2.4c0.8,4.1,0.8,8.2,0,12.3
				c-0.2,1.3-1.1,2.3-2.4,2.4c-4,0.4-8.1,0.4-12.3,0c-1.3-0.1-2.2-1.1-2.4-2.4c-0.5-4.1-0.6-8.2,0-12.3
				C246.9,246.9,247.9,246.1,249.2,245.9z"/>
		</g>
		<path id="XMLID_390_" class="st17" d="M249.2,246c4.1-0.7,8.1-0.7,12.1,0c1.3,0.2,2.1,1.1,2.4,2.4c0.8,4,0.8,8.1,0,12.1
			c-0.2,1.3-1.1,2.2-2.4,2.4c-4,0.4-8,0.4-12.1,0c-1.3-0.1-2.2-1.1-2.4-2.4c-0.5-4-0.5-8.1,0-12.1C247.1,247.1,248,246.2,249.2,246z
			"/>
		<path id="XMLID_389_" class="st18" d="M248.2,244.6c4.8-0.8,9.5-0.9,14.1,0c1.5,0.3,2.5,1.3,2.8,2.8c0.4,2.1,0.6,4.3,0.7,6.4
			c-8.8-3.6-14.8,6-20.8,0c0-2.1,0.2-4.2,0.4-6.4C245.6,245.8,246.7,244.8,248.2,244.6z"/>
		<circle id="XMLID_388_" class="st4" cx="248" cy="247.1" r="1.9"/>
		<circle id="XMLID_387_" class="st4" cx="250.9" cy="245.4" r="0.9"/>
		<circle id="XMLID_386_" class="st4" cx="262.8" cy="262.7" r="1.1"/>
	</g>
	<g id="XMLID_337_">
		<g id="XMLID_376_">
			<path id="XMLID_381_" class="st19" d="M257.6,259.7c0.7,0.3,1.3,0.4,1.3-0.8v-9.6c0-0.8-0.4-0.9-1-0.7l-4.8,3
				c-0.2,0.1-0.3,0.3-0.3,0.6v4.1c0,0.2,0.1,0.4,0.3,0.6L257.6,259.7L257.6,259.7z M259.2,252.2c0.8,0.3,1.4,1.1,1.4,2
				c0,0.9-0.6,1.7-1.4,2V252.2L259.2,252.2z M251.9,250.9H250c-0.3,0-0.5,0.2-0.5,0.5v5.6c0,0.3,0.2,0.5,0.5,0.5h1.8
				c0.3,0,0.5-0.2,0.5-0.5v-5.6C252.4,251.1,252.2,250.9,251.9,250.9z"/>
			<path id="XMLID_377_" class="st4" d="M257.6,259.7c0.7,0.3,1.3,0.4,1.3-0.8v-9.6c0-0.8-0.4-0.9-1-0.7l-4.8,3
				c-0.2,0.1-0.3,0.3-0.3,0.6v4.1c0,0.2,0.1,0.4,0.3,0.6L257.6,259.7L257.6,259.7z M259.2,252.2c0.8,0.3,1.4,1.1,1.4,2
				c0,0.9-0.6,1.7-1.4,2V252.2L259.2,252.2z M251.9,250.9H250c-0.3,0-0.5,0.2-0.5,0.5v5.6c0,0.3,0.2,0.5,0.5,0.5h1.8
				c0.3,0,0.5-0.2,0.5-0.5v-5.6C252.4,251.1,252.2,250.9,251.9,250.9z"/>
		</g>
		<path id="XMLID_368_" class="st20" d="M257.6,259.7c0.7,0.3,1.3,0.4,1.3-0.8v-9.6c0-0.1,0-0.2,0-0.3c0,0.1,0,0.2,0,0.3v8.4
			c0,1.2-0.6,1.1-1.3,0.8l-4.5-2.8c-0.2-0.1-0.3-0.3-0.3-0.5v1.2c0,0.2,0.1,0.4,0.3,0.6L257.6,259.7L257.6,259.7z M258.8,248.9
			C258.8,248.9,258.8,248.8,258.8,248.9C258.8,248.8,258.8,248.9,258.8,248.9L258.8,248.9z M258.7,248.8
			C258.7,248.7,258.7,248.7,258.7,248.8C258.7,248.7,258.7,248.7,258.7,248.8L258.7,248.8z M260.5,253.6c0.1,0.2,0.1,0.4,0.1,0.6
			c0,0.9-0.6,1.7-1.4,2V255C259.8,254.8,260.3,254.3,260.5,253.6L260.5,253.6z M249.9,250.9C249.8,250.9,249.8,250.9,249.9,250.9
			C249.8,250.9,249.8,250.9,249.9,250.9L249.9,250.9z M249.7,251C249.7,251,249.7,251,249.7,251C249.7,251,249.7,251,249.7,251
			L249.7,251z M249.5,255.9v1.2c0,0.3,0.2,0.5,0.5,0.5h1.8c0.3,0,0.5-0.2,0.5-0.5v-1.2c0,0.3-0.2,0.5-0.5,0.5H250
			C249.7,256.4,249.5,256.2,249.5,255.9z"/>
	</g>
</g>
</svg>
